<?xml version="1.0" standalone="no"?>
<!DOCTYPE svg PUBLIC "-//W3C//DTD SVG 20010904//EN"
 "http://www.w3.org/TR/2001/REC-SVG-20010904/DTD/svg10.dtd">
<svg version="1.0" xmlns="http://www.w3.org/2000/svg"
 width="1184.000000pt" height="1184.000000pt" viewBox="0 0 1184.000000 1184.000000"
 preserveAspectRatio="xMidYMid meet">
<metadata>
Created by potrace 1.11, written by Peter Selinger 2001-2013
</metadata>
<g transform="translate(0.000000,1184.000000) scale(0.100000,-0.100000)"
fill="#000000" stroke="none">
<path d="M827 9934 c-2 -2 -21 -6 -43 -8 -21 -2 -61 -9 -89 -16 -27 -7 -54
-13 -60 -14 -5 -1 -27 -10 -49 -19 -21 -9 -41 -17 -45 -17 -27 0 -197 -107
-252 -158 -19 -18 -37 -32 -41 -32 -5 0 -8 -4 -8 -8 0 -5 -18 -29 -41 -53 -23
-24 -45 -53 -50 -64 -10 -21 -31 -57 -39 -65 -5 -5 -28 -53 -40 -85 -10 -24
-23 -58 -25 -65 -1 -3 -4 -12 -8 -20 -6 -16 -11 -41 -24 -106 -9 -42 -8 -791
1 -1769 3 -330 8 -888 11 -1240 5 -613 8 -727 20 -805 3 -19 7 -51 10 -70 2
-19 6 -46 9 -60 17 -74 25 -133 20 -141 -3 -5 -1 -9 4 -9 5 0 9 -6 9 -12 2
-24 55 -212 65 -233 6 -11 11 -21 10 -22 -1 -2 -2 -4 -1 -5 0 -2 2 -10 4 -18
4 -17 32 -97 42 -120 3 -8 7 -17 8 -20 7 -19 21 -53 45 -107 16 -34 26 -64 22
-67 -3 -3 0 -6 6 -6 7 0 12 -5 12 -11 0 -11 17 -47 87 -179 57 -108 241 -402
263 -420 3 -3 17 -21 30 -40 13 -19 27 -37 30 -40 4 -3 11 -12 16 -21 5 -9 27
-37 49 -64 22 -26 57 -68 78 -94 96 -116 165 -189 347 -371 107 -107 224 -220
259 -250 35 -30 73 -64 85 -75 18 -17 140 -119 199 -165 11 -8 24 -20 31 -26
20 -19 280 -210 305 -225 14 -8 35 -24 48 -36 13 -13 30 -23 38 -23 7 0 15 -4
17 -8 4 -11 143 -102 155 -102 6 0 18 -9 28 -20 10 -11 24 -20 32 -20 7 0 13
-4 13 -10 0 -5 4 -10 9 -10 10 0 216 -121 239 -140 6 -6 12 -8 12 -5 0 3 17
-5 38 -18 20 -13 75 -43 122 -67 47 -24 117 -64 155 -88 85 -55 142 -81 173
-82 32 0 92 29 92 45 0 7 5 15 11 17 6 2 13 27 14 55 4 57 -25 123 -88 206
-20 26 -44 61 -54 77 -9 17 -21 30 -25 30 -4 0 -8 7 -8 15 0 8 -4 15 -10 15
-5 0 -10 6 -10 14 0 8 -3 16 -7 18 -10 4 -73 85 -73 93 0 4 -6 12 -12 20 -7 7
-24 27 -38 45 -14 18 -31 38 -38 46 -7 8 -11 14 -8 14 3 0 -2 8 -11 18 -22 23
-28 31 -128 162 -43 58 -82 107 -85 110 -3 3 -14 18 -24 35 -11 16 -23 34 -28
40 -4 5 -22 28 -38 50 -16 22 -34 46 -40 53 -6 6 -8 12 -5 12 4 0 0 7 -7 15
-17 19 -30 36 -45 61 -80 129 -148 246 -187 324 -26 52 -52 101 -58 108 -6 6
-7 12 -3 12 4 0 3 6 -3 13 -26 32 -165 389 -178 457 -3 14 -9 39 -15 56 -5 17
-12 41 -14 53 -3 11 -7 29 -9 40 -16 70 -34 205 -29 214 2 4 1 7 -4 7 -7 0
-16 106 -16 205 -1 118 27 192 89 243 33 27 120 64 141 61 4 -1 10 0 13 1 21
9 188 11 1105 14 572 2 1060 6 1085 10 25 4 59 9 75 12 32 5 130 31 155 41 8
4 17 7 20 8 61 15 204 109 260 171 83 90 155 225 175 327 3 10 6 26 9 35 8 26
16 71 24 137 9 79 9 3335 0 3400 -5 28 -11 61 -14 75 -3 14 -7 32 -9 40 -1 8
-6 24 -10 35 -4 11 -14 38 -22 60 -22 61 -56 128 -75 149 -10 11 -18 25 -18
30 -1 43 -266 296 -309 296 -6 0 -11 4 -11 8 0 8 -145 81 -172 86 -7 2 -20 6
-28 9 -22 10 -101 28 -135 32 -16 2 -30 4 -30 5 0 4 -3474 7 -3478 4z"/>
<path d="M7559 9936 c-2 -2 -26 -7 -52 -10 -172 -23 -371 -125 -513 -263 -68
-66 -144 -155 -144 -168 0 -3 -13 -25 -28 -48 -16 -23 -37 -64 -47 -92 -10
-27 -22 -54 -25 -60 -4 -5 -11 -23 -15 -40 -5 -16 -9 -34 -11 -40 -31 -116
-31 -146 -29 -1803 1 -906 4 -1665 8 -1687 11 -71 18 -108 22 -115 2 -4 7 -22
10 -41 11 -68 71 -198 123 -267 101 -136 288 -251 452 -277 19 -3 48 -8 64
-11 71 -15 168 -20 184 -10 7 4 12 4 12 -1 0 -4 447 -8 993 -9 545 0 1006 -3
1022 -6 60 -13 71 -17 115 -37 76 -34 95 -58 140 -177 11 -28 10 -215 -1 -284
-5 -30 -11 -71 -13 -90 -6 -38 -13 -75 -16 -75 -1 0 -4 -13 -6 -30 -2 -16 -11
-56 -20 -88 -8 -32 -17 -66 -19 -75 -7 -36 -77 -244 -104 -310 -16 -39 -27
-73 -23 -76 3 -3 0 -6 -6 -6 -7 0 -12 -9 -12 -20 0 -11 -4 -20 -8 -20 -5 0 -9
-6 -9 -13 0 -30 -234 -472 -263 -497 -3 -3 -17 -23 -30 -45 -21 -35 -181 -264
-202 -290 -12 -14 -159 -208 -183 -241 -11 -15 -24 -32 -30 -38 -5 -6 -30 -38
-55 -71 -24 -33 -48 -64 -52 -70 -5 -5 -45 -57 -89 -115 -145 -189 -169 -253
-129 -336 36 -74 110 -79 210 -13 14 9 70 40 125 69 55 30 118 64 140 76 22
13 60 33 85 45 25 13 50 27 55 31 12 10 227 138 232 138 7 0 118 75 121 83 2
4 8 7 14 7 5 0 67 39 136 87 70 49 130 90 135 91 4 2 22 17 40 33 17 16 37 29
44 29 7 0 13 3 13 8 0 4 16 18 35 31 19 13 43 31 54 40 34 28 55 45 101 80 25
19 53 42 62 50 9 9 25 23 35 31 44 38 173 150 218 190 81 74 327 320 395 395
35 39 81 90 104 115 23 25 66 77 96 115 30 39 57 72 60 75 3 3 27 34 53 70 26
36 51 70 55 75 27 34 146 212 164 246 13 23 28 49 33 58 16 25 109 195 111
201 0 3 18 41 39 85 20 44 48 109 62 145 13 35 27 69 31 75 4 5 7 12 7 15 1 3
15 48 32 100 26 80 59 195 67 235 1 6 5 19 9 30 3 11 8 38 12 60 3 22 10 57
16 78 6 21 12 60 15 85 2 26 8 72 13 102 5 30 10 154 11 275 5 634 9 1101 11
1105 0 3 0 28 -1 55 0 28 -1 55 -1 60 3 95 12 1048 15 1550 l4 660 -23 101
c-68 293 -258 507 -550 619 -59 23 -147 45 -156 39 -5 -3 -9 -1 -9 3 0 5 -8
10 -17 12 -26 5 -3519 12 -3524 7z"/>
</g>
</svg>
