<svg xmlns="http://www.w3.org/2000/svg" width="47.8" height="47.8" viewBox="0 0 47.8 47.8" overflow="scroll"><style>.st0{fill:#7A5B6B;} .st1{fill:#FFFFFF;}</style><circle class="st0" cx="23.9" cy="23.9" r="23.9"/><g id="Layer_2_2_"><g id="Layer_1-2_2_"><path class="st1" d="M32.6 26.2c-3.4 0-6.2 2.8-6.2 6.2s2.8 6.2 6.2 6.2c3.4 0 6.2-2.8 6.2-6.2 0-3.4-2.8-6.2-6.2-6.2zm0 11.3c-2.8 0-5.2-2.3-5.2-5.2s2.3-5.2 5.2-5.2 5.2 2.3 5.2 5.2-2.3 5.2-5.2 5.2z"/><path class="st1" d="M35.7 31.8h-2.6v-2.6c0-.3-.2-.5-.5-.5s-.5.2-.5.5v3.1c0 .3.2.5.5.5h3.1c.3 0 .5-.2.5-.5 0-.2-.2-.4-.5-.5zM18.3 29.8V18h-1l-2.6 1.5v1l2.6-1.6v10.8l1 .1zM27.5 25.5v-3.8c0-2.1-1.6-3.8-3.7-3.8S20 19.6 20 21.6c0 1 .4 2 1.1 2.7.7.7 1.7 1.1 2.7 1.1 1 0 2-.4 2.7-1.2v1.1c.1.9-.3 1.9-1 2.5-.6.6-1.4.9-2.3.9h-.4v1h.3c.7 0 1.4-.1 2.1-.4.5-.2 1-.6 1.3-1.1.7-.7 1-1.7 1-2.7zm-1.8-1.8c-.5.5-1.2.8-2 .8-.7 0-1.5-.3-2-.8s-.8-1.2-.8-2c0-1.5 1.2-2.8 2.8-2.8.7 0 1.4.3 2 .8.5.5.8 1.2.8 2 .1.8-.2 1.5-.8 2z"/><path class="st1" d="M23.4 32.4H10v-17h24.1v8.2c0 .3.2.5.5.5s.5-.2.5-.5V9.2H9v23.6c0 .3.2.5.5.5h13.9c.3 0 .5-.2.5-.5s-.3-.5-.5-.4c0-.1 0-.1 0 0zM27 10.3h7.2v4.1H27v-4.1zm-8.3 0h7.2v4.1h-7.2v-4.1zm-8.7 0h7.7v4.1H10v-4.1z"/></g></g></svg>