<?xml version="1.0" encoding="utf-8"?>
<!-- Generator: Adobe Illustrator 20.1.0, SVG Export Plug-In . SVG Version: 6.00 Build 0)  -->
<svg version="1.1" id="Layer_1" xmlns="http://www.w3.org/2000/svg" xmlns:xlink="http://www.w3.org/1999/xlink" x="0px" y="0px"
	 viewBox="0 0 73.6 50" style="enable-background:new 0 0 73.6 50;" xml:space="preserve">
<style type="text/css">
	.st0{fill:#EF6263;}
	.st1{fill:#7A5B6B;}
</style>
<path class="st0" d="M26,0C19.3,0.1,12.6,0,5.9,0C2.5,0-0.2,2.4,0,6l0.2,21.6C0.8,34.1,4.6,39,9.3,43.2c2.8,2.5,5.9,4.5,9.2,6.2
	c0.5,0.3,1.2,1,1.8,0.3c0.4-0.6-0.1-1.3-0.5-1.8c-1.6-2.4-3.6-4.5-5-7c-1.2-2.2-2.2-4.5-2.4-7.1c-0.3-2.3,0.4-2.9,2.6-2.9h11.4
	c3.7,0,5.6-1.9,5.6-5.7v-19C32.1,2.6,29.1,0,26,0z"/>
<path class="st1" d="M67.7,0H47.6c-3.1,0-6,2.6-6,6v19c0,3.8,1.9,5.7,5.6,5.7h11.4c2.2,0,2.8,0.7,2.6,2.9c-0.3,2.5-1.2,4.9-2.4,7.1
	c-1.4,2.5-3.3,4.7-5,7c-0.4,0.5-0.9,1.2-0.5,1.8c0.5,0.7,1.2,0,1.8-0.3c3.3-1.7,6.4-3.7,9.2-6.2c4.7-4.2,8.5-9.1,9.1-15.6L73.6,6
	C73.8,2.4,71.2,0,67.7,0z"/>
</svg>
