<?xml version="1.0" encoding="UTF-8"?>
<svg width="76px" height="76px" viewBox="0 0 76 76" version="1.1" xmlns="http://www.w3.org/2000/svg" xmlns:xlink="http://www.w3.org/1999/xlink">
    <!-- Generator: Sketch 41 (35326) - http://www.bohemiancoding.com/sketch -->
    <title>Shape</title>
    <desc>Created with Sketch.</desc>
    <defs></defs>
    <g id="Landing" stroke="none" stroke-width="1" fill="none" fill-rule="evenodd">
        <g id="Desktop" transform="translate(-683.000000, -2242.000000)" fill="#4A4A4A">
            <g id="Features" transform="translate(131.000000, 1640.000000)">
                <g id="24/7" transform="translate(420.000000, 602.000000)">
                    <g id="24/7-Icon" transform="translate(132.000000, 0.000000)">
                        <path d="M38,0 C59.0096154,0 76,16.9903846 76,38 C76,59.0096154 59.0096154,76 38,76 C16.9903846,76 0,59.0096154 0,38 C0,16.9903846 16.9903846,0 38,0 Z M38,72.8942308 C57.1826923,72.8942308 72.8942308,57.1826923 72.8942308,38 C72.8942308,18.8173077 57.1826923,3.10576923 38,3.10576923 C18.8173077,3.10576923 3.10576923,18.8173077 3.10576923,38 C3.10576923,57.1826923 18.8173077,72.8942308 38,72.8942308 Z M38,38 L38,14.6153846 L41.1057692,14.6153846 L41.1057692,41.1057692 L20.4615385,41.1057692 L20.4615385,38 L38,38 Z" id="Shape"></path>
                    </g>
                </g>
            </g>
        </g>
    </g>
</svg>