<?xml version="1.0" encoding="UTF-8"?>
<svg width="76px" height="76px" viewBox="0 0 76 76" version="1.1" xmlns="http://www.w3.org/2000/svg" xmlns:xlink="http://www.w3.org/1999/xlink">
    <!-- Generator: Sketch 41 (35326) - http://www.bohemiancoding.com/sketch -->
    <title>Anonymous Icon</title>
    <desc>Created with Sketch.</desc>
    <defs></defs>
    <g id="Landing" stroke="none" stroke-width="1" fill="none" fill-rule="evenodd">
        <g id="Desktop" transform="translate(-263.000000, -2242.000000)" fill="#4A4A4A">
            <g id="Features" transform="translate(131.000000, 1640.000000)">
                <g id="Anonymous" transform="translate(0.000000, 602.000000)">
                    <g id="Anonymous-Icon" transform="translate(132.000000, 0.000000)">
                        <path d="M63.4125,63.65 C66.5,64.8375 76,68.4 76,76 L38,76 L0,76 C0,68.4 9.5,64.8375 12.5875,63.65 C15.675,62.4625 19.95,62.225 22.8,61.5125 C24.4625,61.0375 26.8375,60.325 27.55,59.375 C28.2625,58.425 27.7875,49.6375 27.7875,49.6375 C27.7875,49.6375 26.3625,47.2625 25.65,45.3625 C24.9375,43.4625 23.9875,37.7625 23.9875,37.7625 C23.9875,37.7625 22.325,37.7625 21.85,34.9125 C21.375,31.825 20.425,30.875 20.425,28.5 C20.425,26.3625 21.6125,26.125 21.6125,26.125 L21.6125,26.125 C21.6125,26.125 20.6625,23.0375 20.425,16.15 C20.1875,8.075 26.3625,0 38,0 C49.6375,0 55.8125,8.075 55.575,16.15 C55.3375,23.0375 54.3875,26.125 54.3875,26.125 L54.3875,26.125 C54.3875,26.125 55.575,26.3625 55.575,28.5 C55.575,30.875 54.8625,32.0625 54.15,35.15 C53.675,38 52.0125,38 52.0125,38 C52.0125,38 51.0625,43.4625 50.35,45.3625 C49.6375,47.2625 48.2125,49.6375 48.2125,49.6375 C48.2125,49.6375 47.7375,58.425 48.45,59.375 C49.1625,60.325 51.5375,61.0375 53.2,61.5125 C56.05,62.225 60.325,62.4625 63.4125,63.65 Z M38,72.2 L38,72.2 L70.5375,72.2 C70.0625,71.4875 69.5875,70.775 68.6375,70.3 C66.975,69.1125 64.8375,68.1625 62.225,67.2125 C60.5625,66.7375 58.1875,66.2625 56.05,66.025 C54.625,65.7875 53.675,65.55 52.4875,65.3125 C51.775,65.075 47.5,64.125 45.6,61.75 C44.65,60.5625 44.175,58.9 44.175,54.15 C44.175,51.775 44.4125,49.4 44.4125,49.4 L44.4125,48.45 L44.8875,47.5 C45.125,47.025 46.3125,45.3625 46.7875,43.9375 C47.2625,42.75 47.975,39.425 48.2125,37.2875 C48.2125,37.2875 48.2125,37.525 48.45,36.3375 C48.6875,35.15 50.35,35.3875 50.5875,34.4375 C50.825,33.4875 51.3,32.775 51.775,30.1625 C52.25,27.55 50.5875,27.3125 50.5875,26.125 C50.5875,25.175 50.825,24.9375 50.825,24.9375 L50.825,24.9375 C50.825,24.7 51.775,21.6125 51.775,15.9125 C51.775,12.825 50.5875,9.7375 48.45,7.6 C45.8375,4.9875 42.5125,3.8 38,3.8 C33.725,3.8 29.925,4.9875 27.3125,7.6 C25.175,9.7375 24.225,12.825 24.225,15.9125 C24.4625,21.6125 25.175,24.7 25.175,24.9375 L25.175,24.9375 C25.175,24.9375 25.4125,25.65 25.175,26.3625 C24.9375,27.55 23.75,27.55 24.225,30.1625 C24.7,32.775 25.175,33.4875 25.4125,34.4375 C25.65,35.3875 27.3125,35.15 27.55,36.3375 C27.7875,37.525 27.7875,37.2875 27.7875,37.2875 C28.025,39.425 28.7375,42.75 29.2125,43.9375 C29.6875,45.3625 30.6375,47.025 31.1125,47.5 L31.5875,48.45 L31.5875,49.4 C31.5875,49.4 31.825,51.775 31.825,54.15 C31.825,58.9 31.35,60.5625 30.4,61.75 C28.5,64.125 24.225,65.075 23.5125,65.3125 C22.325,65.55 21.1375,65.7875 19.7125,66.025 C17.575,66.2625 15.4375,66.7375 13.775,67.2125 C11.1625,68.1625 9.025,69.1125 7.3625,70.3 C6.4125,70.775 5.9375,71.4875 5.4625,72.2 L38,72.2 Z" id="Shape"></path>
                        <text id="?" font-family="Roboto-Black, Roboto" font-size="22" font-weight="700" letter-spacing="1.22222233">
                            <tspan x="32.2868381" y="32">?</tspan>
                        </text>
                    </g>
                </g>
            </g>
        </g>
    </g>
</svg>