<?xml version="1.0" encoding="UTF-8"?>
<svg width="30px" height="30px" viewBox="0 0 30 30" version="1.1" xmlns="http://www.w3.org/2000/svg" xmlns:xlink="http://www.w3.org/1999/xlink">
    <g id="icons" stroke="none" stroke-width="1" fill="none" fill-rule="evenodd">
        <g id="facebook-color">
            <g id="Facebook_Color">
                <g id="Page-1">
                    <g id="Social_icons">
                        <g id="Color">
                            <g id="Facebook">
                                <path d="M0,15 C0,6.71572835 6.71572835,0 15,0 C23.2842717,0 30,6.71572835 30,15 C30,23.2842717 23.2842717,30 15,30 C6.71572835,30 0,23.2842717 0,15 Z" id="back" fill="#3B5998"></path>
                                <path d="M16.063472,23.319673 L16.063472,15.158881 L18.3162074,15.158881 L18.6147435,12.3466269 L16.063472,12.3466269 L16.0672993,10.9390666 C16.0672993,10.2055875 16.1369897,9.8125726 17.1904776,9.8125726 L18.5987961,9.8125726 L18.5987961,7 L16.3457417,7 C13.639461,7 12.6869203,8.3642458 12.6869203,10.6584782 L12.6869203,12.3469454 L11,12.3469454 L11,15.1591995 L12.6869203,15.1591995 L12.6869203,23.319673 L16.063472,23.319673 Z" id="Shape" fill="#FFFFFF"></path>
                            </g>
                        </g>
                    </g>
                </g>
            </g>
        </g>
    </g>
</svg>
