<?xml version="1.0" encoding="UTF-8"?>
<svg width="30px" height="30px" viewBox="0 0 30 30" version="1.1" xmlns="http://www.w3.org/2000/svg" xmlns:xlink="http://www.w3.org/1999/xlink">
    <g id="icons" stroke="none" stroke-width="1" fill="none" fill-rule="evenodd">
        <g id="google-color">
            <g id="Google-+_Color">
                <g id="Page-1">
                    <g id="Social_icons">
                        <g id="Color">
                            <g id="Google-+">
                                <path d="M0,14.7550001 C0,6.60603817 6.61558446,0 14.7763224,0 C22.9370603,0 29.5526447,6.60603817 29.5526447,14.7550001 C29.5526447,22.9039621 22.9370603,29.5100002 14.7763224,29.5100002 C6.61558446,29.5100002 0,22.9039621 0,14.7550001 Z" id="back" fill="#DC4E41"></path>
                                <path d="M12.0722728,14.3334287 L12.0722728,15.9354001 L14.7348797,15.9354001 C14.6275706,16.6229128 13.9300615,17.9512142 12.0722728,17.9512142 C10.4693432,17.9512142 9.16151369,16.6295878 9.16151369,15.0009168 C9.16151369,13.3722458 10.4693432,12.0506194 12.0722728,12.0506194 C12.9844001,12.0506194 13.5947206,12.4377625 13.9434751,12.7715065 L15.2177706,11.5500033 C14.3995387,10.7890669 13.3398615,10.3285001 12.0722728,10.3285001 C9.47673416,10.3285001 7.37750006,12.4177378 7.37750006,15.0009168 C7.37750006,17.5840958 9.47673416,19.6733335 12.0722728,19.6733335 C14.7818274,19.6733335 16.5792547,17.7776673 16.5792547,15.1077149 C16.5792547,14.8006703 16.5457206,14.5670495 16.5054797,14.3334287 L12.0722728,14.3334287 L12.0722728,14.3334287 Z" id="Shape" fill="#FFFFFF"></path>
                                <polyline id="Shape-Copy" fill="#FFFFFF" points="22.1325002 14.3334287 20.7911365 14.3334287 20.7911365 12.9984525 19.4497729 12.9984525 19.4497729 14.3334287 18.1084092 14.3334287 18.1084092 15.6684049 19.4497729 15.6684049 19.4497729 17.0033811 20.7911365 17.0033811 20.7911365 15.6684049 22.1325002 15.6684049"></polyline>
                            </g>
                        </g>
                    </g>
                </g>
            </g>
        </g>
    </g>
</svg>
