<?xml version="1.0" encoding="UTF-8"?>
<svg width="30px" height="30px" viewBox="0 0 30 30" version="1.1" xmlns="http://www.w3.org/2000/svg" xmlns:xlink="http://www.w3.org/1999/xlink">
    <g id="Landing" stroke="none" stroke-width="1" fill="none" fill-rule="evenodd" opacity="0.5">
        <g id="Desktop" transform="translate(-547.000000, -3547.000000)" fill="#FFFFFF">
            <g id="Footer" transform="translate(0.000000, 3460.000000)">
                <g id="Social-icons" transform="translate(447.000000, 87.000000)">
                    <g id="google-white" transform="translate(100.000000, 0.000000)">
                        <g id="Google-+_White">
                            <g id="Page-1">
                                <g id="Social_icons">
                                    <g id="White">
                                        <g id="Google-+">
                                            <path d="M0,14.7540984 C0,6.60563444 6.61518015,0 14.7754193,0 C22.9356585,0 29.5508386,6.60563444 29.5508386,14.7540984 C29.5508386,22.9025623 22.9356585,29.5081967 14.7754193,29.5081967 C6.61518015,29.5081967 0,22.9025623 0,14.7540984 Z M12.071535,14.3325527 L12.071535,15.9344262 L14.7339791,15.9344262 C14.6266766,16.6218969 13.9292101,17.9501171 12.071535,17.9501171 C10.4687034,17.9501171 9.16095379,16.6285714 9.16095379,15 C9.16095379,13.3714286 10.4687034,12.0498829 12.071535,12.0498829 C12.9836066,12.0498829 13.5938897,12.4370023 13.942623,12.770726 L15.2168405,11.5492974 C14.3986587,10.7884075 13.3390462,10.3278689 12.071535,10.3278689 C9.47615498,10.3278689 7.37704918,12.4169789 7.37704918,15 C7.37704918,17.5830211 9.47615498,19.6721311 12.071535,19.6721311 C14.780924,19.6721311 16.5782414,17.7765808 16.5782414,15.1067916 C16.5782414,14.7997658 16.5447094,14.5661592 16.5044709,14.3325527 L12.071535,14.3325527 Z M22.1311475,14.3325527 L20.7898659,14.3325527 L20.7898659,12.9976581 L19.4485842,12.9976581 L19.4485842,14.3325527 L18.1073025,14.3325527 L18.1073025,15.6674473 L19.4485842,15.6674473 L19.4485842,17.0023419 L20.7898659,17.0023419 L20.7898659,15.6674473 L22.1311475,15.6674473 L22.1311475,14.3325527 Z" id="Combined-Shape"></path>
                                        </g>
                                    </g>
                                </g>
                            </g>
                        </g>
                    </g>
                </g>
            </g>
        </g>
    </g>
</svg>
