<?xml version="1.0" encoding="UTF-8"?>
<svg width="11px" height="16px" viewBox="0 0 11 16" version="1.1" xmlns="http://www.w3.org/2000/svg" xmlns:xlink="http://www.w3.org/1999/xlink">
    <!-- Generator: Sketch 41 (35326) - http://www.bohemiancoding.com/sketch -->
    <title>location icon</title>
    <desc>Created with Sketch.</desc>
    <defs></defs>
    <g id="Landing" stroke="none" stroke-width="1" fill="none" fill-rule="evenodd">
        <g id="Desktop" transform="translate(-195.000000, -3149.000000)" fill="#FF2C74">
            <g id="Comments" transform="translate(0.000000, 2730.000000)">
                <g id="Comment-1" transform="translate(88.000000, 200.000000)">
                    <g id="Italy" transform="translate(107.500000, 219.000000)">
                        <g id="location-icon">
                            <path d="M5,0.555555556 C3.81944444,0.555555556 2.67361111,1.00694444 1.84027778,1.84027778 C1.00694444,2.67361111 0.555555556,3.81944444 0.555555556,5 C0.555555556,6.49305556 1.38888889,8.71527778 2.98611111,11.4583333 C3.75,12.7777778 4.51388889,13.9583333 5,14.6180556 C5.48611111,13.9583333 6.25,12.7777778 7.01388889,11.4583333 C8.61111111,8.71527778 9.44444444,6.49305556 9.44444444,5 C9.44444444,3.81944444 8.99305556,2.67361111 8.15972222,1.84027778 C7.32638889,1.00694444 6.18055556,0.555555556 5,0.555555556 Z M5,0 L5,0 C7.77777778,0 10,2.22222222 10,5 C10,8.88888889 5,15.5555556 5,15.5555556 C5,15.5555556 0,8.88888889 0,5 C0,2.22222222 2.22222222,0 5,0 Z M5,2.77777778 C6.21527778,2.77777778 7.22222222,3.78472222 7.22222222,5 C7.22222222,6.21527778 6.21527778,7.22222222 5,7.22222222 C3.78472222,7.22222222 2.77777778,6.21527778 2.77777778,5 C2.77777778,3.78472222 3.78472222,2.77777778 5,2.77777778 Z M5,6.63194444 C5.90277778,6.63194444 6.63194444,5.90277778 6.63194444,5 C6.63194444,4.09722222 5.90277778,3.36805556 5,3.36805556 C4.09722222,3.36805556 3.36805556,4.09722222 3.36805556,5 C3.36805556,5.90277778 4.09722222,6.63194444 5,6.63194444 Z" id="Shape"></path>
                        </g>
                    </g>
                </g>
            </g>
        </g>
    </g>
</svg>