<?xml version="1.0" encoding="UTF-8"?>
<svg width="85px" height="76px" viewBox="0 0 85 76" version="1.1" xmlns="http://www.w3.org/2000/svg" xmlns:xlink="http://www.w3.org/1999/xlink">
    <!-- Generator: Sketch 41 (35326) - http://www.bohemiancoding.com/sketch -->
    <title>Privat</title>
    <desc>Created with Sketch.</desc>
    <defs></defs>
    <g id="Landing" stroke="none" stroke-width="1" fill="none" fill-rule="evenodd">
        <g id="Desktop" transform="translate(-680.000000, -1134.000000)" fill="#4A4A4A">
            <g id="Features" transform="translate(132.000000, 932.000000)">
                <g id="Private" transform="translate(421.000000, 202.000000)">
                    <g id="Privat" transform="translate(127.000000, 0.000000)">
                        <g id="Private">
                            <g id="Group">
                                <path d="M84.7786458,37.6302083 L85,37.8515625 L83.671875,39.1796875 C79.0234375,43.828125 73.2682292,49.8046875 66.40625,54.453125 C58.4375,59.765625 50.46875,62.421875 42.5,62.421875 C24.1276042,62.421875 13.7239583,51.5755208 1.54947917,39.1796875 L0,37.6302083 L0.221354167,37.4088542 C8.85416667,28.5546875 15.0520833,23.2421875 21.0286458,19.4791667 C28.1119792,15.0520833 34.9739583,12.8385417 42.5,12.8385417 C60.8723958,12.8385417 74.8177083,26.1197917 84.7786458,37.6302083 Z M42.5,16.3802083 C28.7760417,16.3802083 17.9296875,24.3489583 4.86979167,37.6302083 C10.1822917,42.9427083 15.4947917,48.6979167 21.6927083,52.6822917 C28.3333333,57.109375 34.9739583,58.8802083 42.5,58.8802083 C59.1015625,58.8802083 71.9401042,46.484375 80.3515625,37.8515625 C74.5963542,31.4322917 69.2838542,26.7838542 63.9713542,23.2421875 C56.8880208,18.59375 49.8046875,16.3802083 42.5,16.3802083 Z M42.5,55.3385417 C32.7604167,55.3385417 24.7916667,47.3697917 24.7916667,37.6302083 C24.7916667,27.890625 32.7604167,19.921875 42.5,19.921875 C52.2395833,19.921875 60.2083333,27.890625 60.2083333,37.6302083 C60.2083333,47.3697917 52.2395833,55.3385417 42.5,55.3385417 Z M42.5,23.4635417 C34.7526042,23.4635417 28.3333333,29.8828125 28.3333333,37.6302083 C28.3333333,45.3776042 34.7526042,51.796875 42.5,51.796875 C50.2473958,51.796875 56.6666667,45.3776042 56.6666667,37.6302083 C56.6666667,29.8828125 50.2473958,23.4635417 42.5,23.4635417 Z M49.5833333,37.6302083 L53.125,37.6302083 L53.125,37.6302083 C53.125,43.3854167 48.2552083,48.2552083 42.5,48.2552083 C36.7447917,48.2552083 31.875,43.6067708 31.875,37.6302083 C31.875,31.6536458 36.7447917,27.0052083 42.5,27.0052083 L42.5,30.546875 C38.9583333,30.546875 35.4166667,33.4244792 35.4166667,37.4088542 C35.4166667,41.3932292 38.7369792,44.7135417 42.5,44.7135417 C46.2630208,44.7135417 49.5833333,41.6145833 49.5833333,37.6302083 L49.5833333,37.6302083 Z" id="Combined-Shape"></path>
                                <rect id="Rectangle-7" transform="translate(42.834451, 37.644895) rotate(30.000000) translate(-42.834451, -37.644895) " x="41.1568189" y="-4.85510455" width="3.35526316" height="85"></rect>
                            </g>
                        </g>
                    </g>
                </g>
            </g>
        </g>
    </g>
</svg>