<?xml version="1.0" encoding="UTF-8"?>
<svg width="60px" height="77px" viewBox="0 0 60 77" version="1.1" xmlns="http://www.w3.org/2000/svg" xmlns:xlink="http://www.w3.org/1999/xlink">
    <!-- Generator: Sketch 41 (35326) - http://www.bohemiancoding.com/sketch -->
    <title>Shape</title>
    <desc>Created with Sketch.</desc>
    <defs></defs>
    <g id="Landing" stroke="none" stroke-width="1" fill="none" fill-rule="evenodd">
        <g id="Desktop" transform="translate(-274.000000, -1845.000000)" fill="#4A4A4A">
            <g id="Features" transform="translate(131.000000, 1640.000000)">
                <g id="Secure" transform="translate(3.000000, 205.000000)">
                    <g id="Secure-Icon" transform="translate(140.000000, 0.000000)">
                        <path d="M49,32.6538462 L59.2307692,32.6538462 L59.2307692,76.5 L0.769230769,76.5 L0.769230769,32.6538462 L11,32.6538462 L11,19.5 C11,9.08653846 19.5865385,0.5 30,0.5 C40.4134615,0.5 49,9.08653846 49,19.5 L49,32.6538462 Z M13.9230769,19.5 L13.9230769,32.6538462 L46.0769231,32.6538462 L46.0769231,19.5 C46.0769231,10.5480769 38.9519231,3.42307692 30,3.42307692 C21.0480769,3.42307692 13.9230769,10.5480769 13.9230769,19.5 Z M56.3076923,73.5769231 L56.3076923,35.5769231 L3.69230769,35.5769231 L3.69230769,73.5769231 L56.3076923,73.5769231 Z M30,44.3461538 C33.2884615,44.3461538 35.8461538,46.9038462 35.8461538,50.1923077 C35.8461538,52.9326923 34.0192308,55.125 31.4615385,55.8557692 L31.4615385,61.8846154 L28.5384615,61.8846154 L28.5384615,55.8557692 C25.9807692,55.125 24.1538462,52.9326923 24.1538462,50.1923077 C24.1538462,46.9038462 26.7115385,44.3461538 30,44.3461538 Z M30,53.1153846 C31.6442308,53.1153846 32.9230769,51.8365385 32.9230769,50.1923077 C32.9230769,48.5480769 31.6442308,47.2692308 30,47.2692308 C28.3557692,47.2692308 27.0769231,48.5480769 27.0769231,50.1923077 C27.0769231,51.8365385 28.3557692,53.1153846 30,53.1153846 Z" id="Shape"></path>
                    </g>
                </g>
            </g>
        </g>
    </g>
</svg>