<svg xmlns="http://www.w3.org/2000/svg" viewBox="0 0 350.75 265.75"><defs><style>.cls-1,.cls-4{fill:#ffdc95;}.cls-1{stroke:#7a5b6b;stroke-miterlimit:10;stroke-width:0.75px;}.cls-2{fill:#ef6263;}.cls-3{fill:#7a5b6b;}</style></defs><title>chatbots</title><g id="Layer_2" data-name="Layer 2"><g id="Layer_1-2" data-name="Layer 1"><rect class="cls-1" x="0.38" y="0.38" width="350" height="265" rx="3" ry="3"/><path class="cls-2" d="M165.24,213.89a5,5,0,0,1-5-5v-12a67.22,67.22,0,0,1-19.36-8.07l-8.56,8.48a5,5,0,0,1-7.07,0L110.92,183a5,5,0,0,1,0-7.07l8.47-8.47a66.92,66.92,0,0,1-8-19.39l-12-.05a5,5,0,0,1-5-5V122.74a5,5,0,0,1,5-5h12a66.91,66.91,0,0,1,8.08-19.36l-8.48-8.55a5,5,0,0,1,0-7.07l14.33-14.34a5,5,0,0,1,7.07,0l8.47,8.47a67.25,67.25,0,0,1,19.38-8l.05-12a5,5,0,0,1,5-5h20.27a5,5,0,0,1,5,5v12a67.23,67.23,0,0,1,19.36,8.07l8.56-8.48a5,5,0,0,1,7.07,0l14.34,14.34a5,5,0,0,1,0,7.07l-8.47,8.47a66.92,66.92,0,0,1,8,19.39l12,.05a5,5,0,0,1,5,5V143a5,5,0,0,1-5,5h-12a66.91,66.91,0,0,1-8.08,19.36l8.48,8.55a5,5,0,0,1,0,7.07l-14.34,14.34a5,5,0,0,1-7.07,0l-8.47-8.47a67.24,67.24,0,0,1-19.38,8l-.06,12a5,5,0,0,1-5,5Z"/><path class="cls-3" d="M185.51,56.87v12a5.06,5.06,0,0,0,3.9,4.93,60.6,60.6,0,0,1,17.83,7.4,5.05,5.05,0,0,0,6.24-.73L222,72l14.34,14.34-8.47,8.47a5.07,5.07,0,0,0-.73,6.24,60.28,60.28,0,0,1,7.4,17.83,5.07,5.07,0,0,0,4.93,3.9h12V143h-12a5.07,5.07,0,0,0-4.93,3.9,60.33,60.33,0,0,1-7.4,17.83,5.08,5.08,0,0,0,.73,6.24l8.47,8.47L222,193.8l-8.47-8.47a5.06,5.06,0,0,0-6.24-.73,60.6,60.6,0,0,1-17.83,7.4,5.06,5.06,0,0,0-3.9,4.93v12H165.24v-12a5.06,5.06,0,0,0-3.9-4.93,60.6,60.6,0,0,1-17.83-7.4,5.05,5.05,0,0,0-6.24.73l-8.47,8.47-14.34-14.34,8.47-8.47a5.07,5.07,0,0,0,.73-6.24,60.27,60.27,0,0,1-7.4-17.83,5.07,5.07,0,0,0-4.93-3.9h-12V122.74h12a5.07,5.07,0,0,0,4.93-3.9,60.33,60.33,0,0,1,7.4-17.83,5.07,5.07,0,0,0-.73-6.24l-8.47-8.47L128.8,72l8.47,8.47a5.06,5.06,0,0,0,6.24.73,60.6,60.6,0,0,1,17.83-7.4,5.06,5.06,0,0,0,3.9-4.93v-12h20.27m0-10H165.24a10,10,0,0,0-10,10V65a70.53,70.53,0,0,0-13.58,5.63l-5.79-5.79a10,10,0,0,0-14.14,0L107.39,79.22a10,10,0,0,0,0,14.14l5.79,5.79a70.24,70.24,0,0,0-5.64,13.59H99.36a10,10,0,0,0-10,10V143a10,10,0,0,0,10,10h8.17a70.2,70.2,0,0,0,5.64,13.59l-5.79,5.79a10,10,0,0,0,0,14.14l14.34,14.34a10,10,0,0,0,14.14,0l5.79-5.79a70.52,70.52,0,0,0,13.58,5.64v8.18a10,10,0,0,0,10,10H185.5a10,10,0,0,0,10-10v-8.18a70.52,70.52,0,0,0,13.59-5.64l5.79,5.79a10,10,0,0,0,14.14,0l14.34-14.34a10,10,0,0,0,0-14.14l-5.79-5.79A70.24,70.24,0,0,0,243.21,153h8.18a10,10,0,0,0,10-10V122.74a10,10,0,0,0-10-10h-8.17a70.22,70.22,0,0,0-5.64-13.59l5.79-5.79a10,10,0,0,0,0-14.14L229,64.89a10,10,0,0,0-14.14,0l-5.79,5.79A70.52,70.52,0,0,0,195.51,65V56.87a10,10,0,0,0-10-10Z"/><path class="cls-4" d="M208.85,131.32h-7.62v-9.85a2.36,2.36,0,0,0-2.36-2.36H177.6v-2.76a7.09,7.09,0,1,0-4.73-.09v2.85H151.61a2.36,2.36,0,0,0-2.36,2.36v9.85H141.9a2.36,2.36,0,0,0-2.36,2.36v15A2.36,2.36,0,0,0,141.9,151h7.35v9.85a2.36,2.36,0,0,0,2.36,2.36h47.26a2.36,2.36,0,0,0,2.36-2.36V151h7.62a2.36,2.36,0,0,0,2.36-2.36v-15A2.36,2.36,0,0,0,208.85,131.32Zm-33.48-24a2.36,2.36,0,1,1-2.36,2.36A2.36,2.36,0,0,1,175.37,107.29Zm-31.11,39V136h5v10.24Zm23.1,12.21v-6.3h15.75v6.3Zm29.14,0h-8.66v-8.66a2.36,2.36,0,0,0-2.36-2.36H165a2.36,2.36,0,0,0-2.36,2.36v8.66H154V123.84h42.54Zm10-12.21h-5.25V136h5.25Z"/><path class="cls-4" d="M165.92,142a7.09,7.09,0,1,0-7.09-7.09,7.09,7.09,0,0,0,7.09,7.09Zm0-9.45a2.36,2.36,0,1,1-2.36,2.36A2.36,2.36,0,0,1,165.92,132.5Z"/><path class="cls-4" d="M184.83,142a7.09,7.09,0,1,0-7.09-7.09,7.09,7.09,0,0,0,7.09,7.09Zm0-9.45a2.36,2.36,0,1,1-2.36,2.36A2.36,2.36,0,0,1,184.83,132.5Z"/></g></g></svg>