<svg xmlns="http://www.w3.org/2000/svg" width="47.8" height="47.8" viewBox="0 0 47.8 47.8" overflow="scroll"><style>.st0{fill:#7A5B6B;} .st1{fill:#FFFFFF;}</style><circle class="st0" cx="23.9" cy="23.9" r="23.9"/><g id="Layer_2_1_"><g id="Layer_1-2_1_"><path class="st1" d="M36.5 15.9h-12c-2.7 0-4.9 2.2-4.9 5v6.2c0 2.7 2.2 5 5 5h8.3l3.9 4.5 1.1 1.2c.1.1.1.1.2.1h.1c.1 0 .2-.2.2-.3v-5.8c1.9-.7 3.1-2.6 3.1-4.6V21c0-2.9-2.2-5.1-5-5.1zm3.8 11.2c0 1.5-.9 2.9-2.4 3.5-.2.1-.4.1-.6.2-.1 0-.2.1-.2.3v4.1L34 31.6l-.5-.6c-.1-.1-.1-.1-.2-.1h-8.7c-2.1 0-3.8-1.7-3.8-3.8v-6.2c0-2.1 1.7-3.8 3.8-3.8h12c2.1 0 3.8 1.7 3.8 3.8v6.2z"/><path class="st1" d="M18.5 25.2h-2.1c-.1 0-.2 0-.3.1l-.6.7-2.6 3.1v-3.8c0-.2-.1-.3-.3-.3-.2-.1-.5-.1-.7-.3-1.7-.6-2.9-2.3-2.9-4.2v-3.4c0-2.6 2.1-4.7 4.7-4.7h10.8c1.8 0 3.4 1 4.2 2.5h1.6c-.9-2.4-3.2-4-5.8-4H13.7c-3.4 0-6.1 2.7-6.1 6.1v3.4c0 2.5 1.5 4.8 3.9 5.7V32c0 .2.1.3.2.3h.1c.1 0 .2 0 .3-.1l1.3-1.5 3.6-4.3h1.6v-1.2z"/></g></g></svg>