<svg xmlns="http://www.w3.org/2000/svg" width="469.6" height="415.4" viewBox="0 0 469.6 415.4" overflow="scroll"><style>.st0{fill:none;stroke:#7A5B6B;stroke-width:4;stroke-miterlimit:10;} .st1{fill:none;stroke:#7A5B6B;stroke-width:4;stroke-miterlimit:10;stroke-dasharray:11.6489,11.6489;} .st2{fill:none;stroke:#7A5B6B;stroke-width:4;stroke-miterlimit:10;stroke-dasharray:11.9289,11.9289;} .st3{fill:none;stroke:#7A5B6B;stroke-width:4;stroke-miterlimit:10;stroke-dasharray:11.5991,11.5991;} .st4{fill:none;stroke:#7A5B6B;stroke-width:4;stroke-miterlimit:10;stroke-dasharray:11.8397,11.8397;} .st5{fill:none;stroke:#7A5B6B;stroke-width:4;stroke-miterlimit:10;stroke-dasharray:12.0245,12.0245;} .st6{fill:none;stroke:#7A5B6B;stroke-width:4;stroke-miterlimit:10;stroke-dasharray:12.1658,12.1658;} .st7{fill:none;stroke:#7A5B6B;stroke-width:4;stroke-miterlimit:10;stroke-dasharray:11.7903,11.7903;} .st8{fill:none;stroke:#7A5B6B;stroke-width:4;stroke-miterlimit:10;stroke-dasharray:12.2338,12.2338;} .st9{fill:none;stroke:#7A5B6B;stroke-width:4;stroke-miterlimit:10;stroke-dasharray:12.1924,12.1924;} .st10{fill:none;stroke:#7A5B6B;stroke-width:4;stroke-miterlimit:10;stroke-dasharray:12.6059,12.6059;} .st11{fill:#EF6263;} .st12{fill:#FFDC95;}</style><path class="st0" d="M123.2 371.9l-3.3-5"/><path class="st1" d="M113.5 357.2L39.8 245.3"/><path class="st0" d="M36.6 240.5l-3.3-5M169.7 69.6l-3.8 4.6"/><path class="st2" d="M158.3 83.4L40.9 226.2"/><path class="st0" d="M37.1 230.8l-3.8 4.7M265.4 246.5l-6-.3"/><path class="st3" d="M247.8 245.6L45 236"/><path class="st0" d="M39.2 235.7l-5.9-.2M265.4 246.5l-4.5 3.9"/><path class="st4" d="M252 258.3L132.2 364"/><path class="st0" d="M127.7 367.9l-4.5 4M265.4 246.5l3.6 4.8"/><path class="st5" d="M276.2 260.9L359 371.6"/><path class="st0" d="M362.6 376.4l3.6 4.9M123.2 371.9l6 .2"/><path class="st6" d="M141.4 372.6l212.7 8.2"/><path class="st0" d="M360.2 381l6 .3"/><g><path class="st0" d="M435.4 34.2l-1.2 5.9"/><path class="st7" d="M431.9 51.6l-63.4 318"/><path class="st0" d="M367.4 375.4l-1.2 5.9"/></g><g><path class="st0" d="M435.4 34.2l-3.8 4.6"/><path class="st8" d="M423.9 48.3L273 233.1"/><path class="st0" d="M269.2 237.9l-3.8 4.6"/></g><g><path class="st0" d="M435.4 34.2l-5.9.8"/><path class="st9" d="M417.4 36.6L181.7 68"/><path class="st0" d="M175.7 68.8l-6 .8"/></g><g><path class="st0" d="M265.4 246.5l-2.9-5.3"/><path class="st10" d="M256.5 230.1L175.6 80.4"/><path class="st0" d="M172.6 74.9l-2.9-5.3"/></g><g><path class="st11" d="M123.2 404.1c-17.7 0-32.2-14.4-32.2-32.2s14.4-32.2 32.2-32.2c17.7 0 32.2 14.4 32.2 32.2s-14.5 32.2-32.2 32.2z"/><path class="st12" d="M123.2 341.7c16.6 0 30.2 13.5 30.2 30.2 0 16.6-13.5 30.2-30.2 30.2-16.6 0-30.2-13.5-30.2-30.2 0-16.6 13.6-30.2 30.2-30.2m0-4c-18.9 0-34.2 15.3-34.2 34.2 0 18.9 15.3 34.2 34.2 34.2s34.2-15.3 34.2-34.2c0-18.9-15.3-34.2-34.2-34.2z"/></g><g><path class="st11" d="M34.2 266.5C16.4 266.5 2 252.1 2 234.3s14.4-32.2 32.2-32.2c17.7 0 32.2 14.4 32.2 32.2s-14.5 32.2-32.2 32.2z"/><path class="st12" d="M34.2 204.2c16.6 0 30.2 13.5 30.2 30.2s-13.5 30.2-30.2 30.2C17.5 264.5 4 251 4 234.3s13.5-30.1 30.2-30.1m0-4C15.3 200.2 0 215.5 0 234.3s15.3 34.2 34.2 34.2 34.2-15.3 34.2-34.2-15.4-34.1-34.2-34.1z"/></g><g><path class="st11" d="M265.4 278.6c-17.7 0-32.2-14.4-32.2-32.2s14.4-32.2 32.2-32.2c17.7 0 32.2 14.4 32.2 32.2s-14.5 32.2-32.2 32.2z"/><path class="st12" d="M265.4 216.3c16.6 0 30.2 13.5 30.2 30.2s-13.5 30.2-30.2 30.2c-16.6 0-30.2-13.5-30.2-30.2s13.5-30.2 30.2-30.2m0-4c-18.9 0-34.2 15.3-34.2 34.2s15.3 34.2 34.2 34.2 34.2-15.3 34.2-34.2-15.4-34.2-34.2-34.2z"/></g><g><path class="st11" d="M366.2 413.4c-17.7 0-32.2-14.4-32.2-32.2s14.4-32.2 32.2-32.2 32.2 14.4 32.2 32.2-14.5 32.2-32.2 32.2z"/><path class="st12" d="M366.2 351.1c16.6 0 30.2 13.5 30.2 30.2 0 16.6-13.5 30.2-30.2 30.2S336 397.9 336 381.3c0-16.7 13.5-30.2 30.2-30.2m0-4c-18.9 0-34.2 15.3-34.2 34.2s15.3 34.2 34.2 34.2 34.2-15.3 34.2-34.2-15.3-34.2-34.2-34.2z"/></g><g><path class="st11" d="M435.4 66.3c-17.7 0-32.2-14.4-32.2-32.2S417.7 2 435.4 2c17.7 0 32.2 14.4 32.2 32.2s-14.5 32.1-32.2 32.1z"/><path class="st12" d="M435.4 4c16.6 0 30.2 13.5 30.2 30.2S452 64.3 435.4 64.3s-30.2-13.5-30.2-30.2S418.8 4 435.4 4m0-4c-18.9 0-34.2 15.3-34.2 34.2s15.3 34.2 34.2 34.2 34.2-15.3 34.2-34.2S454.3 0 435.4 0z"/></g><g><path class="st11" d="M169.7 101.8c-17.7 0-32.2-14.4-32.2-32.2s14.4-32.2 32.2-32.2 32.2 14.4 32.2 32.2-14.5 32.2-32.2 32.2z"/><path class="st12" d="M169.7 39.4c16.6 0 30.2 13.5 30.2 30.2s-13.5 30.2-30.2 30.2c-16.6 0-30.2-13.5-30.2-30.2s13.6-30.2 30.2-30.2m0-4c-18.9 0-34.2 15.3-34.2 34.2s15.3 34.2 34.2 34.2 34.2-15.3 34.2-34.2-15.3-34.2-34.2-34.2z"/></g></svg>