<svg xmlns="http://www.w3.org/2000/svg" viewBox="0 0 172.02 172.02"><defs><style>.cls-1{fill:#ef6263;}.cls-2{fill:#7a5b6b;}.cls-3{fill:#ffdc95;}</style></defs><title>ai</title><g id="Layer_2" data-name="Layer 2"><g id="Layer_1-2" data-name="Layer 1"><path class="cls-1" d="M75.88,167a5,5,0,0,1-5-5v-12A67.2,67.2,0,0,1,51.52,142L43,150.47a5,5,0,0,1-3.54,1.46h0a5,5,0,0,1-3.54-1.46L21.56,136.13a5,5,0,0,1,0-7.07L30,120.59a66.9,66.9,0,0,1-8-19.39l-12-.05a5,5,0,0,1-5-5V75.88a5,5,0,0,1,5-5H22A67,67,0,0,1,30,51.51L21.56,43a5,5,0,0,1,0-7.07L35.9,21.56a5,5,0,0,1,7.07,0L51.44,30a67.24,67.24,0,0,1,19.38-8l.05-12a5,5,0,0,1,5-5H96.15a5,5,0,0,1,5,5V22A67.24,67.24,0,0,1,120.5,30l8.56-8.48a5,5,0,0,1,3.54-1.46h0a5,5,0,0,1,3.54,1.46l14.33,14.34a5,5,0,0,1,0,7.07L142,51.43a66.91,66.91,0,0,1,8,19.39l12,.05a5,5,0,0,1,5,5V96.15a5,5,0,0,1-5,5h-12A67,67,0,0,1,142,120.51l8.48,8.55a5,5,0,0,1,0,7.07l-14.33,14.34a5,5,0,0,1-7.07,0L120.58,142a67.24,67.24,0,0,1-19.38,8l-.06,12a5,5,0,0,1-5,5Z"/><path class="cls-2" d="M96.14,10V22a5.06,5.06,0,0,0,3.9,4.93,60.6,60.6,0,0,1,17.83,7.4,5.05,5.05,0,0,0,6.24-.73l8.47-8.47,14.34,14.34-8.47,8.47a5.07,5.07,0,0,0-.73,6.24A60.28,60.28,0,0,1,145.13,72a5.07,5.07,0,0,0,4.93,3.9h12V96.15h-12a5.07,5.07,0,0,0-4.93,3.9,60.33,60.33,0,0,1-7.4,17.83,5.08,5.08,0,0,0,.73,6.24l8.47,8.47-14.34,14.34-8.47-8.47a5.06,5.06,0,0,0-6.24-.73,60.6,60.6,0,0,1-17.83,7.4,5.06,5.06,0,0,0-3.9,4.93v12H75.88v-12a5.06,5.06,0,0,0-3.9-4.93,60.6,60.6,0,0,1-17.83-7.4,5.05,5.05,0,0,0-6.24.73l-8.47,8.47L25.09,132.59l8.47-8.47a5.07,5.07,0,0,0,.73-6.24A60.27,60.27,0,0,1,26.89,100,5.07,5.07,0,0,0,22,96.15H10V75.88H22A5.07,5.07,0,0,0,26.9,72a60.33,60.33,0,0,1,7.4-17.83,5.07,5.07,0,0,0-.73-6.24L25.1,39.43,39.43,25.09l8.47,8.47a5.06,5.06,0,0,0,6.24.73A60.6,60.6,0,0,1,72,26.89,5.06,5.06,0,0,0,75.88,22V10H96.14m0-10H75.88a10,10,0,0,0-10,10v8.18A70.52,70.52,0,0,0,52.3,23.81L46.5,18a10,10,0,0,0-14.14,0L18,32.36A10,10,0,0,0,18,46.5l5.79,5.79a70.24,70.24,0,0,0-5.64,13.59H10a10,10,0,0,0-10,10V96.15a10,10,0,0,0,10,10h8.17a70.2,70.2,0,0,0,5.64,13.59L18,125.52a10,10,0,0,0,0,14.14L32.35,154a10,10,0,0,0,14.14,0l5.79-5.79a70.52,70.52,0,0,0,13.58,5.64V162a10,10,0,0,0,10,10H96.14a10,10,0,0,0,10-10v-8.18a70.52,70.52,0,0,0,13.59-5.64l5.79,5.79a10,10,0,0,0,14.14,0L154,139.67a10,10,0,0,0,0-14.14l-5.79-5.79a70.24,70.24,0,0,0,5.64-13.59H162a10,10,0,0,0,10-10V75.88a10,10,0,0,0-10-10h-8.17a70.21,70.21,0,0,0-5.64-13.59L154,46.5a10,10,0,0,0,0-14.14L139.67,18a10,10,0,0,0-14.14,0l-5.79,5.79a70.52,70.52,0,0,0-13.58-5.64V10a10,10,0,0,0-10-10Z"/><path class="cls-3" d="M119.49,84.45h-7.62V74.61a2.36,2.36,0,0,0-2.36-2.36H88.24V69.49a7.09,7.09,0,1,0-4.73-.09v2.85H62.25a2.36,2.36,0,0,0-2.36,2.36v9.85H52.53a2.36,2.36,0,0,0-2.36,2.36v15a2.36,2.36,0,0,0,2.36,2.36h7.35V114a2.36,2.36,0,0,0,2.36,2.36h47.26a2.36,2.36,0,0,0,2.36-2.36v-9.85h7.62a2.36,2.36,0,0,0,2.36-2.36v-15A2.36,2.36,0,0,0,119.49,84.45ZM86,60.43a2.36,2.36,0,1,1-2.36,2.36A2.36,2.36,0,0,1,86,60.43Zm-31.11,39V89.18h5V99.42ZM78,111.63v-6.3H93.75v6.3Zm29.14,0H98.48V103a2.36,2.36,0,0,0-2.36-2.36H75.64A2.36,2.36,0,0,0,73.27,103v8.66H64.61V77h42.54Zm10-12.21h-5.25V89.18h5.25Z"/><path class="cls-3" d="M76.56,95.09A7.09,7.09,0,1,0,69.47,88a7.09,7.09,0,0,0,7.09,7.09Zm0-9.45A2.36,2.36,0,1,1,74.19,88,2.36,2.36,0,0,1,76.56,85.63Z"/><path class="cls-3" d="M95.46,95.09A7.09,7.09,0,1,0,88.37,88a7.09,7.09,0,0,0,7.09,7.09Zm0-9.45A2.36,2.36,0,1,1,93.1,88,2.36,2.36,0,0,1,95.46,85.63Z"/></g></g></svg>