<?xml version="1.0" encoding="utf-8"?>
<!-- Generator: Adobe Illustrator 20.1.0, SVG Export Plug-In . SVG Version: 6.00 Build 0)  -->
<svg version="1.1" id="Layer_1" xmlns="http://www.w3.org/2000/svg" xmlns:xlink="http://www.w3.org/1999/xlink" x="0px" y="0px"
	 viewBox="0 0 1920 346.5" style="enable-background:new 0 0 1920 346.5;" xml:space="preserve">
<style type="text/css">
	.st0{fill:#FFCE88;}
	.st1{fill:#FFDC95;}
	.st2{fill:#EF6263;}
	.st3{fill:#7A5B6B;}
</style>
<title>banner_5</title>
<g id="Layer_2">
	<g id="Layer_1-2">
		<path class="st0" d="M1920,356.5L0,339.5v-45.2c0,0,266.5-134.2,971.7-135.1c479.6-0.6,948.3,175.6,948.3,175.6V356.5z"/>
		<path class="st1" d="M1920,341.2c0,0-561.3-20.1-979.9-46.3C555.2,270.8,0,177.5,0,177.5v147.9l0,0v19l1920,12V341.2z"/>
		<path class="st2" d="M939.1,134.7c-2.8,0-5-2.2-5-5v-7.5c-4.7-1.1-9.3-2.9-13.5-5.3l-5.9,5.6c-1.9,1.8-4.9,1.8-6.9,0l-11-10.3
			c-2-1.9-2.1-5.1-0.2-7.1c0.1-0.1,0.1-0.1,0.2-0.2l5.6-5.3c-2.4-3.8-4.2-8-5.4-12.4h-8.3c-2.8,0-5-2.2-5-5V67.6c0-2.8,2.2-5,5-5
			h8.3c1.2-4.4,3-8.5,5.4-12.4l-5.6-5.3c-2-1.9-2.1-5.1-0.2-7.1c0.1-0.1,0.1-0.1,0.2-0.2l11-10.4c1.9-1.8,4.9-1.8,6.9,0l5.9,5.6
			c4.2-2.4,8.8-4.2,13.5-5.3V20c0-2.8,2.2-5,5-5h15.5c2.8,0,5,2.2,5,5v7.5c4.7,1.1,9.3,2.9,13.5,5.3l5.9-5.6c1.9-1.8,4.9-1.8,6.9,0
			l11,10.4c2,1.9,2.1,5.1,0.2,7.1c-0.1,0.1-0.1,0.1-0.2,0.2l-5.6,5.3c2.4,3.8,4.2,8,5.4,12.4h8.3c2.8,0,5,2.2,5,5v14.6
			c0,2.8-2.2,5-5,5h-8.3c-1.2,4.4-3,8.5-5.4,12.4l5.6,5.3c2,1.9,2.1,5.1,0.2,7.1c-0.1,0.1-0.1,0.1-0.2,0.2l-11,10.3
			c-1.9,1.8-4.9,1.8-6.9,0l-5.9-5.6c-4.2,2.4-8.8,4.2-13.5,5.3v7.5c0,2.8-2.2,5-5,5H939.1z"/>
		<path class="st3" d="M954.6,20v8.6c0,1.7,1.3,3.2,3,3.6c4.8,1.1,9.4,2.9,13.6,5.3c0.6,0.4,1.3,0.5,2,0.5c1,0,2-0.4,2.8-1.1
			l6.5-6.1l11,10.4l-6.5,6.1c-1.3,1.2-1.5,3.1-0.6,4.5c2.6,4,4.4,8.3,5.6,12.9c0.5,1.7,2,2.9,3.8,2.8h9.1v14.6h-9.1
			c-1.8,0-3.3,1.1-3.8,2.8c-1.2,4.6-3.1,8.9-5.7,12.9c-0.9,1.4-0.7,3.3,0.6,4.5l6.5,6.1l-11,10.3l-6.4-6.1c-1.3-1.2-3.2-1.4-4.8-0.5
			c-4.2,2.5-8.8,4.3-13.6,5.3c-1.7,0.3-3,1.8-3,3.6v8.6h-15.5v-8.6c0-1.7-1.3-3.2-3-3.6c-4.8-1.1-9.4-2.9-13.6-5.3
			c-0.6-0.4-1.3-0.5-2-0.6c-1,0-2,0.4-2.7,1.1l-6.5,6.1l-11-10.3l6.5-6.1c1.3-1.2,1.5-3.1,0.6-4.5c-2.6-3.9-4.5-8.3-5.6-12.8
			c-0.5-1.7-2-2.9-3.8-2.8h-9.1V67.6h9.1c1.8,0,3.3-1.1,3.8-2.8c1.2-4.6,3.1-8.9,5.7-12.9c0.9-1.4,0.7-3.3-0.6-4.5l-6.5-6.1l11-10.4
			l6.4,6.1c1.3,1.2,3.2,1.4,4.8,0.5c4.2-2.5,8.8-4.3,13.6-5.3c1.7-0.3,3-1.8,3-3.6V20H954.6 M954.6,10h-15.5c-5.5,0-10,4.5-10,10
			v3.7c-2.6,0.8-5.2,1.8-7.6,3l-3.3-3.1c-3.9-3.6-9.9-3.6-13.7,0l-11,10.4c-4,3.8-4.2,10.1-0.4,14.1c0.1,0.1,0.3,0.3,0.4,0.4
			l2.8,2.6c-1.1,2.1-2,4.2-2.8,6.4h-4.7c-5.5,0-10,4.5-10,10v14.6c0,5.5,4.5,10,10,10h4.6c0.8,2.2,1.7,4.3,2.8,6.4l-2.8,2.6
			c-4,3.8-4.2,10.1-0.4,14.1c0.1,0.1,0.3,0.3,0.4,0.4l11,10.3c3.9,3.6,9.9,3.6,13.7,0l3.3-3.2c2.5,1.2,5,2.2,7.6,3v3.7
			c0,5.5,4.5,10,10,10h15.5c5.5,0,10-4.5,10-10V126c2.6-0.8,5.2-1.8,7.6-3l3.3,3.2c3.9,3.6,9.9,3.6,13.7,0l11-10.3
			c4-3.8,4.2-10.1,0.4-14.1c-0.1-0.1-0.3-0.3-0.4-0.4l-2.8-2.6c1.1-2.1,2-4.2,2.8-6.4h4.7c5.5,0,10-4.5,10-10V67.6
			c0-5.5-4.5-10-10-10h-4.6c-0.8-2.2-1.7-4.4-2.8-6.4l2.8-2.6c4-3.8,4.2-10.1,0.4-14.1c-0.1-0.1-0.3-0.3-0.4-0.4l-11-10.4
			c-3.9-3.6-9.9-3.6-13.7,0l-3.3,3.1c-2.5-1.2-5-2.2-7.6-3V20C964.7,14.5,960.2,10,954.6,10L954.6,10z"/>
		<path class="st1" d="M975.5,68.8H969v-7.9c0-1.1-0.9-1.9-2-1.9h-18.3v-2.2c3-0.8,4.8-4,3.9-7c0-0.1-0.1-0.2-0.1-0.3
			c-1.2-3.1-4.6-4.7-7.7-3.6c-3,0.8-4.8,3.9-4,6.9c0,0.1,0.1,0.2,0.1,0.3c0.6,1.7,1.9,3,3.6,3.5v2.3h-18.2c-1.1,0-2,0.8-2,1.9v7.9
			h-6.3c-1.1,0-2,0.8-2,1.9v12.1c0,1.1,0.9,1.9,2,1.9h6.3v7.9c0,1.1,0.9,1.9,2,1.9h40.5c1.1,0,2-0.8,2-1.9v-7.9h6.5
			c1.1,0,2-0.8,2-1.9V70.7C977.4,69.6,976.5,68.8,975.5,68.8z M946.8,49.4c1.1,0,1.9,0.9,1.8,2s-0.9,1.9-2,1.8c-1,0-1.8-0.9-1.8-1.9
			C944.8,50.2,945.7,49.4,946.8,49.4z M920.2,80.8v-8.3h4.3v8.3L920.2,80.8z M939.9,90.7v-5.1h13.5v5.1L939.9,90.7z M964.9,90.7
			h-7.4v-7c0-1.1-0.9-1.9-2-1.9h-17.6c-1.1,0-2,0.8-2,1.9v7h-7.4v-28h36.4L964.9,90.7z M973.5,80.8H969v-8.3h4.5L973.5,80.8z"/>
		<path class="st1" d="M938.7,77.3c3.2-0.2,5.6-2.9,5.4-6.1c-0.2-3.2-2.9-5.6-6.1-5.4c-3,0.2-5.4,2.7-5.4,5.7
			C932.7,74.9,935.5,77.4,938.7,77.3z M938.7,69.7c1.1,0,1.9,0.9,1.8,2c0,1.1-0.9,1.9-2,1.8c-1,0-1.8-0.9-1.8-1.9
			C936.8,70.6,937.6,69.7,938.7,69.7z"/>
		<path class="st1" d="M954.9,77.3c3.2-0.2,5.6-2.9,5.4-6.1c-0.2-3.2-2.9-5.6-6.1-5.4c-3,0.2-5.4,2.7-5.4,5.7
			C948.9,74.9,951.6,77.4,954.9,77.3z M954.9,69.7c1.1,0,1.9,0.9,1.8,2c0,1.1-0.9,1.9-2,1.8c-1,0-1.8-0.9-1.8-1.9
			C952.9,70.6,953.8,69.7,954.9,69.7z"/>
	</g>
</g>
</svg>
