<svg xmlns="http://www.w3.org/2000/svg" width="1284" height="432.7" viewBox="0 0 1284 432.7" overflow="scroll"><style>.st0{fill:none;stroke:#7A5B6B;stroke-width:4;stroke-miterlimit:10;} .st1{fill:none;stroke:#7A5B6B;stroke-width:4;stroke-miterlimit:10;stroke-dasharray:11.9993,11.9993;} .st2{fill:none;stroke:#7A5B6B;stroke-width:4;stroke-miterlimit:10;stroke-dasharray:11.9827,11.9827;} .st3{fill:none;stroke:#7A5B6B;stroke-width:4;stroke-miterlimit:10;stroke-dasharray:12.4183,12.4183;} .st4{fill:none;stroke:#7A5B6B;stroke-width:4;stroke-miterlimit:10;stroke-dasharray:11.8397,11.8397;} .st5{fill:none;stroke:#7A5B6B;stroke-width:4;stroke-miterlimit:10;stroke-dasharray:12.0245,12.0245;} .st6{fill:none;stroke:#7A5B6B;stroke-width:4;stroke-miterlimit:10;stroke-dasharray:12.1658,12.1658;} .st7{fill:none;stroke:#7A5B6B;stroke-width:4;stroke-miterlimit:10;stroke-dasharray:11.7903,11.7903;} .st8{fill:none;stroke:#7A5B6B;stroke-width:4;stroke-miterlimit:10;stroke-dasharray:12.2338,12.2338;} .st9{fill:none;stroke:#7A5B6B;stroke-width:4;stroke-miterlimit:10;stroke-dasharray:12.1924,12.1924;} .st10{fill:none;stroke:#7A5B6B;stroke-width:4;stroke-miterlimit:10;stroke-dasharray:12.6059,12.6059;} .st11{fill:none;stroke:#7A5B6B;stroke-width:4;stroke-miterlimit:10;stroke-dasharray:12.3432,12.3432;} .st12{fill:none;stroke:#7A5B6B;stroke-width:4;stroke-miterlimit:10;stroke-dasharray:11.8882,11.8882;} .st13{fill:none;stroke:#7A5B6B;stroke-width:4;stroke-miterlimit:10;stroke-dasharray:12.5148,12.5148;} .st14{fill:none;stroke:#7A5B6B;stroke-width:4;stroke-miterlimit:10;stroke-dasharray:11.5865,11.5865;} .st15{fill:none;stroke:#7A5B6B;stroke-width:4;stroke-miterlimit:10;stroke-dasharray:11.6525,11.6525;} .st16{fill:none;stroke:#7A5B6B;stroke-width:4;stroke-miterlimit:10;stroke-dasharray:11.9955,11.9955;} .st17{fill:none;stroke:#7A5B6B;stroke-width:4;stroke-miterlimit:10;stroke-dasharray:11.7152,11.7152;} .st18{fill:none;stroke:#7A5B6B;stroke-width:4;stroke-miterlimit:10;stroke-dasharray:11.7581,11.7581;} .st19{fill:none;stroke:#7A5B6B;stroke-width:4;stroke-miterlimit:10;stroke-dasharray:12.4684,12.4684;} .st20{fill:none;stroke:#7A5B6B;stroke-width:4;stroke-miterlimit:10;stroke-dasharray:12.4285,12.4285;} .st21{fill:#EF6263;} .st22{fill:#FFDC95;} .st23{fill:#7A5B6B;}</style><path class="st0" d="M346.4 43.5l4.6 3.8"/><path class="st1" d="M360.3 54.9L467 142.4"/><path class="st0" d="M471.7 146.2l4.6 3.8M299.9 345.8l4-4.4"/><path class="st2" d="M311.9 332.5l156.4-173.6"/><path class="st0" d="M472.3 154.4l4-4.4M204.2 169l6-.5"/><path class="st3" d="M222.6 167.7l241.5-16.9"/><path class="st0" d="M470.3 150.4l6-.4M204.2 169l4.5-4"/><path class="st4" d="M217.6 157.2L337.4 51.4"/><path class="st0" d="M341.9 47.5l4.5-4M204.2 169l-3.6-4.8"/><path class="st5" d="M193.4 154.5L110.6 43.8"/><path class="st0" d="M107 39l-3.6-4.8M346.4 43.5l-6-.2"/><path class="st6" d="M328.2 42.8l-212.7-8.2"/><path class="st0" d="M109.4 34.4l-6-.2M34.2 381.3l1.1-5.9"/><path class="st7" d="M37.6 363.8l63.5-318"/><path class="st0" d="M102.2 40.1l1.2-5.9"/><g><path class="st0" d="M34.2 381.3l3.8-4.7"/><path class="st8" d="M45.7 367.1l150.8-184.8"/><path class="st0" d="M200.4 177.6l3.8-4.7"/></g><g><path class="st0" d="M34.2 381.3l5.9-.8"/><path class="st9" d="M52.2 378.8l235.7-31.4"/><path class="st0" d="M293.9 346.6l6-.8"/></g><g><path class="st0" d="M204.2 169l2.8 5.2"/><path class="st10" d="M213 185.3L294 335"/><path class="st0" d="M297 340.6l2.9 5.2"/></g><g><path class="st0" d="M644.6 365.6l-6-.4"/><path class="st11" d="M626.2 364.5l-314.2-18"/><path class="st0" d="M305.8 346.2l-5.9-.4"/></g><g><path class="st0" d="M801.8 150l5.5-2.5"/><path class="st12" d="M818.1 142.7l211.8-94.3"/><path class="st0" d="M1035.3 46l5.5-2.5M801.8 150l5.7 1.9"/><path class="st13" d="M819.3 156l183.3 63.4"/><path class="st0" d="M1008.5 221.4l5.7 2M947.8 396.9l2.2-5.6"/><path class="st14" d="M954.1 380.5l55.9-146.1"/><path class="st0" d="M1012.1 229l2.1-5.6"/><g><path class="st0" d="M1197.6 325.9l-5.2-2.9"/><path class="st15" d="M1182.2 317.3l-157.7-88.1"/><path class="st0" d="M1019.5 226.3l-5.3-2.9"/></g><g><path class="st0" d="M1253.4 111.8l-5.4 2.6"/><path class="st16" d="M1237.1 119.5l-212 98.8"/><path class="st0" d="M1019.7 220.9l-5.5 2.5"/></g><g><path class="st0" d="M644.6 365.6l5.9.6"/><path class="st17" d="M662.2 367.4L936 395.7"/><path class="st0" d="M941.9 396.3l5.9.6"/></g><g><path class="st0" d="M1197.6 328.8l-5.8 1.5"/><path class="st18" d="M1180.5 333.4l-221.2 60.4"/><path class="st0" d="M953.6 395.3l-5.8 1.6"/></g><g><path class="st0" d="M1197.6 328.8l1.5-5.9"/><path class="st19" d="M1202.2 310.9l48.1-187.2"/><path class="st0" d="M1251.9 117.7l1.5-5.9"/></g><g><path class="st0" d="M1040.8 43.5l5.7 1.8"/><path class="st20" d="M1058.4 49.2l183.4 58.9"/><path class="st0" d="M1247.7 110l5.7 1.8"/></g></g><g><path class="st0" d="M476.3 150l162.8 210.1M476.3 150h328.4M639.1 360.1L804.7 150"/></g><g><path class="st21" d="M639.1 392.2c-17.7 0-32.2-14.4-32.2-32.2s14.4-32.2 32.2-32.2 32.2 14.4 32.2 32.2-14.5 32.2-32.2 32.2z"/><path class="st22" d="M639.1 329.9c16.6 0 30.2 13.5 30.2 30.2 0 16.6-13.5 30.2-30.2 30.2s-30.2-13.5-30.2-30.2 13.5-30.2 30.2-30.2m0-4c-18.9 0-34.2 15.3-34.2 34.2s15.3 34.2 34.2 34.2 34.2-15.3 34.2-34.2-15.4-34.2-34.2-34.2z"/></g><g><path class="st21" d="M801.8 182.1c-17.7 0-32.2-14.4-32.2-32.2s14.4-32.2 32.2-32.2c17.7 0 32.2 14.4 32.2 32.2s-14.5 32.2-32.2 32.2z"/><path class="st22" d="M801.8 119.8c16.6 0 30.2 13.5 30.2 30.2s-13.5 30.2-30.2 30.2c-16.6 0-30.2-13.5-30.2-30.2s13.6-30.2 30.2-30.2m0-4c-18.9 0-34.2 15.3-34.2 34.2s15.3 34.2 34.2 34.2c18.9 0 34.2-15.3 34.2-34.2s-15.3-34.2-34.2-34.2z"/></g><g><path class="st21" d="M476.3 182.1c-17.7 0-32.2-14.4-32.2-32.2s14.4-32.2 32.2-32.2c17.7 0 32.2 14.4 32.2 32.2s-14.4 32.2-32.2 32.2z"/><path class="st22" d="M476.3 119.8c16.6 0 30.2 13.5 30.2 30.2s-13.5 30.2-30.2 30.2c-16.6 0-30.2-13.5-30.2-30.2s13.6-30.2 30.2-30.2m0-4c-18.9 0-34.2 15.3-34.2 34.2s15.3 34.2 34.2 34.2c18.9 0 34.2-15.3 34.2-34.2s-15.3-34.2-34.2-34.2z"/></g><g><path class="st21" d="M346.4 75.7c-17.7 0-32.2-14.4-32.2-32.2s14.4-32.2 32.2-32.2 32.2 14.4 32.2 32.2-14.5 32.2-32.2 32.2z"/><path class="st22" d="M346.4 13.3c16.6 0 30.2 13.5 30.2 30.2S363 73.7 346.4 73.7s-30.2-13.5-30.2-30.2 13.5-30.2 30.2-30.2m0-4c-18.9 0-34.2 15.3-34.2 34.2s15.3 34.2 34.2 34.2c18.9 0 34.2-15.3 34.2-34.2S365.2 9.3 346.4 9.3z"/></g><g><path class="st21" d="M204.2 201.1c-17.7 0-32.2-14.4-32.2-32.2s14.4-32.2 32.2-32.2 32.2 14.4 32.2 32.2-14.5 32.2-32.2 32.2z"/><path class="st22" d="M204.2 138.8c16.6 0 30.2 13.5 30.2 30.2s-13.5 30.2-30.2 30.2c-16.6 0-30.2-13.5-30.2-30.2s13.6-30.2 30.2-30.2m0-4c-18.9 0-34.2 15.3-34.2 34.2s15.3 34.2 34.2 34.2c18.9 0 34.2-15.3 34.2-34.2s-15.3-34.2-34.2-34.2z"/></g><g><path class="st21" d="M103.4 66.3c-17.7 0-32.2-14.4-32.2-32.2S85.6 2 103.4 2c17.7 0 32.2 14.4 32.2 32.2s-14.5 32.1-32.2 32.1z"/><path class="st22" d="M103.4 4c16.6 0 30.2 13.5 30.2 30.2S120 64.3 103.4 64.3 73.2 50.8 73.2 34.1 86.8 4 103.4 4m0-4C84.5 0 69.2 15.3 69.2 34.2s15.3 34.2 34.2 34.2c18.9 0 34.2-15.3 34.2-34.2S122.3 0 103.4 0z"/></g><g><path class="st21" d="M34.2 413.4C16.4 413.4 2 399 2 381.3s14.4-32.2 32.2-32.2 32.2 14.4 32.2 32.2-14.5 32.1-32.2 32.1z"/><path class="st22" d="M34.2 351.1c16.6 0 30.2 13.5 30.2 30.2 0 16.6-13.5 30.2-30.2 30.2S4 397.9 4 381.3c0-16.7 13.5-30.2 30.2-30.2m0-4C15.3 347.1 0 362.4 0 381.3s15.3 34.2 34.2 34.2c18.9 0 34.2-15.3 34.2-34.2S53 347.1 34.2 347.1z"/></g><g><path class="st21" d="M299.9 378c-17.7 0-32.2-14.4-32.2-32.2s14.4-32.2 32.2-32.2c17.7 0 32.2 14.4 32.2 32.2S317.6 378 299.9 378z"/><path class="st22" d="M299.9 315.7c16.6 0 30.2 13.5 30.2 30.2 0 16.6-13.5 30.2-30.2 30.2-16.6 0-30.2-13.5-30.2-30.2s13.5-30.2 30.2-30.2m0-4c-18.9 0-34.2 15.3-34.2 34.2 0 18.9 15.3 34.2 34.2 34.2 18.9 0 34.2-15.3 34.2-34.2-.1-18.9-15.4-34.2-34.2-34.2z"/></g><g><path class="st21" d="M947.8 426.4c-17.7 0-32.2-14.4-32.2-32.2S930 362 947.8 362c17.7 0 32.2 14.4 32.2 32.2s-14.4 32.2-32.2 32.2z"/><path class="st22" d="M947.8 364.1c16.6 0 30.2 13.5 30.2 30.2 0 16.6-13.5 30.2-30.2 30.2-16.6 0-30.2-13.5-30.2-30.2.1-16.7 13.6-30.2 30.2-30.2m0-4c-18.9 0-34.2 15.3-34.2 34.2 0 18.9 15.3 34.2 34.2 34.2 18.9 0 34.2-15.3 34.2-34.2 0-18.9-15.3-34.2-34.2-34.2z"/></g><g><path class="st21" d="M1014.2 255.6c-17.7 0-32.2-14.4-32.2-32.2s14.4-32.2 32.2-32.2c17.7 0 32.2 14.4 32.2 32.2s-14.4 32.2-32.2 32.2z"/><path class="st22" d="M1014.2 193.2c16.6 0 30.2 13.5 30.2 30.2s-13.5 30.2-30.2 30.2c-16.6 0-30.2-13.5-30.2-30.2s13.6-30.2 30.2-30.2m0-4c-18.9 0-34.2 15.3-34.2 34.2s15.3 34.2 34.2 34.2c18.9 0 34.2-15.3 34.2-34.2s-15.3-34.2-34.2-34.2z"/></g><g><path class="st21" d="M1040.8 75.7c-17.7 0-32.2-14.4-32.2-32.2s14.4-32.2 32.2-32.2c17.7 0 32.2 14.4 32.2 32.2s-14.4 32.2-32.2 32.2z"/><path class="st22" d="M1040.8 13.3c16.6 0 30.2 13.5 30.2 30.2s-13.5 30.2-30.2 30.2c-16.6 0-30.2-13.5-30.2-30.2s13.6-30.2 30.2-30.2m0-4c-18.9 0-34.2 15.3-34.2 34.2s15.3 34.2 34.2 34.2 34.2-15.3 34.2-34.2-15.3-34.2-34.2-34.2z"/></g><g><path class="st21" d="M1249.9 144c-17.7 0-32.2-14.4-32.2-32.2s14.4-32.2 32.2-32.2 32.2 14.4 32.2 32.2-14.5 32.2-32.2 32.2z"/><path class="st22" d="M1249.9 81.7c16.6 0 30.2 13.5 30.2 30.2s-13.5 30.2-30.2 30.2-30.2-13.5-30.2-30.2 13.5-30.2 30.2-30.2m0-4c-18.9 0-34.2 15.3-34.2 34.2s15.3 34.2 34.2 34.2 34.2-15.3 34.2-34.2-15.4-34.2-34.2-34.2z"/></g><g><path class="st21" d="M1197.6 358.1c-17.7 0-32.2-14.4-32.2-32.2s14.4-32.2 32.2-32.2 32.2 14.4 32.2 32.2-14.5 32.2-32.2 32.2z"/><path class="st22" d="M1197.6 295.7c16.6 0 30.2 13.5 30.2 30.2 0 16.6-13.5 30.2-30.2 30.2s-30.2-13.5-30.2-30.2c0-16.6 13.6-30.2 30.2-30.2m0-4c-18.9 0-34.2 15.3-34.2 34.2s15.3 34.2 34.2 34.2 34.2-15.3 34.2-34.2-15.3-34.2-34.2-34.2z"/></g><g><path class="st23" d="M457.4 84.5v2.1l-1.8.4v8.9c0 1.1.3 2 .9 2.5s1.4.8 2.5.8 1.9-.3 2.5-.8.9-1.4.9-2.5V87l-1.8-.4v-2.1h7.1v2.1l-1.8.4v8.9c0 1.9-.6 3.4-1.9 4.4s-2.9 1.6-5 1.6c-2 0-3.7-.5-4.9-1.6s-1.9-2.5-1.9-4.4V87l-1.8-.4v-2.1h7zM478.5 93.2h-2.3l-.4-1.6c-.2-.2-.5-.3-.9-.5s-.7-.2-1.2-.2c-.6 0-1.1.1-1.4.4s-.5.6-.5 1 .2.7.5 1 1 .5 2 .7c1.6.3 2.7.8 3.5 1.4s1.1 1.4 1.1 2.5-.5 2.1-1.5 2.8-2.3 1.1-3.9 1.1c-1 0-1.9-.1-2.7-.4s-1.5-.7-2.2-1.2v-2.8h2.4l.5 1.7c.2.2.5.3.8.4s.7.1 1.1.1c.7 0 1.2-.1 1.6-.4s.5-.6.5-1-.2-.7-.6-1-1-.5-2-.7c-1.5-.3-2.6-.8-3.4-1.4s-1.1-1.4-1.1-2.4c0-1.1.4-2 1.3-2.7s2.1-1.2 3.7-1.2c1 0 1.9.1 2.8.4s1.6.6 2.1 1l.2 3zM486.7 101.8c-1.8 0-3.3-.6-4.4-1.8s-1.6-2.7-1.6-4.5V95c0-1.9.5-3.4 1.6-4.7s2.4-1.8 4.2-1.8c1.7 0 3 .5 4 1.5s1.4 2.4 1.4 4.2v1.9h-7.6v.1c.1.8.3 1.5.8 2.1s1.2.8 2 .8 1.4-.1 1.9-.2 1-.4 1.6-.7l.9 2.1c-.5.4-1.2.8-2 1s-1.8.5-2.8.5zm-.3-10.5c-.6 0-1.1.2-1.5.7s-.6 1.1-.7 1.9v.1h4.2v-.3c0-.7-.2-1.3-.5-1.7s-.9-.7-1.5-.7zM493.4 99.5l1.6-.4v-7.9l-1.8-.4v-2.1h5l.2 1.9c.3-.7.7-1.2 1.1-1.5s1-.6 1.6-.6h.6s.4.1.5.1l-.4 3.1h-1.4c-.5 0-.9.1-1.2.3s-.6.5-.8.8V99l1.6.4v2.1h-6.7v-2z"/></g><g><path class="st23" d="M757 89.9h-2.6l-.4-2.3c-.3-.2-.7-.4-1.3-.5s-1.2-.2-1.8-.2c-.9 0-1.7.2-2.2.6s-.8.9-.8 1.5.3 1.1.8 1.4 1.5.8 2.8 1.2c1.9.5 3.3 1.2 4.3 2.1s1.5 2 1.5 3.4c0 1.5-.6 2.6-1.7 3.5s-2.7 1.3-4.6 1.3c-1.4 0-2.6-.2-3.7-.6s-2-1-2.7-1.8v-3.6h2.6l.4 2.4c.3.3.8.5 1.4.7s1.2.3 2 .3c.9 0 1.7-.2 2.1-.6s.7-.9.7-1.5c0-.7-.2-1.2-.7-1.6s-1.3-.8-2.4-1.1c-2-.6-3.6-1.3-4.6-2.1s-1.6-1.9-1.6-3.3.6-2.5 1.8-3.4 2.6-1.3 4.4-1.4c1.3 0 2.5.2 3.6.6s2 .9 2.7 1.6v3.4zM764.8 99.2c.6 0 1.1-.2 1.5-.5s.6-.8.6-1.4h3.1v.1c0 1.3-.4 2.4-1.4 3.2s-2.2 1.3-3.7 1.3c-1.9 0-3.3-.6-4.4-1.8s-1.5-2.7-1.5-4.6v-.4c0-1.9.5-3.4 1.6-4.6s2.5-1.8 4.5-1.8c1 0 1.9.2 2.8.5s1.5.7 2 1.3v3.4H767l-.6-2c-.2-.1-.4-.3-.6-.4s-.5-.1-.9-.1c-1 0-1.7.4-2.1 1.1s-.6 1.6-.6 2.7v.4c0 1.1.2 2 .6 2.7s1.1.9 2 .9zM779.7 101.6c-.1-.2-.2-.4-.2-.7s-.1-.4-.2-.7c-.4.5-.9.8-1.5 1.1s-1.2.4-2 .4c-1.2 0-2.2-.3-3-1s-1.1-1.6-1.1-2.8c0-1.2.5-2.1 1.4-2.8s2.4-1 4.2-1h1.7v-1.2c0-.6-.2-1.1-.5-1.4s-.9-.5-1.6-.5c-.4 0-.7 0-1 .1s-.6.2-.7.3L775 93h-2.6v-2.8c.6-.4 1.3-.8 2.2-1.1s1.7-.4 2.6-.4c1.6 0 2.8.4 3.8 1.2s1.5 1.9 1.5 3.3v6.3l1 .1v2.1h-3.8zm-3-2.3c.5 0 1-.1 1.4-.3s.8-.5 1-.8v-1.9h-1.7c-.7 0-1.3.2-1.7.5s-.6.7-.6 1.2c0 .4.1.8.4 1s.7.3 1.2.3zM785.2 99.5l1.7-.4v-7.9H785v-2.4h1.9v-1.4c0-1.4.4-2.5 1.2-3.3s2-1.2 3.5-1.2c.3 0 .6 0 .9.1s.6.1 1 .2l-.3 2.5c-.2 0-.4-.1-.5-.1h-.6c-.6 0-1 .2-1.3.5s-.4.7-.4 1.3v1.4h2.5v2.4h-2.5v7.9l1.7.4v2.1h-6.7v-2.1zM794.5 99.5l1.7-.4v-7.9h-1.9v-2.4h1.9v-1.4c0-1.4.4-2.5 1.2-3.3s2-1.2 3.5-1.2c.3 0 .6 0 .9.1s.6.1 1 .2l-.3 2.5c-.2 0-.4-.1-.5-.1h-.6c-.6 0-1 .2-1.3.5s-.4.7-.4 1.3v1.4h2.5v2.4h-2.5v7.9l1.7.4v2.1h-6.7v-2.1zM803.1 95.1c0-1.9.5-3.4 1.6-4.6s2.5-1.8 4.4-1.8c1.9 0 3.3.6 4.4 1.8s1.6 2.8 1.6 4.7v.2c0 1.9-.5 3.5-1.6 4.7s-2.5 1.8-4.4 1.8c-1.9 0-3.4-.6-4.4-1.8s-1.6-2.8-1.6-4.7v-.3zm3.5.3c0 1.2.2 2.1.6 2.8s1.1 1 2 1c.9 0 1.5-.4 1.9-1.1s.6-1.6.6-2.8v-.2c0-1.1-.2-2-.6-2.8s-1.1-1.1-2-1.1-1.5.4-1.9 1.1-.6 1.6-.6 2.8v.3zM816 85.3v-2.1h5.3v15.9l1.7.4v2.1h-6.7v-2.1l1.7-.4V85.7l-2-.4zM832.2 100c-.4.6-.9 1-1.4 1.3s-1.2.5-1.9.5c-1.6 0-2.8-.6-3.6-1.7s-1.3-2.6-1.3-4.5v-.2c0-2 .4-3.6 1.3-4.8s2.1-1.8 3.7-1.8c.6 0 1.2.1 1.7.4s1 .7 1.3 1.2v-4.5l-1.8-.4v-2.1h5.2v15.9l1.6.4v2.1h-4.6l-.2-1.8zm-4.8-4.4c0 1.1.2 2 .6 2.6s1 1 1.8 1c.5 0 .9-.1 1.3-.3s.7-.5.9-.9v-5.4c-.2-.4-.5-.7-.9-.9s-.8-.3-1.3-.3c-.8 0-1.4.4-1.8 1.1s-.6 1.7-.6 2.9v.2zM844.1 101.8c-1.8 0-3.3-.6-4.4-1.8s-1.6-2.7-1.6-4.5V95c0-1.9.5-3.4 1.6-4.7s2.4-1.8 4.2-1.8c1.7 0 3 .5 4 1.5s1.4 2.4 1.4 4.2v1.9h-7.6v.1c.1.8.3 1.5.8 2.1s1.2.8 2 .8 1.4-.1 1.9-.2 1-.4 1.6-.7l.9 2.1c-.5.4-1.2.8-2 1s-1.8.5-2.8.5zm-.3-10.5c-.6 0-1.1.2-1.5.7s-.6 1.1-.7 1.9v.1h4.2v-.3c0-.7-.2-1.3-.5-1.7s-.8-.7-1.5-.7zM850.9 99.5l1.6-.4v-7.9l-1.8-.4v-2.1h5l.2 1.9c.3-.7.7-1.2 1.1-1.5s1-.6 1.6-.6h.6s.4.1.5.1l-.4 3.1h-1.4c-.5 0-.9.1-1.2.3s-.6.5-.8.8V99l1.6.4v2.1h-6.7v-2z"/></g><g><path class="st23" d="M595.8 421.1h-2.5l-.4-2.3c-.3-.3-.8-.6-1.3-.8s-1.1-.3-1.8-.3c-1.5 0-2.6.5-3.4 1.6s-1.2 2.5-1.2 4.2v.6c0 1.7.4 3.1 1.2 4.2s1.9 1.6 3.4 1.6c.7 0 1.3-.1 1.8-.3s1-.5 1.3-.8l.4-2.3h2.5v3.4c-.7.8-1.6 1.4-2.6 1.9s-2.3.7-3.6.7c-2.3 0-4.2-.8-5.6-2.4s-2.2-3.6-2.2-6.1v-.6c0-2.5.7-4.5 2.2-6.1s3.3-2.4 5.6-2.4c1.3 0 2.5.2 3.6.7s1.9 1.1 2.6 1.9v3.6zM597.6 426c0-1.9.5-3.4 1.6-4.6s2.5-1.8 4.4-1.8c1.9 0 3.3.6 4.4 1.8s1.6 2.8 1.6 4.7v.2c0 1.9-.5 3.5-1.6 4.7s-2.5 1.8-4.4 1.8c-1.9 0-3.4-.6-4.4-1.8s-1.6-2.8-1.6-4.7v-.3zm3.4.2c0 1.2.2 2.1.6 2.8s1.1 1 2 1c.9 0 1.5-.4 1.9-1.1s.6-1.6.6-2.8v-.1c0-1.1-.2-2-.6-2.8s-1.1-1.1-2-1.1-1.5.4-1.9 1.1-.6 1.6-.6 2.8v.2zM619.8 430.8c-.4.6-.9 1.1-1.5 1.4s-1.3.5-2 .5c-1.3 0-2.4-.4-3.1-1.3s-1.1-2.2-1.1-4v-5.2l-1.4-.4v-2.1h4.8v7.7c0 .9.2 1.6.5 2s.8.6 1.4.6c.5 0 1-.1 1.4-.3s.7-.4 1-.8v-6.8l-1.5-.4v-2.1h4.9V430l1.5.4v2.1H620l-.2-1.7zM626 430.4l1.6-.4v-7.9l-1.8-.4v-2.1h5l.2 1.8c.4-.6.9-1.2 1.6-1.5s1.3-.5 2.1-.5c1.3 0 2.3.4 3 1.2s1.1 2.1 1.1 3.8v5.5l1.6.4v2.1h-6.5v-2.1l1.5-.4v-5.5c0-.9-.2-1.5-.5-1.8s-.9-.5-1.6-.5c-.5 0-.9.1-1.2.3s-.7.4-.9.8v6.8l1.4.4v2.1H626v-2.1zM651.8 424.1h-2.3l-.4-1.6c-.2-.2-.5-.3-.9-.5s-.7-.2-1.2-.2c-.6 0-1.1.1-1.4.4s-.5.6-.5 1 .2.7.5 1 1 .5 2 .7c1.6.3 2.7.8 3.5 1.4s1.1 1.4 1.1 2.5-.5 2.1-1.5 2.8-2.3 1.1-3.9 1.1c-1 0-1.9-.1-2.7-.4s-1.5-.7-2.2-1.2v-2.8h2.4l.5 1.7c.2.2.5.3.8.4s.7.1 1.1.1c.7 0 1.2-.1 1.6-.4s.5-.6.5-1-.2-.7-.6-1-1-.5-2-.7c-1.5-.3-2.6-.8-3.4-1.4s-1.1-1.4-1.1-2.4c0-1.1.4-2 1.3-2.7s2.1-1.2 3.7-1.2c1 0 1.9.1 2.8.4s1.6.6 2.1 1l.2 3zM660 432.7c-1.8 0-3.3-.6-4.4-1.8s-1.6-2.7-1.6-4.5v-.4c0-1.9.5-3.4 1.6-4.7s2.4-1.8 4.2-1.8c1.7 0 3 .5 4 1.5s1.4 2.4 1.4 4.2v1.9h-7.6v.1c.1.8.3 1.5.8 2.1s1.2.8 2 .8 1.4-.1 1.9-.2 1-.4 1.6-.7l.9 2.1c-.5.4-1.2.8-2 1s-1.8.4-2.8.4zm-.3-10.5c-.6 0-1.1.2-1.5.7s-.6 1.1-.7 1.9v.1h4.2v-.3c0-.7-.2-1.3-.5-1.7s-.9-.7-1.5-.7zM666.4 416.2v-2.1h5.3V430l1.7.4v2.1h-6.7v-2.1l1.7-.4v-13.5l-2-.3zM674.2 426c0-1.9.5-3.4 1.6-4.6s2.5-1.8 4.4-1.8c1.9 0 3.3.6 4.4 1.8s1.6 2.8 1.6 4.7v.2c0 1.9-.5 3.5-1.6 4.7s-2.5 1.8-4.4 1.8c-1.9 0-3.4-.6-4.4-1.8s-1.6-2.8-1.6-4.7v-.3zm3.5.2c0 1.2.2 2.1.6 2.8s1.1 1 2 1c.9 0 1.5-.4 1.9-1.1s.6-1.6.6-2.8v-.1c0-1.1-.2-2-.6-2.8s-1.1-1.1-2-1.1-1.5.4-1.9 1.1-.6 1.6-.6 2.8v.2zM687.6 430.4l1.6-.4v-7.9l-1.8-.4v-2.1h5l.2 1.9c.3-.7.7-1.2 1.1-1.5s1-.6 1.6-.6h.6s.4.1.5.1l-.4 3.1h-1.4c-.5 0-.9.1-1.2.3s-.6.5-.8.8v6.2l1.6.4v2.1h-6.7v-2z"/></g></svg>