<svg xmlns="http://www.w3.org/2000/svg" viewBox="0 0 469.57 415.42"><defs><style>.cls-1,.cls-10,.cls-11,.cls-2,.cls-3,.cls-4,.cls-5,.cls-6,.cls-7,.cls-8,.cls-9{fill:none;stroke:#7a5b6b;stroke-miterlimit:10;stroke-width:4px;}.cls-2{stroke-dasharray:11.65 11.65;}.cls-3{stroke-dasharray:11.93 11.93;}.cls-4{stroke-dasharray:11.6 11.6;}.cls-5{stroke-dasharray:11.84 11.84;}.cls-6{stroke-dasharray:12.02 12.02;}.cls-7{stroke-dasharray:12.17 12.17;}.cls-8{stroke-dasharray:11.79 11.79;}.cls-9{stroke-dasharray:12.23 12.23;}.cls-10{stroke-dasharray:12.19 12.19;}.cls-11{stroke-dasharray:12.2 12.2;}.cls-12{fill:#ef6263;}.cls-13{fill:#ffdc95;}.cls-14{fill:#7a5b6b;}</style></defs><title>token-crowdsale</title><g id="Layer_2" data-name="Layer 2"><g id="Layer_1-2" data-name="Layer 1"><line class="cls-1" x1="123.21" y1="371.91" x2="119.91" y2="366.9"/><line class="cls-2" x1="113.5" y1="357.17" x2="39.76" y2="245.33"/><line class="cls-1" x1="36.55" y1="240.47" x2="33.25" y2="235.46"/><line class="cls-1" x1="169.71" y1="69.59" x2="165.9" y2="74.22"/><line class="cls-3" x1="158.32" y1="83.43" x2="40.85" y2="226.22"/><line class="cls-1" x1="37.06" y1="230.83" x2="33.25" y2="235.46"/><line class="cls-1" x1="265.37" y1="246.46" x2="259.38" y2="246.18"/><line class="cls-4" x1="247.79" y1="245.63" x2="45.04" y2="236.02"/><line class="cls-1" x1="39.24" y1="235.74" x2="33.25" y2="235.46"/><line class="cls-1" x1="265.37" y1="246.46" x2="260.87" y2="250.43"/><line class="cls-5" x1="252" y1="258.26" x2="132.15" y2="364.02"/><line class="cls-1" x1="127.71" y1="367.94" x2="123.21" y2="371.91"/><line class="cls-1" x1="265.37" y1="246.46" x2="268.97" y2="251.27"/><line class="cls-6" x1="276.17" y1="260.9" x2="358.99" y2="371.63"/><line class="cls-1" x1="362.59" y1="376.45" x2="366.18" y2="381.25"/><line class="cls-1" x1="123.21" y1="371.91" x2="129.21" y2="372.14"/><line class="cls-7" x1="141.36" y1="372.61" x2="354.11" y2="380.79"/><line class="cls-1" x1="360.19" y1="381.02" x2="366.18" y2="381.25"/><line class="cls-1" x1="435.4" y1="34.17" x2="434.23" y2="40.05"/><line class="cls-8" x1="431.92" y1="51.61" x2="368.51" y2="369.59"/><line class="cls-1" x1="367.36" y1="375.37" x2="366.18" y2="381.25"/><line class="cls-1" x1="435.4" y1="34.17" x2="431.61" y2="38.82"/><line class="cls-9" x1="423.87" y1="48.29" x2="273.04" y2="233.11"/><line class="cls-1" x1="269.17" y1="237.85" x2="265.37" y2="242.5"/><line class="cls-1" x1="435.4" y1="34.17" x2="429.45" y2="34.96"/><line class="cls-10" x1="417.37" y1="36.57" x2="181.7" y2="67.99"/><line class="cls-1" x1="175.66" y1="68.79" x2="169.71" y2="69.59"/><line class="cls-1" x1="239.25" y1="198.21" x2="236.4" y2="192.93"/><line class="cls-11" x1="230.59" y1="182.2" x2="175.47" y2="80.23"/><line class="cls-1" x1="172.56" y1="74.86" x2="169.71" y2="69.59"/><path class="cls-12" d="M123.21,404.07a32.17,32.17,0,1,1,32.17-32.17A32.2,32.2,0,0,1,123.21,404.07Z"/><path class="cls-13" d="M123.21,341.74A30.17,30.17,0,1,1,93,371.91a30.2,30.2,0,0,1,30.17-30.17m0-4a34.17,34.17,0,1,0,34.17,34.17,34.17,34.17,0,0,0-34.17-34.17Z"/><path class="cls-12" d="M34.17,266.51a32.17,32.17,0,1,1,32.17-32.17A32.2,32.2,0,0,1,34.17,266.51Z"/><path class="cls-13" d="M34.17,204.18A30.17,30.17,0,1,1,4,234.35a30.2,30.2,0,0,1,30.17-30.17m0-4a34.17,34.17,0,1,0,34.17,34.17,34.17,34.17,0,0,0-34.17-34.17Z"/><path class="cls-12" d="M366.18,413.42a32.17,32.17,0,1,1,32.17-32.17A32.2,32.2,0,0,1,366.18,413.42Z"/><path class="cls-13" d="M366.18,351.09A30.17,30.17,0,1,1,336,381.25a30.2,30.2,0,0,1,30.17-30.17m0-4a34.17,34.17,0,1,0,34.17,34.17,34.17,34.17,0,0,0-34.17-34.17Z"/><path class="cls-12" d="M435.4,66.33a32.17,32.17,0,1,1,32.17-32.17A32.2,32.2,0,0,1,435.4,66.33Z"/><path class="cls-13" d="M435.4,4a30.17,30.17,0,1,1-30.17,30.17A30.2,30.2,0,0,1,435.4,4m0-4a34.17,34.17,0,1,0,34.17,34.17A34.17,34.17,0,0,0,435.4,0Z"/><path class="cls-12" d="M169.71,101.75a32.17,32.17,0,1,1,32.17-32.17A32.2,32.2,0,0,1,169.71,101.75Z"/><path class="cls-13" d="M169.71,39.42a30.17,30.17,0,1,1-30.17,30.17,30.2,30.2,0,0,1,30.17-30.17m0-4a34.17,34.17,0,1,0,34.17,34.17,34.17,34.17,0,0,0-34.17-34.17Z"/><path class="cls-12" d="M256.07,298.21a5,5,0,0,1-5-5v-5.87a42.5,42.5,0,0,1-9.77-4l-4.21,4.19a5,5,0,0,1-7.05,0l-8.85-8.8a5,5,0,0,1,0-7.09l4.18-4.16a41.88,41.88,0,0,1-4-9.68H215.4a5,5,0,0,1-5-5V240.32a5,5,0,0,1,5-5h5.94a41.9,41.9,0,0,1,4-9.68l-4.18-4.16a5,5,0,0,1,0-7.09l8.85-8.8a5,5,0,0,1,7.05,0l4.21,4.19a42.46,42.46,0,0,1,9.76-4v-5.88a5,5,0,0,1,5-5h12.51a5,5,0,0,1,5,5v5.88a42.47,42.47,0,0,1,9.77,4l4.21-4.19a5,5,0,0,1,7.05,0l8.85,8.8a5,5,0,0,1,0,7.09l-4.18,4.16a41.86,41.86,0,0,1,4,9.68h5.94a5,5,0,0,1,5,5v12.45a5,5,0,0,1-5,5h-5.94a41.89,41.89,0,0,1-4,9.68l4.18,4.16a5,5,0,0,1,0,7.09l-8.85,8.8a5,5,0,0,1-7.05,0l-4.21-4.19a42.52,42.52,0,0,1-9.77,4v5.87a5,5,0,0,1-5,5Z"/><path class="cls-14" d="M268.58,199.87v7.35a3.11,3.11,0,0,0,2.41,3,37.53,37.53,0,0,1,11,4.54,3.13,3.13,0,0,0,3.85-.45l5.23-5.2,8.85,8.8-5.23,5.2a3.1,3.1,0,0,0-.45,3.83,36.9,36.9,0,0,1,4.57,10.95,3.13,3.13,0,0,0,3,2.4h7.39v12.45h-7.39a3.12,3.12,0,0,0-3,2.4,36.93,36.93,0,0,1-4.57,10.95,3.1,3.1,0,0,0,.45,3.83l5.23,5.2-8.85,8.8-5.23-5.2a3.14,3.14,0,0,0-3.85-.45,37.52,37.52,0,0,1-11,4.54,3.11,3.11,0,0,0-2.41,3v7.35H256.07v-7.35a3.11,3.11,0,0,0-2.41-3,37.53,37.53,0,0,1-11-4.54,3.13,3.13,0,0,0-3.85.45l-5.23,5.2-8.85-8.8,5.23-5.2a3.1,3.1,0,0,0,.45-3.83,36.9,36.9,0,0,1-4.57-10.95,3.13,3.13,0,0,0-3-2.4H215.4V240.32h7.39a3.12,3.12,0,0,0,3-2.4A36.93,36.93,0,0,1,230.4,227a3.1,3.1,0,0,0-.45-3.83l-5.23-5.2,8.85-8.8,5.23,5.2a3.14,3.14,0,0,0,3.85.45,37.52,37.52,0,0,1,11-4.54,3.11,3.11,0,0,0,2.41-3v-7.35h12.51m0-10H256.07a10,10,0,0,0-10,10v2.22q-1.94.7-3.82,1.58L240.62,202a10,10,0,0,0-14.1,0l-8.85,8.8a10,10,0,0,0,0,14.18l1.58,1.57q-.85,1.83-1.55,3.72h-2.3a10,10,0,0,0-10,10v12.45a10,10,0,0,0,10,10h2.29q.69,1.89,1.55,3.72l-1.58,1.57a10,10,0,0,0,0,14.18l8.85,8.8a10,10,0,0,0,14.1,0l1.63-1.62q1.88.87,3.82,1.58v2.22a10,10,0,0,0,10,10h12.51a10,10,0,0,0,10-10V291q1.94-.71,3.82-1.58L284,291a10,10,0,0,0,14.1,0l8.85-8.8a10,10,0,0,0,0-14.18l-1.58-1.57q.85-1.83,1.55-3.72h2.3a10,10,0,0,0,10-10V240.32a10,10,0,0,0-10-10H307q-.69-1.89-1.55-3.72L307,225a10,10,0,0,0,0-14.18l-8.85-8.8a10,10,0,0,0-14.1,0l-1.63,1.62q-1.88-.87-3.82-1.58v-2.22a10,10,0,0,0-10-10Z"/><ellipse id="center-elipse" class="cls-13" cx="262.23" cy="246.74" rx="26.55" ry="26.4"/></g></g></svg>