<svg xmlns="http://www.w3.org/2000/svg" viewBox="0 0 122 122"><defs><style>.cls-1{fill:#7a5b6b;stroke:#7a5b6b;stroke-miterlimit:10;stroke-width:2px;}.cls-2{fill:#fff;}</style></defs><title>counselor</title><g id="Layer_2" data-name="Layer 2"><g id="Layer_1-2" data-name="Layer 1"><circle class="cls-1" cx="61" cy="61" r="60"/><path class="cls-2" d="M28.39,59.28H26.48l-.26-1.71a2.68,2.68,0,0,0-1-.6,3.81,3.81,0,0,0-1.36-.22A3,3,0,0,0,21.33,58a5.17,5.17,0,0,0-.9,3.16v.45a5.23,5.23,0,0,0,.9,3.17A3,3,0,0,0,23.86,66a4.18,4.18,0,0,0,1.38-.22,2.31,2.31,0,0,0,1-.6l.26-1.71h1.91V66a5.48,5.48,0,0,1-2,1.43,6.57,6.57,0,0,1-2.68.53,5.48,5.48,0,0,1-4.22-1.78,6.5,6.5,0,0,1-1.64-4.58v-.43a6.54,6.54,0,0,1,1.63-4.58,5.46,5.46,0,0,1,4.23-1.79,6.45,6.45,0,0,1,2.68.54,5.76,5.76,0,0,1,2,1.43Z"/><path class="cls-2" d="M29.74,62.92a5.09,5.09,0,0,1,1.19-3.48,4.15,4.15,0,0,1,3.29-1.36,4.17,4.17,0,0,1,3.3,1.35,5.09,5.09,0,0,1,1.19,3.49v.19a5.09,5.09,0,0,1-1.19,3.49,4.15,4.15,0,0,1-3.28,1.35,4.19,4.19,0,0,1-3.31-1.35,5.09,5.09,0,0,1-1.19-3.49Zm2.57.19a4.14,4.14,0,0,0,.46,2.09,1.58,1.58,0,0,0,1.48.79,1.56,1.56,0,0,0,1.45-.79,4.1,4.1,0,0,0,.46-2.08v-.19a4.06,4.06,0,0,0-.47-2.06,1.58,1.58,0,0,0-1.47-.8,1.56,1.56,0,0,0-1.46.8,4.13,4.13,0,0,0-.46,2.06Z"/><path class="cls-2" d="M46.43,66.56a3.08,3.08,0,0,1-2.66,1.39,3,3,0,0,1-2.36-1,4.43,4.43,0,0,1-.85-3V60.06l-1-.26V58.25h3.61V64a2.48,2.48,0,0,0,.35,1.49,1.22,1.22,0,0,0,1,.45,2.58,2.58,0,0,0,1-.2,1.84,1.84,0,0,0,.73-.57V60.06l-1.12-.26V58.25h3.69V66l1.15.26v1.54H46.6Z"/><path class="cls-2" d="M51.14,66.22,52.37,66v-5.9L51,59.8V58.25h3.75l.11,1.36A3.48,3.48,0,0,1,56,58.48a3,3,0,0,1,1.56-.4,2.86,2.86,0,0,1,2.25.9,4.18,4.18,0,0,1,.81,2.84V66l1.23.26v1.54H57V66.22l1.1-.26V61.83a1.92,1.92,0,0,0-.39-1.36,1.56,1.56,0,0,0-1.17-.4,2,2,0,0,0-.91.21,1.89,1.89,0,0,0-.68.58V66l1,.26v1.54H51.14Z"/><path class="cls-2" d="M70.55,61.52H68.82l-.27-1.19a2.26,2.26,0,0,0-.66-.35,2.65,2.65,0,0,0-.88-.14,1.71,1.71,0,0,0-1.07.3.92.92,0,0,0-.4.76.87.87,0,0,0,.38.72,4.07,4.07,0,0,0,1.51.5,6.17,6.17,0,0,1,2.62,1A2.27,2.27,0,0,1,70.9,65a2.49,2.49,0,0,1-1.1,2.1,4.77,4.77,0,0,1-2.9.81,6.11,6.11,0,0,1-2-.32,5.13,5.13,0,0,1-1.63-.92l0-2.14H65l.35,1.24a1.46,1.46,0,0,0,.62.29,3.57,3.57,0,0,0,.83.09A2.09,2.09,0,0,0,68,65.91a.88.88,0,0,0,.41-.76.9.9,0,0,0-.41-.73,4.22,4.22,0,0,0-1.52-.54,6.12,6.12,0,0,1-2.54-1A2.21,2.21,0,0,1,63.09,61a2.66,2.66,0,0,1,1-2.06,4.12,4.12,0,0,1,2.8-.87,7.2,7.2,0,0,1,2.1.3,4.42,4.42,0,0,1,1.55.76Z"/><path class="cls-2" d="M76.68,67.95a4.28,4.28,0,0,1-3.29-1.32,4.71,4.71,0,0,1-1.23-3.35v-.35a5.2,5.2,0,0,1,1.17-3.49,4.34,4.34,0,0,1,6.11-.2,4.46,4.46,0,0,1,1.06,3.14v1.4H74.82l0,.05a2.48,2.48,0,0,0,.63,1.55,2,2,0,0,0,1.52.61,5,5,0,0,0,1.42-.17,6.57,6.57,0,0,0,1.23-.54l.69,1.58a5,5,0,0,1-1.53.78A6.48,6.48,0,0,1,76.68,67.95Zm-.23-7.89a1.34,1.34,0,0,0-1.12.54A2.84,2.84,0,0,0,74.81,62l0,0H78v-.23a2.05,2.05,0,0,0-.38-1.3A1.38,1.38,0,0,0,76.45,60.05Z"/><path class="cls-2" d="M81.51,55.6V54.05h3.94V66l1.24.26v1.54h-5V66.22L82.88,66V55.86Z"/><path class="cls-2" d="M87.45,62.92a5.09,5.09,0,0,1,1.19-3.48,4.68,4.68,0,0,1,6.59,0,5.09,5.09,0,0,1,1.19,3.49v.19a5.09,5.09,0,0,1-1.19,3.49,4.7,4.7,0,0,1-6.59,0,5.09,5.09,0,0,1-1.19-3.49Zm2.57.19a4.14,4.14,0,0,0,.46,2.09,1.58,1.58,0,0,0,1.48.79,1.56,1.56,0,0,0,1.45-.79,4.1,4.1,0,0,0,.46-2.08v-.19a4.06,4.06,0,0,0-.47-2.06,1.58,1.58,0,0,0-1.47-.8,1.56,1.56,0,0,0-1.46.8A4.13,4.13,0,0,0,90,62.92Z"/><path class="cls-2" d="M97.52,66.22,98.75,66v-5.9l-1.36-.26V58.25h3.75l.11,1.39a3,3,0,0,1,.86-1.15,1.92,1.92,0,0,1,1.22-.41,3,3,0,0,1,.43,0,2.51,2.51,0,0,1,.37.07l-.27,2.34-1.05,0a1.8,1.8,0,0,0-.93.22,1.42,1.42,0,0,0-.56.62V66l1.23.26v1.54h-5Z"/></g></g></svg>