<svg xmlns="http://www.w3.org/2000/svg" viewBox="0 0 172.02 172.02"><defs><style>.cls-1{fill:#ef6263;}.cls-2{fill:#7a5b6b;}.cls-3{fill:#ffdc95;}</style></defs><title>edu</title><g id="Layer_2" data-name="Layer 2"><g id="Layer_1-2" data-name="Layer 1"><path class="cls-1" d="M75.88,167a5,5,0,0,1-5-5v-12A67.2,67.2,0,0,1,51.52,142L43,150.47a5,5,0,0,1-7.07,0L21.56,136.13a5,5,0,0,1,0-7.07L30,120.59a66.92,66.92,0,0,1-8-19.39l-12-.05a5,5,0,0,1-5-5V75.88a5,5,0,0,1,5-5H22A67,67,0,0,1,30,51.51L21.56,43a5,5,0,0,1,0-7.07L35.9,21.56a5,5,0,0,1,7.07,0L51.44,30a67.24,67.24,0,0,1,19.38-8l.05-12a5,5,0,0,1,5-5H96.14a5,5,0,0,1,5,5V22A67.25,67.25,0,0,1,120.5,30l8.56-8.48a5,5,0,0,1,7.07,0l14.34,14.34a5,5,0,0,1,0,7.07L142,51.43a66.94,66.94,0,0,1,8,19.39l12,.05a5,5,0,0,1,5,5V96.15a5,5,0,0,1-5,5h-12A66.9,66.9,0,0,1,142,120.51l8.48,8.55a5,5,0,0,1,0,7.07l-14.34,14.34a5,5,0,0,1-7.07,0L120.58,142a67.25,67.25,0,0,1-19.38,8l-.06,12a5,5,0,0,1-5,5Z"/><path class="cls-2" d="M96.14,10V22a5.06,5.06,0,0,0,3.9,4.93,60.6,60.6,0,0,1,17.83,7.4,5.05,5.05,0,0,0,6.24-.73l8.47-8.47,14.34,14.34-8.47,8.47a5.07,5.07,0,0,0-.73,6.24A60.28,60.28,0,0,1,145.13,72a5.07,5.07,0,0,0,4.93,3.9h12V96.15h-12a5.07,5.07,0,0,0-4.93,3.9,60.33,60.33,0,0,1-7.4,17.83,5.08,5.08,0,0,0,.73,6.24l8.47,8.47-14.34,14.34-8.47-8.47a5.06,5.06,0,0,0-6.24-.73,60.6,60.6,0,0,1-17.83,7.4,5.06,5.06,0,0,0-3.9,4.93v12H75.88v-12a5.06,5.06,0,0,0-3.9-4.93,60.6,60.6,0,0,1-17.83-7.4,5.05,5.05,0,0,0-6.24.73l-8.47,8.47L25.09,132.59l8.47-8.47a5.07,5.07,0,0,0,.73-6.24A60.27,60.27,0,0,1,26.89,100,5.07,5.07,0,0,0,22,96.15H10V75.88H22A5.07,5.07,0,0,0,26.9,72a60.33,60.33,0,0,1,7.4-17.83,5.07,5.07,0,0,0-.73-6.24L25.1,39.43,39.43,25.09l8.47,8.47a5.06,5.06,0,0,0,6.24.73A60.6,60.6,0,0,1,72,26.89,5.06,5.06,0,0,0,75.88,22V10H96.14m0-10H75.88a10,10,0,0,0-10,10v8.18A70.52,70.52,0,0,0,52.3,23.81L46.5,18a10,10,0,0,0-14.14,0L18,32.36A10,10,0,0,0,18,46.5l5.79,5.79a70.24,70.24,0,0,0-5.64,13.59H10a10,10,0,0,0-10,10V96.15a10,10,0,0,0,10,10h8.17a70.2,70.2,0,0,0,5.64,13.59L18,125.52a10,10,0,0,0,0,14.14L32.35,154a10,10,0,0,0,14.14,0l5.79-5.79a70.52,70.52,0,0,0,13.58,5.64V162a10,10,0,0,0,10,10H96.14a10,10,0,0,0,10-10v-8.18a70.53,70.53,0,0,0,13.59-5.64l5.79,5.79a10,10,0,0,0,14.14,0L154,139.67a10,10,0,0,0,0-14.14l-5.79-5.79a70.24,70.24,0,0,0,5.64-13.59H162a10,10,0,0,0,10-10V75.88a10,10,0,0,0-10-10h-8.17a70.22,70.22,0,0,0-5.64-13.59L154,46.5a10,10,0,0,0,0-14.14L139.67,18a10,10,0,0,0-14.14,0l-5.79,5.79a70.52,70.52,0,0,0-13.58-5.64V10a10,10,0,0,0-10-10Z"/><path class="cls-3" d="M121.11,77.67,86.85,65.1a3,3,0,0,0-1.69,0L51,77.67a2.41,2.41,0,0,0-.08,4.51l9.35,3.63v20a2.39,2.39,0,0,0,1.53,2.26,69.35,69.35,0,0,0,48.36,0,2.35,2.35,0,0,0,1.53-2.26v-20l5.32-2.1v22.17h4.84V81.7a2.59,2.59,0,0,0,.81-1.77A2.18,2.18,0,0,0,121.11,77.67ZM107,104.11a64.39,64.39,0,0,1-41.92,0V87.75l20.07,7.82a2.9,2.9,0,0,0,.89.16,3.43,3.43,0,0,0,.89-.16L107,87.75Z"/></g></g></svg>