<svg xmlns="http://www.w3.org/2000/svg" viewBox="0 0 172.02 172.02"><defs><style>.cls-1{fill:#ef6263;}.cls-2{fill:#7a5b6b;}.cls-3{fill:#ffdc95;}</style></defs><title>health</title><g id="Layer_2" data-name="Layer 2"><g id="Layer_1-2" data-name="Layer 1"><path class="cls-1" d="M75.88,167a5,5,0,0,1-5-5v-12A67.19,67.19,0,0,1,51.52,142L43,150.47a5,5,0,0,1-7.07,0L21.55,136.13a5,5,0,0,1,0-7.07L30,120.59a66.92,66.92,0,0,1-8-19.39l-12-.05a5,5,0,0,1-5-5V75.88a5,5,0,0,1,5-5H22A66.94,66.94,0,0,1,30,51.51L21.56,43a5,5,0,0,1,0-7.07L35.9,21.56a5,5,0,0,1,7.07,0L51.44,30a67.24,67.24,0,0,1,19.38-8l.05-12a5,5,0,0,1,5-5H96.14a5,5,0,0,1,5,5V22A67.25,67.25,0,0,1,120.5,30l8.56-8.48a5,5,0,0,1,7.07,0l14.34,14.34a5,5,0,0,1,0,7.07L142,51.43a66.92,66.92,0,0,1,8,19.39l12,.05a5,5,0,0,1,5,5V96.15a5,5,0,0,1-5,5h-12A66.94,66.94,0,0,1,142,120.51l8.48,8.55a5,5,0,0,1,0,7.07l-14.34,14.34a5,5,0,0,1-7.07,0L120.58,142a67.22,67.22,0,0,1-19.38,8l-.06,12a5,5,0,0,1-5,5Z"/><path class="cls-2" d="M96.14,10V22a5.06,5.06,0,0,0,3.9,4.93,60.6,60.6,0,0,1,17.83,7.4,5.05,5.05,0,0,0,6.24-.73l8.47-8.47,14.34,14.34-8.47,8.47a5.07,5.07,0,0,0-.73,6.24A60.28,60.28,0,0,1,145.13,72a5.07,5.07,0,0,0,4.93,3.9h12V96.15h-12a5.07,5.07,0,0,0-4.93,3.9,60.33,60.33,0,0,1-7.4,17.83,5.08,5.08,0,0,0,.73,6.24l8.47,8.47-14.34,14.34-8.47-8.47a5.06,5.06,0,0,0-6.24-.73,60.6,60.6,0,0,1-17.83,7.4,5.06,5.06,0,0,0-3.9,4.93v12H75.88v-12a5.06,5.06,0,0,0-3.9-4.93,60.6,60.6,0,0,1-17.83-7.4,5.05,5.05,0,0,0-6.24.73l-8.47,8.47L25.09,132.59l8.47-8.47a5.07,5.07,0,0,0,.73-6.24A60.27,60.27,0,0,1,26.89,100,5.07,5.07,0,0,0,22,96.15H10V75.88H22A5.07,5.07,0,0,0,26.9,72a60.33,60.33,0,0,1,7.4-17.83,5.07,5.07,0,0,0-.73-6.24L25.1,39.43,39.43,25.09l8.47,8.47a5.06,5.06,0,0,0,6.24.73A60.6,60.6,0,0,1,72,26.89,5.06,5.06,0,0,0,75.88,22V10H96.14m0-10H75.88a10,10,0,0,0-10,10v8.18A70.52,70.52,0,0,0,52.3,23.81L46.5,18a10,10,0,0,0-14.14,0L18,32.36A10,10,0,0,0,18,46.5l5.79,5.79a70.24,70.24,0,0,0-5.64,13.59H10a10,10,0,0,0-10,10V96.15a10,10,0,0,0,10,10h8.17a70.2,70.2,0,0,0,5.64,13.59L18,125.52a10,10,0,0,0,0,14.14L32.35,154a10,10,0,0,0,14.14,0l5.79-5.79a70.52,70.52,0,0,0,13.58,5.64V162a10,10,0,0,0,10,10H96.14a10,10,0,0,0,10-10v-8.18a70.53,70.53,0,0,0,13.59-5.64l5.79,5.79a10,10,0,0,0,14.14,0L154,139.67a10,10,0,0,0,0-14.14l-5.79-5.79a70.24,70.24,0,0,0,5.64-13.59H162a10,10,0,0,0,10-10V75.88a10,10,0,0,0-10-10h-8.17a70.22,70.22,0,0,0-5.64-13.59L154,46.5a10,10,0,0,0,0-14.14L139.67,18a10,10,0,0,0-14.14,0l-5.79,5.79a70.52,70.52,0,0,0-13.58-5.64V10a10,10,0,0,0-10-10Z"/><path class="cls-3" d="M94.38,73a9.83,9.83,0,0,0-6.84,2.82l-1.61,1.61-1.61-1.61A9.69,9.69,0,0,0,77.48,73a9.56,9.56,0,0,0-7,3,9.8,9.8,0,0,0,.32,13.6l13.92,13.92a1.56,1.56,0,0,0,2.25,0l14.08-14.08a9.57,9.57,0,0,0,0-13.6A8.88,8.88,0,0,0,94.38,73Z"/><path class="cls-3" d="M86,63.52a1.61,1.61,0,0,0,1.61-1.61v-12a1.61,1.61,0,0,0-3.22,0v12A1.61,1.61,0,0,0,86,63.52Z"/><path class="cls-3" d="M68.55,68.83a1.45,1.45,0,0,0,1.21.56,1.89,1.89,0,0,0,1-.4A1.63,1.63,0,0,0,71,66.74l-7.73-9.17a1.6,1.6,0,1,0-2.41,2.09Z"/><path class="cls-3" d="M61.15,84.36a1.58,1.58,0,0,0,.24-3.14L49.64,79.13a1.59,1.59,0,1,0-.56,3.14l11.75,2.09Z"/><path class="cls-3" d="M63.32,98.44l-10.38,6a1.56,1.56,0,0,0-.56,2.17,1.66,1.66,0,0,0,1.37.8,1.55,1.55,0,0,0,.8-.24l10.38-6a1.59,1.59,0,1,0-1.61-2.74Z"/><path class="cls-3" d="M77.88,109.39a1.58,1.58,0,0,0-2,1l-4.1,11.27a1.58,1.58,0,0,0,1,2,1.19,1.19,0,0,0,.56.08,1.55,1.55,0,0,0,1.45-1l4.1-11.27A1.52,1.52,0,0,0,77.88,109.39Z"/><path class="cls-3" d="M96.15,110.35a1.58,1.58,0,0,0-3,1l4.1,11.27a1.55,1.55,0,0,0,1.45,1,1.57,1.57,0,0,0,.56-.08,1.66,1.66,0,0,0,1-2Z"/><path class="cls-3" d="M119,104.4l-10.38-6a1.59,1.59,0,0,0-1.61,2.74l10.38,6a1.36,1.36,0,0,0,.8.24,1.66,1.66,0,0,0,1.37-.8A1.53,1.53,0,0,0,119,104.4Z"/><path class="cls-3" d="M124.24,80.42a1.57,1.57,0,0,0-1.85-1.29l-11.75,2.09a1.57,1.57,0,0,0-1.29,1.85,1.62,1.62,0,0,0,1.53,1.29h.24l11.75-2.09A1.63,1.63,0,0,0,124.24,80.42Z"/><path class="cls-3" d="M102.27,69.39a1.45,1.45,0,0,0,1.21-.56l7.73-9.17a1.6,1.6,0,0,0-2.41-2.09l-7.73,9.17a1.63,1.63,0,0,0,.16,2.25A1.33,1.33,0,0,0,102.27,69.39Z"/></g></g></svg>