<svg xmlns="http://www.w3.org/2000/svg" width="47.8" height="47.8" viewBox="0 0 47.8 47.8" overflow="scroll"><style>.st0{fill:#7A5B6B;} .st1{fill:#FFFFFF;}</style><circle class="st0" cx="23.9" cy="23.9" r="23.9"/><g id="Layer_2_1_"><path class="st1" d="M36.2 12.5l-1.4-1.4c-1.5-1.5-4-1.5-5.5 0l-5.8 5.8c-1.5 1.5-1.5 4 0 5.5l.1.1-1.2 1.2-.1-.1c-1.5-1.5-4-1.5-5.5 0L11 29.4c-1.5 1.5-1.5 4 0 5.5l1.4 1.4c1.5 1.5 4 1.5 5.5 0l5.8-5.8c1.5-1.5 1.5-4 0-5.5l-.1-.1 1.2-1.2.1.1c1.5 1.5 4 1.5 5.5 0l5.8-5.8c1.5-1.6 1.5-4 0-5.5zM22.5 26.2c.8.8.8 2.1 0 2.9L16.7 35c-.8.8-2.1.8-2.9 0l-1.4-1.4c-.8-.8-.8-2.1 0-2.9l5.8-5.8c.8-.8 2.1-.8 2.9 0l.1.1-4.2 4.1c-.3.3-.3.9 0 1.3s.9.3 1.3 0l4.2-4.2zM35 16.7l-5.8 5.8c-.8.8-2.1.8-2.9 0l-.1-.1 4.2-4.2c.3-.3.3-.9 0-1.3s-.9-.3-1.3 0l-4.2 4.2-.1-.1c-.8-.8-.8-2.1 0-2.9l5.8-5.8c.8-.8 2.1-.8 2.9 0l1.4 1.4c.9.9.9 2.2.1 3z" id="Layer_1-2_1_"/></g></svg>