<svg xmlns="http://www.w3.org/2000/svg" viewBox="0 0 50.89 45.53"><defs><style>.cls-1,.cls-2{fill:#fff;}.cls-2{font-size:5.7px;font-family:FontAwesome, FontAwesome;letter-spacing:0.01em;}</style></defs><title>Asset 5</title><g id="Layer_2" data-name="Layer 2"><g id="Layer_1-2" data-name="Layer 1"><path class="cls-1" d="M39.36,0H11.53C5.17,0,0,4.62,0,10.3V23.25c0,5.68,5.17,10.3,11.53,10.3h19.3l9.08,9.27,2.48,2.5a.74.74,0,0,0,.75.16.62.62,0,0,0,.44-.57V32.83a10.4,10.4,0,0,0,7.31-9.58V10.3C50.89,4.62,45.72,0,39.36,0Zm8.76,23.25a7.85,7.85,0,0,1-5.48,7.24,8,8,0,0,1-1.31.38.62.62,0,0,0-.53.59V40l-7.26-7.42L32.3,31.28a.72.72,0,0,0-.51-.21H11.53c-4.83,0-8.76-3.51-8.76-7.82V10.3C2.77,6,6.7,2.48,11.53,2.48H39.36c4.83,0,8.76,3.51,8.76,7.82Z"/><text class="cls-2" transform="translate(8.48 22.47)"></text><text class="cls-2" transform="translate(15.34 22.47)"></text><text class="cls-2" transform="translate(22.21 22.47)"></text><text class="cls-2" transform="translate(29.07 22.47)"></text><text class="cls-2" transform="translate(35.93 22.47)"></text></g></g></svg>