<svg xmlns="http://www.w3.org/2000/svg" viewBox="0 0 52 51.11"><defs><style>.cls-1{fill:#f4f4f4;}</style></defs><title>isegoria05</title><g id="Layer_2" data-name="Layer 2"><g id="Layer_1-2" data-name="Layer 1"><path class="cls-1" d="M41.24,29.59A10.76,10.76,0,1,0,52,40.35,10.78,10.78,0,0,0,41.24,29.59Zm0,19.73a9,9,0,1,1,9-9,9,9,0,0,1-9,9Zm0,0"/><path class="cls-1" d="M46.62,39.45H42.14V35a.9.9,0,1,0-1.8,0v5.38a.9.9,0,0,0,.9.9h5.38a.9.9,0,0,0,0-1.8Zm0,0"/><path class="cls-1" d="M16.19,35.93V15.24H14.4L9.86,17.93v1.8L14.4,17v18.9Zm0,0"/><path class="cls-1" d="M32.33,28.41V21.82a6.53,6.53,0,0,0-6.56-6.58,6.53,6.53,0,0,0-6.56,6.56,6.33,6.33,0,0,0,1.91,4.65,6.44,6.44,0,0,0,4.74,1.91,6.25,6.25,0,0,0,4.77-2.1v1.93a5.56,5.56,0,0,1-1.7,4.4,5.87,5.87,0,0,1-4,1.5h-.66v1.69h.54a8.43,8.43,0,0,0,3.61-.72,5.79,5.79,0,0,0,2.35-1.87,8.09,8.09,0,0,0,1.58-4.78Zm-3.1-3.15a4.67,4.67,0,0,1-3.44,1.41,4.72,4.72,0,0,1-3.45-1.41,4.64,4.64,0,0,1-1.42-3.44,4.84,4.84,0,0,1,4.86-4.88,4.76,4.76,0,0,1,3.44,1.38,4.6,4.6,0,0,1,1.42,3.45,4.72,4.72,0,0,1-1.41,3.48Zm0,0"/><path class="cls-1" d="M25.1,40.35H1.8V10.76H43.93V25.1a.9.9,0,0,0,1.8,0V0H0V41.24a.9.9,0,0,0,.9.9H25.1a.9.9,0,1,0,0-1.8ZM31.38,1.8H43.93V9H31.38ZM17,1.8H29.59V9H17ZM1.8,1.8H15.24V9H1.8Zm0,0"/></g></g></svg>