<svg xmlns="http://www.w3.org/2000/svg" viewBox="0 0 46.99 59.12"><defs><style>.cls-1{fill:#fff;}</style></defs><title>Asset 12</title><g id="Layer_2" data-name="Layer 2"><g id="Layer_1-2" data-name="Layer 1"><path class="cls-1" d="M17,35.47a5,5,0,0,0,3.33-1.35,4.62,4.62,0,0,0-6.55-6.52,4.39,4.39,0,0,0-1.43,3.18,4.63,4.63,0,0,0,1.35,3.36A4.76,4.76,0,0,0,17,35.47ZM15.14,29a2.61,2.61,0,0,1,3.74,0,2.6,2.6,0,0,1,0,3.76,2.61,2.61,0,0,1-3.76,0,2.72,2.72,0,0,1-.8-2A2.48,2.48,0,0,1,15.14,29Z"/><path class="cls-1" d="M32.92,27.17a.85.85,0,0,0-.66-.31,1,1,0,0,0-.73.31L14.17,44.53a.85.85,0,0,0-.31.63,1,1,0,0,0,.31.76,1,1,0,0,0,1.39,0L32.92,28.55a.85.85,0,0,0,.31-.63A1,1,0,0,0,32.92,27.17Z"/><path class="cls-1" d="M30,37.61a4.57,4.57,0,1,0,3.31,1.34A4.93,4.93,0,0,0,30,37.61Zm1.84,6.57a2.54,2.54,0,0,1-1.84.76,2.61,2.61,0,0,1-1.84-.76,2.55,2.55,0,0,1-.76-1.84,2.61,2.61,0,0,1,.76-1.84A2.55,2.55,0,0,1,30,39.75a2.61,2.61,0,0,1,1.84.76,2.61,2.61,0,0,1,0,3.67Z"/><path class="cls-1" d="M42.52,11.78H34.78v-.5a11.28,11.28,0,1,0-22.56,0v.5H4.48a1,1,0,0,0-1,1L0,51.64v.13c0,4.05,3.77,7.35,8.4,7.35H38.59c4.63,0,8.4-3.3,8.4-7.35v-.17L43.51,12.72A1,1,0,0,0,42.52,11.78Zm-28.25-.5a9.23,9.23,0,1,1,18.45,0v.5H14.27ZM38.59,57.15H8.4C5,57.15,2.07,54.78,2,51.87v-.06l3.4-37.52,0-.45h6.89v5.74a1,1,0,1,0,2,0V13.83H32.81v5.74a1,1,0,1,0,2,0V13.83h6.89l0,.46L45,51.81C45,54.73,42.08,57.15,38.59,57.15Z"/></g></g></svg>