<svg xmlns="http://www.w3.org/2000/svg" viewBox="0 0 41.18 42.03"><defs><style>.cls-1{fill:#fff;}</style></defs><title>Asset 2</title><g id="Layer_2" data-name="Layer 2"><g id="Layer_1-2" data-name="Layer 1"><path class="cls-1" d="M40.26,2.9l-1.2-1.2a2.9,2.9,0,0,0-4.2,0L2.26,34.3a.52.52,0,0,0-.2.4l-2,6A1,1,0,0,0,1.36,42l6-2a.76.76,0,0,0,.4-.2L40.36,7.2A3.11,3.11,0,0,0,40.26,2.9ZM4.36,35,15,24.4l2.6,2.6L7,37.6Zm12-12L33.86,5.5l2.6,2.6L19,25.6Zm-13,13.9,1.7,1.7-2.6.9ZM38.86,5.7l-1,1-2.6-2.6,1-1a1,1,0,0,1,1.4,0l1.2,1.2A1,1,0,0,1,38.86,5.7Zm-18.6,8a1,1,0,0,1,0-1.4l12-12a1,1,0,0,1,1.4,0,1,1,0,0,1,0,1.4l-12,12A1,1,0,0,1,20.26,13.7Z"/></g></g></svg>