<svg xmlns="http://www.w3.org/2000/svg" viewBox="0 0 60.17 56.21"><defs><style>.cls-1,.cls-2{fill:#fff;}.cls-2{stroke:#fff;stroke-miterlimit:10;stroke-width:0.75px;}</style></defs><title>Asset 6</title><g id="Layer_2" data-name="Layer 2"><g id="Layer_1-2" data-name="Layer 1"><path class="cls-1" d="M11.31,43.82A6.82,6.82,0,1,0,4.4,37,6.82,6.82,0,0,0,11.31,43.82Zm0-10.66A3.83,3.83,0,1,1,7.39,37,3.88,3.88,0,0,1,11.31,33.17Z"/><path class="cls-1" d="M1.51,56.2A1.5,1.5,0,0,0,3,54.71V50.89a2.8,2.8,0,0,1,2.83-2.76h1l3,3a2.18,2.18,0,0,0,3,0l3-3h1a2.8,2.8,0,0,1,2.83,2.76h0v3.82a1.5,1.5,0,0,0,3,0V50.89a5.79,5.79,0,0,0-5.82-5.75H15.24a1.5,1.5,0,0,0-1,.43l-2.86,2.81-2.89-2.8a1.5,1.5,0,0,0-1-.43H5.84A5.79,5.79,0,0,0,0,50.89v3.82A1.5,1.5,0,0,0,1.5,56.2Z"/><path class="cls-1" d="M29.46,13.72a6.87,6.87,0,0,0,6.92-6.8,6.92,6.92,0,0,0-13.83,0A6.87,6.87,0,0,0,29.46,13.72Zm0-10.63a3.88,3.88,0,0,1,3.92,3.83,3.92,3.92,0,0,1-7.82,0A3.88,3.88,0,0,1,29.46,3.08Z"/><path class="cls-1" d="M19.66,26.12a1.5,1.5,0,0,0,1.5-1.5h0V20.81A2.8,2.8,0,0,1,24,18h1l3,3a2.18,2.18,0,0,0,3,0l3-3h.94a2.8,2.8,0,0,1,2.83,2.76h0v3.82a1.5,1.5,0,1,0,3,0V20.81A5.79,5.79,0,0,0,35,15.06H33.37a1.5,1.5,0,0,0-1,.43L29.46,18.3,26.6,15.48a1.5,1.5,0,0,0-1-.43H24a5.79,5.79,0,0,0-5.82,5.75v3.82A1.5,1.5,0,0,0,19.66,26.12Z"/><path class="cls-1" d="M36.23,31.41A1.5,1.5,0,0,0,34.15,31,29.6,29.6,0,0,0,28,36.8a10.82,10.82,0,0,0-2.71-2.2,1.5,1.5,0,1,0-1.48,2.57A7.82,7.82,0,0,1,26.65,40a1.5,1.5,0,0,0,1.2.75h.07a1.5,1.5,0,0,0,1.2-.64,26.63,26.63,0,0,1,6.73-6.66A1.5,1.5,0,0,0,36.23,31.41Z"/><path class="cls-2" d="M56.17,43.3h-.11a5.67,5.67,0,0,0-5.61-4.89H46.66V36.77a2.52,2.52,0,1,0-1.26,0v1.67H41.62A5.67,5.67,0,0,0,36,43.3a3.63,3.63,0,0,0,0,7.25,5.67,5.67,0,0,0,5.62,4.89h8.83a5.67,5.67,0,0,0,5.61-4.89h.11a3.63,3.63,0,1,0,0-7.25Zm-20.23,6a2.37,2.37,0,0,1,0-4.73Zm8.88-15a1.26,1.26,0,1,1,1.26,1.26A1.26,1.26,0,0,1,44.82,34.32Zm10,15.45a4.41,4.41,0,0,1-4.1,4.4H41.3a4.41,4.41,0,0,1-4.1-4.4V44.09a4.41,4.41,0,0,1,4.41-4.41h8.83a4.41,4.41,0,0,1,4.41,4.41Zm1.31-.47h-.05V44.57h.05a2.36,2.36,0,0,1,0,4.73Z"/><path class="cls-1" d="M42.3,47.19A2.15,2.15,0,1,1,44.45,45,2.15,2.15,0,0,1,42.3,47.19Zm0-3.78A1.64,1.64,0,1,0,43.94,45,1.64,1.64,0,0,0,42.3,43.4Z"/><path class="cls-1" d="M42.3,42.52A2.52,2.52,0,1,0,44.82,45a2.52,2.52,0,0,0-2.52-2.52Zm0,3.78A1.26,1.26,0,1,1,43.56,45,1.26,1.26,0,0,1,42.3,46.3Z"/><path class="cls-1" d="M49.87,47.19A2.15,2.15,0,1,1,52,45,2.15,2.15,0,0,1,49.87,47.19Zm0-3.78A1.64,1.64,0,1,0,51.5,45,1.64,1.64,0,0,0,49.87,43.4Z"/><path class="cls-1" d="M49.87,42.52A2.52,2.52,0,1,0,52.39,45a2.52,2.52,0,0,0-2.52-2.52Zm0,3.78A1.26,1.26,0,1,1,51.13,45a1.26,1.26,0,0,1-1.26,1.26Z"/></g></g></svg>