<svg xmlns="http://www.w3.org/2000/svg" viewBox="0 0 48.21 48.24"><defs><style>.cls-1{fill:#fff;}</style></defs><title>Asset 3</title><g id="Layer_2" data-name="Layer 2"><g id="Layer_1-2" data-name="Layer 1"><path class="cls-1" d="M46.25,4.45,43.79,2a6.8,6.8,0,0,0-9.61,0L23.94,12.22a6.81,6.81,0,0,0,0,9.61l.13.13L22,24.07l-.13-.13a6.81,6.81,0,0,0-9.61,0L2,34.18a6.8,6.8,0,0,0,0,9.61l2.47,2.47a6.81,6.81,0,0,0,9.61,0L24.3,36a6.81,6.81,0,0,0,0-9.61l-.13-.13,2.1-2.1.13.13a6.8,6.8,0,0,0,9.61,0L46.25,14.07A6.88,6.88,0,0,0,46.25,4.45ZM22.09,28.62a3.67,3.67,0,0,1,0,5.19L11.85,44a3.76,3.76,0,0,1-5.19,0L4.2,41.58a3.66,3.66,0,0,1,0-5.18h0L14.44,26.15a3.67,3.67,0,0,1,5.18,0h0l.13.13-7.4,7.4a1.56,1.56,0,0,0,2.21,2.21l7.4-7.4ZM44,11.85,33.8,22.09a3.75,3.75,0,0,1-5.19,0L28.49,22l7.4-7.4a1.56,1.56,0,0,0-2.21-2.21l-7.4,7.4-.13-.13a3.67,3.67,0,0,1,0-5.18h0L36.39,4.2a3.67,3.67,0,0,1,5.19,0h0L44,6.67h0a3.66,3.66,0,0,1,0,5.18h0Z"/></g></g></svg>