<svg xmlns="http://www.w3.org/2000/svg" viewBox="0 0 72.32 80.05"><defs><style>.cls-1,.cls-2{fill:#fff;}.cls-2{stroke:#fff;stroke-miterlimit:10;stroke-width:0.75px;}</style></defs><title>isegoria06</title><g id="Layer_2" data-name="Layer 2"><g id="Layer_1-2" data-name="Layer 1"><path class="cls-1" d="M32.56,17.46c5.46,0,9.92-3.84,10-8.66S38.07,0,32.56,0s-10,3.94-10,8.8S27.09,17.49,32.56,17.46Zm0-13.53c3.09,0,5.62,2.15,5.66,4.88-.24,2.75-3,4.8-6.08,4.58a5.36,5.36,0,0,1-5.2-4.58C27,6.09,29.48,3.92,32.56,3.93Z"/><path class="cls-1" d="M18.41,33.24a2,2,0,0,0,2.16-1.91h0V26.48A3.83,3.83,0,0,1,24.66,23H26l4.34,3.76a3.45,3.45,0,0,0,4.38,0L39.09,23h1.36a3.84,3.84,0,0,1,4.09,3.51h0v4.86a2.19,2.19,0,0,0,4.34,0V26.48c0-4.06-3.79-7.34-8.4-7.32H38.2a2.32,2.32,0,0,0-1.51.54l-4.13,3.58-4.13-3.58a2.32,2.32,0,0,0-1.51-.54H24.66c-4.61,0-8.37,3.25-8.4,7.32v4.86A2,2,0,0,0,18.41,33.24Z"/><path class="cls-1" d="M43.37,39.33a1.88,1.88,0,0,0-2.52-.43,35.21,35.21,0,0,0-7.5,6.63A13,13,0,0,0,30.06,43a1.88,1.88,0,0,0-2.55.29,1.66,1.66,0,0,0,.3,2.42,1.84,1.84,0,0,0,.45.25,9.25,9.25,0,0,1,3.49,3.3,1.83,1.83,0,0,0,1.46.86h.08a1.84,1.84,0,0,0,1.46-.74,31.53,31.53,0,0,1,8.17-7.65A1.67,1.67,0,0,0,43.37,39.33Z"/><path class="cls-2" d="M67.55,58h-.14a6.77,6.77,0,0,0-6.81-5.62H56V50.49A2.9,2.9,0,0,0,58.3,47a3.07,3.07,0,0,0-3.68-2.16,2.9,2.9,0,0,0-2.28,3.48,3,3,0,0,0,2.15,2.13v1.92H49.9A6.77,6.77,0,0,0,43.09,58a4.17,4.17,0,1,0,0,8.33A6.77,6.77,0,0,0,49.9,72h10.7a6.77,6.77,0,0,0,6.81-5.62h.14a4.17,4.17,0,1,0,0-8.33ZM43,64.89a2.72,2.72,0,1,1,0-5.44ZM53.79,47.67a1.53,1.53,0,1,1,1.53,1.45A1.49,1.49,0,0,1,53.79,47.67ZM66,65.43a5.19,5.19,0,0,1-5,5.06H49.52a5.19,5.19,0,0,1-5-5.06V58.91a5.22,5.22,0,0,1,5.35-5.07h10.7A5.22,5.22,0,0,1,66,58.91Zm1.59-.54h-.06V59.45h.06a2.72,2.72,0,1,1,0,5.44Z"/><path class="cls-1" d="M50.73,62.52A2.53,2.53,0,1,1,53.42,60,2.61,2.61,0,0,1,50.73,62.52Zm0-4.35A1.83,1.83,0,1,0,52.64,60,1.87,1.87,0,0,0,50.73,58.17Z"/><path class="cls-1" d="M48.89,58.7a2.13,2.13,0,0,0,0,2.59,2,2,0,0,1,0-2.59m3.69,0a2,2,0,0,1,0,2.57,2.13,2.13,0,0,0,0-2.57M50.73,57.1A2.9,2.9,0,1,0,53.79,60a3,3,0,0,0-3.06-2.9Zm0,4.35A1.45,1.45,0,1,1,52.26,60a1.49,1.49,0,0,1-1.53,1.45Z"/><path class="cls-1" d="M59.91,62.52A2.53,2.53,0,1,1,62.59,60,2.61,2.61,0,0,1,59.91,62.52Zm0-4.35A1.83,1.83,0,1,0,61.81,60,1.87,1.87,0,0,0,59.91,58.17Z"/><path class="cls-1" d="M61.75,58.7a2,2,0,0,1,0,2.59,2.13,2.13,0,0,0,0-2.59m-3.68,0a2.13,2.13,0,0,0,0,2.59,2,2,0,0,1,0-2.59m1.84-1.61A2.9,2.9,0,1,0,63,60a3,3,0,0,0-3.06-2.9Zm0,4.35A1.45,1.45,0,1,1,61.44,60a1.49,1.49,0,0,1-1.53,1.45Z"/><path class="cls-1" d="M2.33,44.25A2.4,2.4,0,0,0,0,46.73V77.57a2.4,2.4,0,0,0,2.33,2.48H15.51a2.4,2.4,0,0,0,2.33-2.48V46.73a2.4,2.4,0,0,0-2.33-2.48Zm5.17,2.31h2.85a.15.15,0,0,1,.14.15v.18a.15.15,0,0,1-.14.15H7.49a.15.15,0,0,1-.14-.15v-.18A.15.15,0,0,1,7.49,46.57ZM1.58,49.41H16.26V74.89H1.58ZM8.92,76a1.54,1.54,0,0,1,0,3.06,1.54,1.54,0,0,1,0-3.06Z"/></g></g></svg>