<svg xmlns="http://www.w3.org/2000/svg" viewBox="0 0 45.39 32.75"><defs><style>.cls-1{fill:#fff;}</style></defs><title>Asset 15</title><g id="Layer_2" data-name="Layer 2"><g id="Layer_1-2" data-name="Layer 1"><path class="cls-1" d="M41.39,32.75c-4.48,0-9,0-13.44,0A3.66,3.66,0,0,1,24,28.85l.12-14.16c.41-4.3,2.94-7.51,6.1-10.25A29.65,29.65,0,0,1,36.37.39c.36-.18.81-.66,1.17-.18s-.06.85-.31,1.21C36.15,3,34.86,4.37,33.92,6a12.22,12.22,0,0,0-1.63,4.65c-.17,1.48.24,1.92,1.71,1.93,2.54,0,5.09,0,7.63,0s3.72,1.27,3.73,3.75l0,12.47A4,4,0,0,1,41.39,32.75Z"/><path class="cls-1" d="M17.39,32.75c-4.48,0-9,0-13.44,0A3.66,3.66,0,0,1,0,28.85L.13,14.69c.41-4.3,2.94-7.51,6.1-10.25A29.65,29.65,0,0,1,12.37.39c.36-.18.81-.66,1.17-.18s-.06.85-.31,1.21C12.15,3,10.86,4.37,9.92,6a12.22,12.22,0,0,0-1.63,4.65c-.17,1.48.24,1.92,1.71,1.93,2.54,0,5.09,0,7.63,0s3.72,1.27,3.73,3.75l0,12.47A4,4,0,0,1,17.39,32.75Z"/></g></g></svg>