<svg xmlns="http://www.w3.org/2000/svg" viewBox="0 0 56.28 44.63"><defs><style>.cls-1{fill:#fff;}</style></defs><title>Asset 4</title><g id="Layer_2" data-name="Layer 2"><g id="Layer_1-2" data-name="Layer 1"><path class="cls-1" d="M48.05,8.26H28.19A8.24,8.24,0,0,0,20,16.49V26.83a8.24,8.24,0,0,0,8.23,8.23H42l6.48,7.4,1.77,2a.48.48,0,0,0,.36.16.47.47,0,0,0,.17,0,.49.49,0,0,0,.31-.45V34.49a8.23,8.23,0,0,0,5.22-7.65V16.49A8.24,8.24,0,0,0,48.05,8.26ZM54.3,26.83a6.22,6.22,0,0,1-3.91,5.79,5.26,5.26,0,0,1-.93.3.48.48,0,0,0-.38.47v6.8L43.9,34.26l-.89-1a.49.49,0,0,0-.36-.16H28.19a6.25,6.25,0,0,1-6.25-6.25V16.49a6.26,6.26,0,0,1,6.25-6.25H48.05a6.26,6.26,0,0,1,6.25,6.25Z"/><path class="cls-1" d="M18.2,23.61H14.77a.59.59,0,0,0-.45.2l-1.09,1.25L8.9,30.26V24a.6.6,0,0,0-.47-.58A6.72,6.72,0,0,1,7.29,23a7.7,7.7,0,0,1-4.84-7.16V10.18a7.73,7.73,0,0,1,7.73-7.73h17.9A7.73,7.73,0,0,1,35,6.68h2.68A10.21,10.21,0,0,0,28.07,0H10.18A10.19,10.19,0,0,0,0,10.18v5.71a10.17,10.17,0,0,0,6.45,9.46v9.86a.6.6,0,0,0,.39.56.58.58,0,0,0,.21,0,.6.6,0,0,0,.45-.2l2.18-2.47h0l5.93-7.07H18.2Z"/></g></g></svg>