<svg xmlns="http://www.w3.org/2000/svg" width="47.8" height="47.8" viewBox="0 0 47.8 47.8" overflow="scroll"><style>.st0{fill:#7A5B6B;} .st1{fill:#FFFFFF;} .st2{fill:#FFFFFF;stroke:#FFFFFF;stroke-width:0.25;stroke-miterlimit:10;}</style><circle class="st0" cx="23.9" cy="23.9" r="23.9"/><g id="Layer_2_1_"><g id="Layer_1-2_1_"><path class="st1" d="M24.7 13.4c2.3 0 4.1-1.6 4.2-3.6 0-2-1.9-3.7-4.2-3.7s-4.2 1.6-4.2 3.7 2 3.6 4.2 3.6zm0-5.6c1.3 0 2.3.9 2.3 2-.1 1.1-1.2 2-2.5 1.9-1.1 0-2-.8-2.2-1.9.1-1.1 1.2-2 2.4-2zM18.9 19.9c.5 0 .9-.3.9-.8v-2c.1-.9.8-1.5 1.7-1.4h.5l1.8 1.6c.5.4 1.3.4 1.8 0l1.8-1.6h.6c.9-.1 1.6.6 1.7 1.5v2c.1.5.5.8 1 .8.4-.1.7-.4.8-.8v-2c0-1.7-1.6-3-3.5-3h-.9c-.2 0-.5.1-.6.2l-1.7 1.5-1.8-1.6c-.2-.1-.4-.2-.6-.2h-.9c-1.9 0-3.5 1.3-3.5 3v2c0 .5.4.9.9.8zM29.2 22.5c-.2-.3-.7-.4-1-.2C27 23 26 24 25.1 25c-.4-.4-.9-.8-1.4-1.1-.3-.2-.8-.2-1.1.1-.2.3-.2.7.1 1 .1 0 .1.1.2.1.6.3 1.1.8 1.4 1.4.1.2.4.3.6.4.2 0 .5-.1.6-.3.9-1.3 2.1-2.3 3.4-3.2.5-.1.6-.6.3-.9.1 0 0 0 0 0z"/><path class="st2" d="M39.3 30.2c-.3-1.4-1.5-2.4-2.9-2.3h-1.9v-.8c.7-.1 1.1-.7 1-1.4-.2-.7-.9-1.1-1.5-.9-.7.1-1.1.8-1 1.4.1.4.5.8.9.9v.8H32c-1.4 0-2.6 1-2.8 2.3-1 0-1.8.7-1.8 1.6 0 1 .7 1.8 1.6 1.8h.2C29.4 35 30.6 36 32 36h4.4c1.4 0 2.6-1 2.8-2.3h.1c1 0 1.8-.7 1.8-1.6 0-1-.7-1.8-1.6-1.8-.1-.1-.2-.1-.2-.1zm-10.2 2.9c-.6 0-1.1-.5-1.1-1.1 0-.6.5-1.1 1.1-1.1v2.2zm4.5-7.2c0-.4.3-.6.6-.7.4 0 .6.3.7.6 0 .4-.3.6-.6.7-.4 0-.7-.2-.7-.6zm5 7.4c0 1.1-.9 2.1-2.1 2.1h-4.8c-1.1 0-2-1-2.1-2.1v-2.7c0-1.2 1-2.1 2.2-2.1h4.4c1.2 0 2.2.9 2.3 2.1v2.7zm.7-.2v-2.3c.6 0 1.1.5 1.1 1.1 0 .7-.5 1.2-1.1 1.2z"/><path class="st1" d="M32.3 32.1c-.6 0-1-.5-1-1.1 0-.6.5-1 1.1-1 .6 0 1 .5 1 1.1 0 .5-.5 1-1.1 1zm0-1.8c-.4 0-.7.4-.7.8s.4.7.8.7.7-.4.7-.8-.4-.7-.8-.7z"/><path class="st1" d="M31.5 30.5c-.2.3-.2.8 0 1.1-.2-.3-.2-.8 0-1.1m1.6 0c.3.3.3.8 0 1.1.2-.3.2-.8 0-1.1m-.8-.7c-.7 0-1.2.6-1.1 1.3 0 .7.6 1.2 1.3 1.1.6 0 1.1-.6 1.1-1.2-.1-.6-.6-1.2-1.3-1.2zm0 1.8c-.3 0-.6-.3-.6-.6s.3-.6.6-.6.6.3.6.6c0 .4-.3.7-.6.6zM36.1 32.1c-.6 0-1-.5-1-1.1 0-.6.5-1 1.1-1 .6 0 1 .5 1 1.1 0 .5-.5 1-1.1 1zm0-1.8c-.4 0-.7.4-.7.8s.4.7.8.7.7-.4.7-.8-.4-.7-.8-.7z"/><path class="st1" d="M36.9 30.5c.3.3.3.8 0 1.1.2-.3.2-.8 0-1.1m-1.6 0c-.2.3-.2.8 0 1.1-.2-.3-.2-.8 0-1.1m.8-.7c-.7 0-1.2.6-1.1 1.3 0 .7.6 1.2 1.3 1.1.6 0 1.1-.6 1.1-1.2s-.6-1.2-1.3-1.2zm0 1.8c-.3 0-.6-.3-.6-.6s.3-.6.6-.6.6.3.6.6c0 .4-.3.7-.6.6zM12.2 24.5c-.5 0-1 .5-1 1v12.8c0 .5.4 1 1 1h5.5c.5 0 1-.5 1-1V25.5c0-.5-.4-1-1-1h-5.5zm2.1 1h1.2s.1 0 .1.1v.1s0 .1-.1.1h-1.2s-.1 0-.1-.1l.1-.2zm-2.4 1.1H18v10.6h-6.1V26.6zm3 11.1c.4 0 .6.4.6.7 0 .3-.3.5-.6.6-.4 0-.6-.4-.6-.7.1-.3.3-.6.6-.6z"/></g></g></svg>