<svg xmlns="http://www.w3.org/2000/svg" viewBox="0 0 38.86 68.17"><defs><style>.cls-1{fill:none;}.cls-2{fill:#fff;}</style></defs><title>Asset 7</title><g id="Layer_2" data-name="Layer 2"><g id="Layer_1-2" data-name="Layer 1"><polygon class="cls-1" points="19.41 2.85 19.4 2.85 19.41 3.85 19.41 2.85"/><path class="cls-2" d="M19.41,0A11.13,11.13,0,0,0,8.3,11.11a11.06,11.06,0,0,0,11,10.9h.16a11.07,11.07,0,0,0,11-10.92A11.12,11.12,0,0,0,19.41,0Zm0,20-.75,0A9.39,9.39,0,0,1,10,11.27v-.18a9.4,9.4,0,0,1,9.36-9.24v1h0v-1h.09a9.4,9.4,0,0,1,9.36,9.24v.18A9.48,9.48,0,0,1,19.44,20Z"/><path class="cls-2" d="M29.88,28.55H26.83a.83.83,0,0,0-.59.24l-5.42,5.33-1.4,1.38L18,34.12l-5.43-5.34a.83.83,0,0,0-.58-.24H9a9,9,0,0,0-9,8.92v7.23a.84.84,0,0,0,.84.83.84.84,0,0,0,.83-.84V37.45A7.33,7.33,0,0,1,9,30.22h2.69l.58.57,5.7,5.6a2.13,2.13,0,0,0,3,0l5.7-5.59.58-.57h2.68a7.33,7.33,0,0,1,7.3,7.21v7.27a.85.85,0,0,0,1.7,0V37.45A9,9,0,0,0,29.88,28.55Z"/><path class="cls-2" d="M16.84,62.88v-.49a6.2,6.2,0,0,1,.5-2.68,7.48,7.48,0,0,1,1.85-2.23l1.21-1.05a5.52,5.52,0,0,0,1.37-1.61A4,4,0,0,0,22.18,53a3.44,3.44,0,0,0-1.11-2.69,4.21,4.21,0,0,0-2.93-1,8,8,0,0,0-2,.23,10.54,10.54,0,0,0-2,.75l-.49-1.07a13.54,13.54,0,0,1,2.46-.85,9.75,9.75,0,0,1,2-.21A5.39,5.39,0,0,1,22,49.45a4.7,4.7,0,0,1,1.4,3.61,4.47,4.47,0,0,1-.91,2.84,7.39,7.39,0,0,1-1,1.12l-1.36,1.17A9.07,9.07,0,0,0,18.8,59.5a4,4,0,0,0-.67,1.25,6.88,6.88,0,0,0-.21,1.95v.19Zm-.44,4q0-1.31,1.07-1.31t1.09,1.31q0,1.31-1.09,1.31T16.4,66.86Z"/></g></g></svg>