<svg xmlns="http://www.w3.org/2000/svg" viewBox="0 0 61.56 53.33"><defs><style>.cls-1{fill:#fff;}</style></defs><title>Asset 13</title><g id="Layer_2" data-name="Layer 2"><g id="Layer_1-2" data-name="Layer 1"><path class="cls-1" d="M18.23,27.14a8.91,8.91,0,1,1,8.91-8.91A8.92,8.92,0,0,1,18.23,27.14Zm0-16.81a7.91,7.91,0,1,0,7.91,7.91A7.92,7.92,0,0,0,18.23,10.33Z"/><path class="cls-1" d="M18.23,4.55a.5.5,0,0,1-.5-.5V.5a.5.5,0,0,1,1,0V4A.5.5,0,0,1,18.23,4.55Z"/><path class="cls-1" d="M8.2,8.7a.5.5,0,0,1-.35-.15L5.34,6A.5.5,0,0,1,6,5.34L8.55,7.85a.5.5,0,0,1-.35.85Z"/><path class="cls-1" d="M4,18.73H.5a.5.5,0,0,1,0-1H4a.5.5,0,0,1,0,1Z"/><path class="cls-1" d="M5.69,31.27a.5.5,0,0,1-.35-.85l2.51-2.51a.5.5,0,0,1,.71.71L6,31.13A.5.5,0,0,1,5.69,31.27Z"/><path class="cls-1" d="M18.23,36.47a.5.5,0,0,1-.5-.5V32.42a.5.5,0,0,1,1,0V36A.5.5,0,0,1,18.23,36.47Z"/><path class="cls-1" d="M30.77,31.27a.5.5,0,0,1-.35-.15l-2.51-2.51a.5.5,0,0,1,.71-.71l2.51,2.51a.5.5,0,0,1-.35.85Z"/><path class="cls-1" d="M36,18.73H32.42a.5.5,0,0,1,0-1H36a.5.5,0,0,1,0,1Z"/><path class="cls-1" d="M28.26,8.7a.5.5,0,0,1-.35-.85l2.51-2.51a.5.5,0,0,1,.71.71L28.62,8.56A.5.5,0,0,1,28.26,8.7Z"/><path class="cls-1" d="M46.69,53.33a15,15,0,0,1-10.9-4.72.5.5,0,0,1,.51-.82A13.89,13.89,0,0,0,50.42,25a.5.5,0,0,1-.06-.61.51.51,0,0,1,.57-.22,14.89,14.89,0,0,1-.84,28.76A14.78,14.78,0,0,1,46.69,53.33Zm-8.84-4.16a13.93,13.93,0,0,0,12,2.8h0a13.89,13.89,0,0,0,2.49-26.2,14.89,14.89,0,0,1-14.49,23.4Z"/></g></g></svg>