<svg xmlns="http://www.w3.org/2000/svg" viewBox="0 0 66.53 32.83"><defs><style>.cls-1{fill:#fff;}</style></defs><title>Asset 8</title><g id="Layer_2" data-name="Layer 2"><g id="Layer_1-2" data-name="Layer 1"><path class="cls-1" d="M14.1,16.48A8.24,8.24,0,0,0,14,0h-.1A8.27,8.27,0,0,0,5.8,8.24,8.33,8.33,0,0,0,14.1,16.48Zm0-14h.06A5.8,5.8,0,0,1,14,14H13.9A5.76,5.76,0,0,1,8.24,8.24,5.89,5.89,0,0,1,14.1,2.44Z"/><path class="cls-1" d="M21.4,19.72H19.33a1.22,1.22,0,0,0-.85.35l-3.77,3.71-.52.51-.53-.51-3.8-3.68A1.22,1.22,0,0,0,9,19.74H6.88A6.9,6.9,0,0,0,0,26.55v5a1.23,1.23,0,0,0,2.46,0v-5a4.45,4.45,0,0,1,4.43-4.39H8.5l.22.21,4,3.89a2.12,2.12,0,0,0,3,0l4-3.89.22-.21h1.56a4.46,4.46,0,0,1,4.48,4.38v5a1.23,1.23,0,1,0,2.46,0v-5a6.9,6.9,0,0,0-6.88-6.82v-.37h0Z"/><path class="cls-1" d="M52.32,16.48h.05A8.24,8.24,0,0,0,52.26,0h-.11A8.27,8.27,0,0,0,44,8.24,8.32,8.32,0,0,0,52.32,16.48Zm0-14h.06A5.8,5.8,0,0,1,58,8.38,5.83,5.83,0,0,1,52.26,14h-.14a5.76,5.76,0,0,1-5.66-5.79A5.89,5.89,0,0,1,52.32,2.44Z"/><path class="cls-1" d="M59.65,19.72H57.52a1.22,1.22,0,0,0-.85.35L52.9,23.77l-.52.52-.53-.51-3.77-3.68a1.22,1.22,0,0,0-.85-.35H45.16a6.9,6.9,0,0,0-6.92,6.83v5a1.23,1.23,0,1,0,2.46,0V26.54a4.45,4.45,0,0,1,4.43-4.39h1.61l.22.21,4,3.89a2.12,2.12,0,0,0,3,0l4-3.89.22-.21h1.56a4.45,4.45,0,0,1,4.45,4.38v5a1.23,1.23,0,1,0,2.46,0v-5A6.9,6.9,0,0,0,59.65,19.72Z"/></g></g></svg>