<svg xmlns="http://www.w3.org/2000/svg" viewBox="0 0 35.32 53.35"><defs><style>.cls-1{fill:#fff;}</style></defs><title>Asset 11</title><g id="Layer_2" data-name="Layer 2"><g id="Layer_1-2" data-name="Layer 1"><path class="cls-1" d="M29.32,31l.17-.16a17.71,17.71,0,1,0-23.67-.1l.18.16v.24L5,51.68A1.61,1.61,0,0,0,6,53.13a2.32,2.32,0,0,0,.68.16A1.82,1.82,0,0,0,7.7,52.9l9.64-7.81.31-.25.31.25,9.66,7.82,0,0,0,0a1.5,1.5,0,0,0,1.06.4,1.55,1.55,0,0,0,1.56-1.69l-1-20.45ZM27.49,50.31,18.7,43.26a1.64,1.64,0,0,0-1.08-.4,1.36,1.36,0,0,0-1,.36l0,0,0,0L7.83,50.41l-.87.7L7,50l.77-16.71,0-.84.72.44a17.79,17.79,0,0,0,9.11,2.54,17.55,17.55,0,0,0,9.11-2.54l.72-.44,0,.84L28.3,49.9,28.35,51ZM17.66,33.52A15.81,15.81,0,1,1,33.42,17.66,15.78,15.78,0,0,1,17.66,33.52Z"/><polygon class="cls-1" points="10.6 16.23 8.71 18.05 14.96 24.39 26.56 12.69 24.71 10.83 15.31 20.23 14.96 20.59 14.6 20.23 10.6 16.23"/></g></g></svg>