<svg xmlns="http://www.w3.org/2000/svg" width="45.4" height="32.8" viewBox="0 0 45.4 32.8" overflow="scroll"><style>.st0{fill:#7A5B6B;}</style><path class="st0" d="M41.4 32.8H28c-2.3 0-4.1-1.6-3.9-3.9l.1-14.2c.4-4.3 2.9-7.5 6.1-10.3 1.9-1.6 3.9-2.9 6.1-4.1.4-.2.8-.7 1.2-.2.3.4-.1.9-.3 1.2-1.1 1.6-2.4 3-3.3 4.6-.8 1.5-1.4 3-1.6 4.6-.2 1.5.2 1.9 1.7 1.9h7.6c2.5 0 3.7 1.3 3.7 3.7v12.5c0 2.5-1.9 4.2-4 4.2zM17.4 32.8H4c-2.3 0-4.1-1.6-3.9-3.9l.1-14.2c.4-4.3 2.9-7.5 6.1-10.3 1.9-1.6 3.9-2.9 6.1-4.1.4-.2.8-.7 1.2-.2.3.4-.1.9-.3 1.2C12.2 3 10.9 4.4 9.9 6c-.8 1.5-1.4 3-1.6 4.6-.2 1.5.2 1.9 1.7 1.9h7.6c2.5 0 3.7 1.3 3.7 3.7v12.5c.1 2.4-1.8 4.1-3.9 4.1z"/></svg>