<svg xmlns="http://www.w3.org/2000/svg" viewBox="0 0 36.85 46.08"><defs><style>.cls-1{fill:#fff;}</style></defs><title>Asset 9</title><g id="Layer_2" data-name="Layer 2"><g id="Layer_1-2" data-name="Layer 1"><path class="cls-1" d="M32.61,18.21,32,18.07V11.32C32,5.08,25.93,0,18.42,0S4.81,5.08,4.81,11.32v6.74l-.56.15C1.71,18.88,0,20.77,0,22.89V41.12c0,2.73,2.74,5,6.1,5H30.74c3.36,0,6.1-2.22,6.1-5V22.89C36.85,20.72,35.14,18.84,32.61,18.21Zm-25.21-1V11.32c0-5.19,4.95-9.42,11-9.42s11,4.22,11,9.42v6.61H7.4ZM34.2,41.12a3.31,3.31,0,0,1-3.51,3.05H6a3.31,3.31,0,0,1-3.51-3.05V22.89A3.31,3.31,0,0,1,6,19.84H30.68a3.31,3.31,0,0,1,3.51,3.05Z"/><path class="cls-1" d="M18.42,32.76c-.71,0-1.29.43-1.29,1v3.41c0,.53.58,1,1.29,1s1.29-.43,1.29-1V33.71C19.72,33.18,19.14,32.76,18.42,32.76Z"/></g></g></svg>