<svg xmlns="http://www.w3.org/2000/svg" viewBox="0 0 55.29 55.33"><defs><style>.cls-1{fill:#fff;}</style></defs><title>Asset 14</title><g id="Layer_2" data-name="Layer 2"><g id="Layer_1-2" data-name="Layer 1"><path class="cls-1" d="M48.93,21.31H34.47l.41-1A37,37,0,0,0,37.53,6.5V4.45A4.45,4.45,0,0,0,33.09,0H32a4.46,4.46,0,0,0-4.27,3.22L27,5.66a37.75,37.75,0,0,1-6.85,13.26,6.33,6.33,0,0,1-5,2.39H3.69A3.7,3.7,0,0,0,0,25V51.63a3.7,3.7,0,0,0,3.69,3.69h8.84a3.7,3.7,0,0,0,3.39-2.23l0-.48,4.77,2a6.39,6.39,0,0,0,2.84.67H45.08a4.63,4.63,0,0,0,4-2.33l2-3.51a31.92,31.92,0,0,0,4.2-15.82v-6A6.36,6.36,0,0,0,48.93,21.31ZM14.17,25V47.65c-.11-.06,0,4.56-.09,4.48a1.64,1.64,0,0,1-1.56,1.14H3.69a1.64,1.64,0,0,1-1.64-1.64V25a1.64,1.64,0,0,1,1.64-1.64h10.4A12.11,12.11,0,0,1,14.17,25Zm39.07,8.67a29.87,29.87,0,0,1-3.93,14.8L47.3,52a2.57,2.57,0,0,1-2.23,1.29H23.55a4.31,4.31,0,0,1-1.92-.45l-5.41-2.68-.05-.89,0,0V25c0-.3,0-1.31,0-1.73l.42,0h0l.08,0h0a8.35,8.35,0,0,0,5.05-3A39.8,39.8,0,0,0,29,6.22l.7-2.43A2.4,2.4,0,0,1,32,2.05h1.1a2.4,2.4,0,0,1,2.39,2.39V6.5a34.91,34.91,0,0,1-2.51,13,2.79,2.79,0,0,0,2.59,3.83H48.93a4.31,4.31,0,0,1,4.31,4.31Z"/><circle class="cls-1" cx="8.09" cy="47.2" r="1.03"/></g></g></svg>