<svg xmlns="http://www.w3.org/2000/svg" viewBox="0 0 232.97 42.58"><defs><style>.cls-1{fill:#ff697a;}.cls-2{fill:#09b097;}</style></defs><title>Asset 1</title><g id="Layer_2" data-name="Layer 2"><g id="Layer_1-2" data-name="Layer 1"><path class="cls-1" d="M18.15,4.2c-4.68,0-9.35,0-14,0C1.71,4.22-.14,5.84,0,8.28L.13,23.05c.43,4.49,3.07,7.84,6.36,10.7A30.94,30.94,0,0,0,12.91,38c.38.19.84.69,1.23.19s-.06-.89-.32-1.26c-1.13-1.62-2.48-3.08-3.46-4.81a12.75,12.75,0,0,1-1.71-4.85c-.17-1.54.25-2,1.79-2,2.65,0,5.31,0,8,0s3.89-1.33,3.9-3.91l0-13A4.13,4.13,0,0,0,18.15,4.2Z"/><path class="cls-2" d="M48.86,4.21c-4.68,0-9.35,0-14,0a4.13,4.13,0,0,0-4.17,4.09l0,13c0,2.58,1.33,3.89,3.9,3.91s5.31,0,8,0c1.54,0,2,.47,1.79,2a12.75,12.75,0,0,1-1.71,4.85c-1,1.73-2.33,3.19-3.46,4.81-.26.37-.64.85-.32,1.26s.85,0,1.22-.19a30.94,30.94,0,0,0,6.42-4.23c3.29-2.86,5.93-6.21,6.36-10.7L53,8.28C53.13,5.84,51.28,4.22,48.86,4.21Z"/><path class="cls-2" d="M76.62,25.83a17.64,17.64,0,0,0,.14,2.5,3.27,3.27,0,0,0,.54,1.48,2,2,0,0,0,1.12.74,8.43,8.43,0,0,0,1.92.24v1.4H68.87v-1.4a8.2,8.2,0,0,0,2-.26A2.34,2.34,0,0,0,72,29.81a2.82,2.82,0,0,0,.56-1.4,15.44,15.44,0,0,0,.14-2.3V21q0-2.32-.06-3.82a10.31,10.31,0,0,0-.22-2.06,1.69,1.69,0,0,0-.92-1.26,7.28,7.28,0,0,0-2.72-.34v-1.4l7.84-1.52ZM72,2.48A2.39,2.39,0,0,1,72.75.72a2.51,2.51,0,0,1,3.52,0A2.39,2.39,0,0,1,77,2.48a2.39,2.39,0,0,1-.72,1.76,2.51,2.51,0,0,1-3.52,0A2.39,2.39,0,0,1,72,2.48Z"/><path class="cls-2" d="M83.37,22.79h1.48A9.94,9.94,0,0,0,85.91,26a8.4,8.4,0,0,0,2,2.44A8.49,8.49,0,0,0,90.59,30a10,10,0,0,0,3.34.54,7.19,7.19,0,0,0,4.68-1.4,4.64,4.64,0,0,0,1.72-3.8,4.51,4.51,0,0,0-1.48-3.46,10.5,10.5,0,0,0-2.14-1.54,35.54,35.54,0,0,0-3.38-1.64,37.58,37.58,0,0,1-4.16-2.08,12,12,0,0,1-2.68-2.08,6.5,6.5,0,0,1-1.42-2.3,8.52,8.52,0,0,1-.42-2.78,8.64,8.64,0,0,1,.66-3.4,8,8,0,0,1,1.86-2.7A8.37,8.37,0,0,1,90,1.62,10.1,10.1,0,0,1,93.61,1a9.42,9.42,0,0,1,3.28.56A11.29,11.29,0,0,1,100,3.36l1-1.8h.92l.44,8h-1.48a10.11,10.11,0,0,0-2.78-4.88A6.41,6.41,0,0,0,93.73,3a5.87,5.87,0,0,0-3.88,1.2,4,4,0,0,0-1.44,3.24,4.54,4.54,0,0,0,.32,1.74,4.42,4.42,0,0,0,1,1.48,10.37,10.37,0,0,0,1.88,1.4,25.75,25.75,0,0,0,2.88,1.46A52.55,52.55,0,0,1,99.45,16a15.79,15.79,0,0,1,3.12,2.28,6.78,6.78,0,0,1,1.64,2.4,7.87,7.87,0,0,1,.48,2.82,8.36,8.36,0,0,1-3,6.56,10.4,10.4,0,0,1-3.44,1.86,14,14,0,0,1-4.4.66,12.32,12.32,0,0,1-4.1-.64A12.59,12.59,0,0,1,86,29.79l-1.12,2H84Z"/><path class="cls-2" d="M127.36,28.47a10.52,10.52,0,0,1-8.44,4.12,11.27,11.27,0,0,1-4.28-.78,9.55,9.55,0,0,1-3.3-2.2,9.88,9.88,0,0,1-2.14-3.4,12.12,12.12,0,0,1-.76-4.38,12.47,12.47,0,0,1,.8-4.52,10.21,10.21,0,0,1,2.26-3.56A10.48,10.48,0,0,1,115,11.43a11.4,11.4,0,0,1,4.42-.84,8.16,8.16,0,0,1,6,2.1,8.1,8.1,0,0,1,2.12,6q0,.56-.22.68a2.66,2.66,0,0,1-1,.12H113.13a5,5,0,0,0-.12.78q0,.46,0,1a13.36,13.36,0,0,0,.5,3.78,8.56,8.56,0,0,0,1.44,2.9,6.64,6.64,0,0,0,2.24,1.86,6.31,6.31,0,0,0,2.9.66,6.72,6.72,0,0,0,3.12-.74,10.81,10.81,0,0,0,3-2.42Zm-6.6-10.79q.8,0,1.28,0a2.05,2.05,0,0,0,.72-.16.61.61,0,0,0,.32-.34,1.73,1.73,0,0,0,.08-.58A3.83,3.83,0,0,0,122,13.61a4.53,4.53,0,0,0-3.22-1.1q-4.32,0-5.36,5.16Z"/><path class="cls-2" d="M137.43,28.27l1.76.16,1.58.16q.78.08,1.56.2L144,29a7.92,7.92,0,0,1,4.62,2.22,6.12,6.12,0,0,1,1.74,4.46,5.76,5.76,0,0,1-2.66,5.12q-2.66,1.76-7.7,1.76a19.51,19.51,0,0,1-4.1-.4A11.37,11.37,0,0,1,132.75,41a6.17,6.17,0,0,1-2.06-1.78A3.84,3.84,0,0,1,130,37a4.27,4.27,0,0,1,.28-1.56,4.14,4.14,0,0,1,.76-1.26,3.62,3.62,0,0,1,1.14-.86,3.11,3.11,0,0,1,1.38-.32,3.87,3.87,0,0,1,2.44.84A2.89,2.89,0,0,0,134.19,35a3.55,3.55,0,0,0-.68,2.14,3,3,0,0,0,1.74,2.72,10.36,10.36,0,0,0,4.94,1q6.84,0,6.84-4.2A3.57,3.57,0,0,0,145.94,34a4.4,4.4,0,0,0-2.56-1.26l-2-.26-2-.26-1.82-.2q-.84-.08-1.36-.16a6.31,6.31,0,0,1-3.4-1.2A3.24,3.24,0,0,1,131.67,28a3.3,3.3,0,0,1,1.16-2.48,5.41,5.41,0,0,1,2.92-1.36V24a5.91,5.91,0,0,1-1.64-1,7,7,0,0,1-1.3-1.5,7.88,7.88,0,0,1-.86-1.82,6.46,6.46,0,0,1-.32-2,6.7,6.7,0,0,1,.58-2.8,6.54,6.54,0,0,1,1.64-2.22,7.92,7.92,0,0,1,2.5-1.48,8.94,8.94,0,0,1,3.16-.54,10.08,10.08,0,0,1,3.32.54,7.49,7.49,0,0,1,2.68,1.58,12.5,12.5,0,0,1,2.4-1.62,4.54,4.54,0,0,1,2-.5,3.68,3.68,0,0,1,2.3.66A2.13,2.13,0,0,1,153,13a1.36,1.36,0,0,1-.46,1.08,1.67,1.67,0,0,1-1.14.4,1.87,1.87,0,0,1-.92-.2,6,6,0,0,1-.66-.42c-.2-.15-.41-.29-.62-.42a1.49,1.49,0,0,0-.8-.2,3.48,3.48,0,0,0-2,.68,6.7,6.7,0,0,1,1,3.72A6.87,6.87,0,0,1,145.3,23q-2.12,1.94-6.36,2.26a16.61,16.61,0,0,0-3.4.52,1.19,1.19,0,0,0-1,1.16,1,1,0,0,0,.72.94A6.82,6.82,0,0,0,137.43,28.27Zm2.2-4.68a2.93,2.93,0,0,0,2.62-1.52,8.15,8.15,0,0,0,.94-4.28,8,8,0,0,0-.94-4.22,3,3,0,0,0-2.66-1.5,3.15,3.15,0,0,0-2.74,1.52,7.38,7.38,0,0,0-1,4.16,7.67,7.67,0,0,0,1,4.24A3.16,3.16,0,0,0,139.63,23.59Z"/><path class="cls-2" d="M165.13,10.6a11.55,11.55,0,0,1,7.9,3.08,10.68,10.68,0,0,1,2.44,3.42,10.37,10.37,0,0,1,.9,4.34,10.92,10.92,0,0,1-3.34,8,11.34,11.34,0,0,1-3.58,2.32,11.5,11.5,0,0,1-8.58,0,10.72,10.72,0,0,1-5.94-5.84,11.32,11.32,0,0,1-.88-4.5,10.69,10.69,0,0,1,.88-4.36,10.5,10.5,0,0,1,2.4-3.44,11,11,0,0,1,3.54-2.24A11.47,11.47,0,0,1,165.13,10.6Zm0,1.92a5.73,5.73,0,0,0-2.7.64A6,6,0,0,0,160.35,15,8.71,8.71,0,0,0,159,17.81a13.66,13.66,0,0,0-.46,3.66,14.2,14.2,0,0,0,.46,3.76,8.68,8.68,0,0,0,1.32,2.86,6.05,6.05,0,0,0,2.06,1.82,5.68,5.68,0,0,0,2.72.64,5.92,5.92,0,0,0,2.76-.64A6.05,6.05,0,0,0,170,28.07a9,9,0,0,0,1.36-2.88,13.51,13.51,0,0,0,.48-3.72,12.93,12.93,0,0,0-.48-3.64A8.81,8.81,0,0,0,170,15a6.36,6.36,0,0,0-2.12-1.84A5.78,5.78,0,0,0,165.13,12.51Z"/><path class="cls-2" d="M186.06,25.83q0,1.64.08,2.6a3.06,3.06,0,0,0,.42,1.46,1.61,1.61,0,0,0,1,.66,10.88,10.88,0,0,0,1.8.24v1.4H178.7v-1.4a8.69,8.69,0,0,0,1.84-.22,1.83,1.83,0,0,0,1-.66,2.8,2.8,0,0,0,.46-1.38,23.21,23.21,0,0,0,.1-2.42V21.43q0-2.72-.06-4.24a6.12,6.12,0,0,0-.4-2.24,1.44,1.44,0,0,0-1.06-.86,11.11,11.11,0,0,0-2-.14v-1.4l7-1.52.56,5h.16a10,10,0,0,1,1.3-2.2,9.34,9.34,0,0,1,1.7-1.7,8.2,8.2,0,0,1,1.92-1.1,5.44,5.44,0,0,1,2-.4,3,3,0,0,1,2,.62,2.06,2.06,0,0,1,.74,1.66,1.92,1.92,0,0,1-.6,1.5,2.49,2.49,0,0,1-1.72.54,3.16,3.16,0,0,1-1.08-.16,6,6,0,0,1-.78-.34l-.64-.34a1.39,1.39,0,0,0-.66-.16,2.92,2.92,0,0,0-2.16,1.38,10.07,10.07,0,0,0-1.68,3.5,18.29,18.29,0,0,0-.5,2.62,25.08,25.08,0,0,0-.18,3.06Z"/><path class="cls-2" d="M206.25,25.83a17.64,17.64,0,0,0,.14,2.5,3.27,3.27,0,0,0,.54,1.48,2,2,0,0,0,1.12.74,8.43,8.43,0,0,0,1.92.24v1.4H198.49v-1.4a8.2,8.2,0,0,0,2-.26,2.34,2.34,0,0,0,1.18-.72,2.82,2.82,0,0,0,.56-1.4,15.44,15.44,0,0,0,.14-2.3V21q0-2.32-.06-3.82a10.31,10.31,0,0,0-.22-2.06,1.69,1.69,0,0,0-.92-1.26,7.28,7.28,0,0,0-2.72-.34v-1.4l7.84-1.52Zm-4.6-23.35a2.39,2.39,0,0,1,.72-1.76,2.51,2.51,0,0,1,3.52,0,2.39,2.39,0,0,1,.72,1.76,2.39,2.39,0,0,1-.72,1.76,2.51,2.51,0,0,1-3.52,0A2.39,2.39,0,0,1,201.65,2.48Z"/><path class="cls-2" d="M224.74,18.63V17q0-4.88-4.16-4.88a4.83,4.83,0,0,0-1.16.12,1.89,1.89,0,0,0-.8.4,2.57,2.57,0,0,0-.58.8,8.83,8.83,0,0,0-.5,1.28,4.18,4.18,0,0,1-.86,1.54,2,2,0,0,1-3.22-1.62,3.27,3.27,0,0,1,2-3,12.82,12.82,0,0,1,5.8-1.06q4,0,5.68,1.42t1.68,4.82v9q0,4.56,1.8,4.56a4.12,4.12,0,0,0,1.08-.14,1.5,1.5,0,0,0,.88-.74l.56,1A3.7,3.7,0,0,1,231.21,32a6.09,6.09,0,0,1-2.68.62,3.09,3.09,0,0,1-2.62-1.12,5.09,5.09,0,0,1-.86-3.16h-.2a8,8,0,0,1-2.88,3.1,7.59,7.59,0,0,1-4.08,1.14,5.74,5.74,0,0,1-4-1.28,4.37,4.37,0,0,1-1.44-3.44,5.06,5.06,0,0,1,.34-1.84,5.14,5.14,0,0,1,1.1-1.68,10.35,10.35,0,0,1,2-1.58,24.27,24.27,0,0,1,3-1.58Zm0,1.72a35.66,35.66,0,0,0-3.86,1.72,13.48,13.48,0,0,0-2.54,1.68A5.68,5.68,0,0,0,217,25.43a3.8,3.8,0,0,0-.42,1.72,2.85,2.85,0,0,0,.88,2.16,3.22,3.22,0,0,0,2.32.84,3.81,3.81,0,0,0,1.94-.52,5.31,5.31,0,0,0,1.58-1.42,7.2,7.2,0,0,0,1.08-2.12,8.23,8.23,0,0,0,.4-2.58Z"/></g></g></svg>