<svg xmlns="http://www.w3.org/2000/svg" viewBox="0 0 252.9 50.37"><defs><style>.cls-1{fill:#ef6263;}.cls-2{fill:#7a5b6b;}.cls-3{fill:#ffdc95;}</style></defs><title>logo_1</title><g id="Layer_2" data-name="Layer 2"><g id="Layer_1-2" data-name="Layer 1"><path class="cls-1" d="M38.22,25.33a10.68,10.68,0,0,0-1.3-3.14.89.89,0,0,1,.13-1.1l1.49-1.49L36,17.06l-1.49,1.49a.89.89,0,0,1-1.1.13,10.64,10.64,0,0,0-3.14-1.3.89.89,0,0,1-.69-.87V14.4H26v2.11a.89.89,0,0,1-.69.87,10.63,10.63,0,0,0-3.14,1.3.89.89,0,0,1-1.1-.13l-1.49-1.49-2.53,2.53,1.49,1.49a.89.89,0,0,1,.13,1.1,10.68,10.68,0,0,0-1.3,3.14.89.89,0,0,1-.87.69H14.4v3.57h2.11a.89.89,0,0,1,.87.69,10.68,10.68,0,0,0,1.3,3.14.89.89,0,0,1-.13,1.1L17.06,36l2.53,2.53L21.08,37a.89.89,0,0,1,1.1-.13,10.64,10.64,0,0,0,3.14,1.3.89.89,0,0,1,.69.87V41.2h3.57V39.09a.89.89,0,0,1,.69-.87,10.63,10.63,0,0,0,3.14-1.3.89.89,0,0,1,1.1.13L36,38.54,38.54,36,37,34.52a.89.89,0,0,1-.13-1.1,10.68,10.68,0,0,0,1.3-3.14.89.89,0,0,1,.87-.69H41.2V26H39.09A.89.89,0,0,1,38.22,25.33Z"/><path class="cls-2" d="M42.73,22.18l.19-.19,4.91-4.91H55.6V15.29H47.45a.89.89,0,0,0-.63.26l-3.91,3.91-1.19,1.19H40l.43-.43a.86.86,0,0,0,.15-.2A.9.9,0,0,0,40.43,19l-3.79-3.79a.89.89,0,0,0-1.26,0l-.43.43V13.88l2.25-2.25L40,8.78a.89.89,0,0,0,.26-.63V0H38.52V7.78l-3.85,3.85-1.25,1.25a.89.89,0,0,0-.26.63v3a12.52,12.52,0,0,0-1.79-.71V13.88l.63-.63a.89.89,0,0,0,.26-.63V9.41L35.58,6.1a.89.89,0,0,0,.26-.63V0H34.05V5.1L30.74,8.41a.89.89,0,0,0-.26.63v3.2l-.37.37H28.69V0H26.91V12.61H25.49l-.37-.37V9a.89.89,0,0,0-.26-.63L21.55,5.1V0H19.76V5.47A.89.89,0,0,0,20,6.1l3.31,3.31v3.2a.89.89,0,0,0,.26.63l.63.63v1.95a12.43,12.43,0,0,0-1.79.71v-3a.89.89,0,0,0-.26-.63l-1.25-1.25L17.08,7.78V0H15.29V8.15a.89.89,0,0,0,.26.63l2.85,2.85,2.25,2.25V15.6l-.43-.43a.89.89,0,0,0-1.26,0L15.17,19a.86.86,0,0,0-.15.2.9.9,0,0,0,.15,1.06l.43.43H13.88L9.95,16.72,8.78,15.56a.89.89,0,0,0-.63-.26H0v1.79H7.78l2.17,2.17,2.93,2.93a.89.89,0,0,0,.63.26h3a12.52,12.52,0,0,0-.71,1.79H13.88l-.63-.63a.89.89,0,0,0-.63-.26H9.41L6.1,20a.89.89,0,0,0-.63-.26H0v1.79H5.1l3.31,3.31a.89.89,0,0,0,.63.26h3.2l.37.37v1.42H0v1.79H12.61v1.42l-.37.37H9a.89.89,0,0,0-.63.26L5.1,34.05H0v1.79H5.47a.89.89,0,0,0,.63-.26l3.31-3.31h3.2a.89.89,0,0,0,.63-.26l.63-.63h1.95a12.53,12.53,0,0,0,.71,1.79h-3a.89.89,0,0,0-.63.26L9.95,36.35,7.78,38.52H0v1.79H8.15A.89.89,0,0,0,8.78,40l1.17-1.17,3.93-3.93H15.6l-.43.43a.86.86,0,0,0-.15.2.9.9,0,0,0,.15,1.06L19,40.43a.89.89,0,0,0,1.26,0l.43-.43,1.27-1.27a21.74,21.74,0,0,0,2.3,1v1.95a.73.73,0,0,0,.73.73h5.69a.73.73,0,0,0,.73-.73V39.78a10.61,10.61,0,0,0,2.28-1.07L34.95,40l.43.43a.89.89,0,0,0,1.26,0l3.79-3.79a.86.86,0,0,0,.15-.2.9.9,0,0,0-.15-1.06L40,34.95h1.72l1.19,1.19L46.82,40a.89.89,0,0,0,.63.26H55.6V38.52H47.82l-4.91-4.91-.19-.19a.89.89,0,0,0-.63-.26h-3a12.53,12.53,0,0,0,.71-1.79h1.95l.63.63a.89.89,0,0,0,.56.26h3.28l3.31,3.31a.89.89,0,0,0,.63.26H55.6V34.05H50.5l-3.31-3.31a.89.89,0,0,0-.63-.26h-3.2L43,30.11V28.69H55.6V26.91H43V25.49l.37-.37h3.2a.89.89,0,0,0,.63-.26l3.31-3.31h5.1V19.76H50.13a.89.89,0,0,0-.63.26l-3.31,3.31H42.92a.89.89,0,0,0-.56.26l-.63.63H39.78a12.52,12.52,0,0,0-.71-1.79h3A.89.89,0,0,0,42.73,22.18ZM39.09,26H41.2v3.57H39.09a.89.89,0,0,0-.87.69,10.69,10.69,0,0,1-1.3,3.14.89.89,0,0,0,.13,1.1L38.54,36,36,38.54,34.52,37a.89.89,0,0,0-1.1-.13,10.62,10.62,0,0,1-3.14,1.3.89.89,0,0,0-.69.87V41.2H26V39.09a.89.89,0,0,0-.69-.87,10.63,10.63,0,0,1-3.14-1.3.89.89,0,0,0-1.1.13l-1.49,1.49L17.06,36l1.49-1.49a.89.89,0,0,0,.13-1.1,10.68,10.68,0,0,1-1.3-3.14.89.89,0,0,0-.87-.69H14.4V26h2.11a.89.89,0,0,0,.87-.69,10.68,10.68,0,0,1,1.3-3.14.89.89,0,0,0-.13-1.1l-1.49-1.49,2.53-2.53,1.49,1.49a.89.89,0,0,0,1.1.13,10.62,10.62,0,0,1,3.14-1.3.89.89,0,0,0,.69-.87V14.4h3.57v2.11a.89.89,0,0,0,.69.87,10.63,10.63,0,0,1,3.14,1.3.89.89,0,0,0,1.1-.13L36,17.06l2.53,2.53L37,21.08a.89.89,0,0,0-.13,1.1,10.68,10.68,0,0,1,1.3,3.14A.89.89,0,0,0,39.09,26Z"/><path class="cls-2" d="M74.44,36.29l3.24-.69V20.16l-3.59-.69v-4H84.4V35.6l3.22.69v4H74.44Zm10-26.82H77.69v-5H84.4Z"/><path class="cls-2" d="M114.73,17.52h-5l-.87-4.6a8.9,8.9,0,0,0-2.55-1,14.85,14.85,0,0,0-3.57-.41,6.86,6.86,0,0,0-4.27,1.16,3.62,3.62,0,0,0-1.51,3A3.28,3.28,0,0,0,98.5,18.5a21.79,21.79,0,0,0,5.44,2.31,21.22,21.22,0,0,1,8.41,4.07,8.44,8.44,0,0,1,2.86,6.65,8,8,0,0,1-3.4,6.79,14.87,14.87,0,0,1-9,2.48,19.46,19.46,0,0,1-7.19-1.27A14.81,14.81,0,0,1,90.3,36V29h5.2l.71,4.76A8.14,8.14,0,0,0,99,35.17a13,13,0,0,0,3.88.54,6.7,6.7,0,0,0,4.2-1.13,3.63,3.63,0,0,0,1.44-3,3.89,3.89,0,0,0-1.37-3.11,13.85,13.85,0,0,0-4.8-2.21,27.31,27.31,0,0,1-9-4.09,7.76,7.76,0,0,1-3.06-6.49A8,8,0,0,1,93.68,9a14.38,14.38,0,0,1,8.67-2.66,20.17,20.17,0,0,1,7,1.17,16.25,16.25,0,0,1,5.34,3.13Z"/><path class="cls-2" d="M129.7,40.8a11.21,11.21,0,0,1-8.6-3.45,12.34,12.34,0,0,1-3.22-8.76v-.92a13.62,13.62,0,0,1,3-9.13A10.12,10.12,0,0,1,129.1,15q5,0,7.82,3a11.68,11.68,0,0,1,2.78,8.21v3.66H124.84l0,.14a6.5,6.5,0,0,0,1.64,4,5.13,5.13,0,0,0,4,1.59,12.92,12.92,0,0,0,3.7-.45,17,17,0,0,0,3.22-1.41l1.82,4.14a13.22,13.22,0,0,1-4,2A17,17,0,0,1,129.7,40.8Zm-.6-20.66a3.5,3.5,0,0,0-2.94,1.43,7.43,7.43,0,0,0-1.33,3.75l.07.12h8.24v-.6a5.39,5.39,0,0,0-1-3.42A3.61,3.61,0,0,0,129.1,20.14Z"/><path class="cls-2" d="M142.83,28.08q0-5.89,2.56-9.5A8.31,8.31,0,0,1,152.58,15a7.14,7.14,0,0,1,3.68.93A8.22,8.22,0,0,1,159,18.55l.48-3.13h5.84V39.58a10.31,10.31,0,0,1-3.09,7.86q-3.09,2.93-8.5,2.93a16.87,16.87,0,0,1-4-.52,18.59,18.59,0,0,1-3.91-1.41L147,43.72a21.27,21.27,0,0,0,3.22,1.09,14,14,0,0,0,3.4.4,4.47,4.47,0,0,0,3.68-1.5,6.41,6.41,0,0,0,1.22-4.16V37.92a7.51,7.51,0,0,1-2.6,2.14,7.66,7.66,0,0,1-3.43.74,8.47,8.47,0,0,1-7.14-3.37,14.26,14.26,0,0,1-2.56-8.87Zm6.72.48a10.14,10.14,0,0,0,1.1,5.14,3.84,3.84,0,0,0,3.59,1.87,5.54,5.54,0,0,0,2.61-.56,4.31,4.31,0,0,0,1.71-1.64V22.56a4.63,4.63,0,0,0-1.71-1.75,5,5,0,0,0-2.56-.62,3.79,3.79,0,0,0-3.6,2.19,12.35,12.35,0,0,0-1.14,5.7Z"/><path class="cls-2" d="M169,27.64a13.33,13.33,0,0,1,3.12-9.12,12.26,12.26,0,0,1,17.25,0,13.32,13.32,0,0,1,3.12,9.13v.48a13.31,13.31,0,0,1-3.12,9.14,12.3,12.3,0,0,1-17.25,0A13.31,13.31,0,0,1,169,28.12Zm6.72.48a10.83,10.83,0,0,0,1.2,5.46,4.6,4.6,0,0,0,7.67,0,10.76,10.76,0,0,0,1.21-5.45v-.48a10.65,10.65,0,0,0-1.22-5.41,4.12,4.12,0,0,0-3.84-2.09,4.07,4.07,0,0,0-3.82,2.09,10.81,10.81,0,0,0-1.2,5.41Z"/><path class="cls-2" d="M194.59,36.29l3.22-.69V20.16l-3.57-.69v-4h9.82l.3,3.63a7.83,7.83,0,0,1,2.25-3,5,5,0,0,1,3.2-1.08,8.22,8.22,0,0,1,1.12.08,6.84,6.84,0,0,1,1,.2l-.71,6.12-2.76-.07a4.7,4.7,0,0,0-2.44.58,3.72,3.72,0,0,0-1.47,1.63V35.6l3.22.69v4H194.59Z"/><path class="cls-2" d="M214.13,36.29l3.24-.69V20.16l-3.59-.69v-4h10.31V35.6l3.22.69v4H214.13Zm10-26.82h-6.72v-5h6.72Z"/><path class="cls-2" d="M245.15,40.31a12.15,12.15,0,0,1-.48-1.28,10.07,10.07,0,0,1-.32-1.32,9.24,9.24,0,0,1-2.91,2.23,8.7,8.7,0,0,1-3.92.85,8.22,8.22,0,0,1-5.81-2,7,7,0,0,1-2.15-5.42A6.16,6.16,0,0,1,232.36,28q2.81-1.91,8.24-1.91H244V23.64a3.67,3.67,0,0,0-1-2.78,4.27,4.27,0,0,0-3.06-1,7.25,7.25,0,0,0-2,.26,5.36,5.36,0,0,0-1.45.63L236,23.43h-5.06l0-5.52a18.85,18.85,0,0,1,4.22-2.09,15.31,15.31,0,0,1,5.19-.85,11.81,11.81,0,0,1,7.51,2.27,7.72,7.72,0,0,1,2.89,6.45V34q0,.58,0,1.08a7.69,7.69,0,0,0,.08,1l2,.28v4Zm-5.82-4.49a5.82,5.82,0,0,0,2.76-.66A5.33,5.33,0,0,0,244,33.53v-3.8h-3.43a4.68,4.68,0,0,0-3.24,1,3.13,3.13,0,0,0-1.1,2.4,2.49,2.49,0,0,0,.82,2A3.33,3.33,0,0,0,239.33,35.83Z"/><circle class="cls-3" cx="27.8" cy="27.8" r="6.57"/></g></g></svg>