<svg xmlns="http://www.w3.org/2000/svg" viewBox="0 0 217.54 48.31"><defs><style>.cls-1{fill:#ef6263;}.cls-2,.cls-3{fill:#7a5b6b;}.cls-3{font-size:36px;font-family:ArialRoundedMTBold, Arial Rounded MT Bold;}.cls-4{letter-spacing:-0.01em;}.cls-5{letter-spacing:-0.02em;}</style></defs><title>logo_4</title><g id="Layer_2" data-name="Layer 2"><g id="Layer_1-2" data-name="Layer 1"><path class="cls-1" d="M18.15,14.13c-4.68,0-9.35,0-14,0-2.42,0-4.27,1.62-4.12,4.06L.13,33c.43,4.49,3.07,7.84,6.36,10.7a30.94,30.94,0,0,0,6.42,4.23c.38.19.84.69,1.23.19s-.06-.89-.32-1.26c-1.13-1.62-2.48-3.08-3.46-4.81a12.75,12.75,0,0,1-1.71-4.85c-.17-1.54.25-2,1.79-2,2.65,0,5.31,0,8,0s3.89-1.33,3.9-3.91l0-13A4.13,4.13,0,0,0,18.15,14.13Z"/><path class="cls-2" d="M48.86,14.15c-4.68,0-9.35,0-14,0a4.13,4.13,0,0,0-4.17,4.09l0,13c0,2.58,1.33,3.89,3.9,3.91s5.31,0,8,0c1.54,0,2,.47,1.79,2A12.75,12.75,0,0,1,42.64,42c-1,1.73-2.33,3.19-3.46,4.81-.26.37-.64.85-.32,1.26s.85,0,1.22-.19a30.94,30.94,0,0,0,6.42-4.23c3.29-2.86,5.93-6.21,6.36-10.7L53,18.21C53.13,15.77,51.28,14.15,48.86,14.15Z"/><text></text><text></text><text class="cls-3" transform="translate(68.94 40.47)">na<tspan class="cls-4" x="43.14" y="0">r</tspan><tspan class="cls-5" x="58.43" y="0">r</tspan><tspan x="73.3" y="0">afy</tspan></text></g></g></svg>