<svg xmlns="http://www.w3.org/2000/svg" width="244" height="30" viewBox="0 0 244 50" overflow="scroll"><style>.st0{fill:#EF6263;} .st1{fill:#7A5B6B;}</style><path class="st0" d="M26 0C19.3.1 12.6 0 5.9 0 2.5 0-.2 2.4 0 6l.2 21.6C.8 34.1 4.6 39 9.3 43.2c2.8 2.5 5.9 4.5 9.2 6.2.5.3 1.2 1 1.8.3.4-.6-.1-1.3-.5-1.8-1.6-2.4-3.6-4.5-5-7-1.2-2.2-2.2-4.5-2.4-7.1-.3-2.3.4-2.9 2.6-2.9h11.4c3.7 0 5.6-1.9 5.6-5.7v-19c.1-3.6-2.9-6.2-6-6.2z"/><path class="st1" d="M67.7 0H47.6c-3.1 0-6 2.6-6 6v19c0 3.8 1.9 5.7 5.6 5.7h11.4c2.2 0 2.8.7 2.6 2.9-.3 2.5-1.2 4.9-2.4 7.1-1.4 2.5-3.3 4.7-5 7-.4.5-.9 1.2-.5 1.8.5.7 1.2 0 1.8-.3 3.3-1.7 6.4-3.7 9.2-6.2 4.7-4.2 8.5-9.1 9.1-15.6L73.6 6c.2-3.6-2.4-6-5.9-6zM106 6.6h6.8v28.2h-6.4L93.6 17.9v16.9h-6.9V6.6h6.5l12.8 17v-17zM135.8 14.8c1.7 1.4 2.5 3.3 2.5 5.8v14.2h-7v-2.5c-1.4 1.9-3.6 2.8-6.6 2.8-2.3 0-4.1-.6-5.5-1.9-1.3-1.2-2-2.9-2-4.9 0-2.1.7-3.7 2.2-4.8 1.4-1.2 3.5-1.7 6.2-1.8h5.7v-.2c0-1-.4-1.9-1.1-2.4-.7-.6-1.7-.8-3.1-.8-.9 0-1.9.1-3.1.4-1.1.3-2.3.7-3.4 1.3l-2-4.8c1.8-.8 3.5-1.4 5.1-1.8 1.6-.4 3.3-.6 5.1-.6 3 0 5.4.6 7 2zm-6 14.7c.8-.5 1.3-1.2 1.5-2v-1.9H127c-2 0-3 .8-3 2.3 0 .8.3 1.3.8 1.8.5.4 1.2.7 2.2.7 1.1-.1 2-.4 2.8-.9zM152.7 13.8c1.2-.7 2.6-1 4.1-1v6.6h-1.1c-1.7 0-3.1.4-4.1 1.2-1 .8-1.7 1.9-1.8 3.2v11.1h-7.2V13h7.2v3.6c.8-1.2 1.7-2.2 2.9-2.8zM171.1 13.8c1.2-.7 2.6-1 4.1-1v6.6h-1.1c-1.7 0-3.1.4-4.1 1.2-1 .8-1.7 1.9-1.8 3.2v11.1H161V13h7.2v3.6c.8-1.2 1.7-2.2 2.9-2.8zM195.4 14.8c1.7 1.4 2.5 3.3 2.5 5.8v14.2h-7v-2.5c-1.4 1.9-3.6 2.8-6.6 2.8-2.3 0-4.1-.6-5.5-1.9-1.3-1.2-2-2.9-2-4.9 0-2.1.7-3.7 2.2-4.8 1.4-1.2 3.5-1.7 6.2-1.8h5.7v-.2c0-1-.4-1.9-1.1-2.4-.7-.6-1.7-.8-3.1-.8-.9 0-1.9.1-3.1.4-1.1.3-2.3.7-3.4 1.3l-2-4.8c1.8-.8 3.5-1.4 5.1-1.8 1.6-.4 3.3-.6 5.1-.6 3 0 5.4.6 7 2zm-6 14.7c.8-.5 1.3-1.2 1.5-2v-1.9h-4.3c-2 0-3 .8-3 2.3 0 .8.3 1.3.8 1.8.5.4 1.2.7 2.2.7 1-.1 2-.4 2.8-.9zM212.1 10.9c-.5.4-.7 1-.7 1.7V14h4.8v4.7h-4.8v16h-7.1v-16h-2.9V14h2.9v-2c0-2.3.8-4.1 2.3-5.5 1.5-1.3 3.5-2 5.9-2 1.6 0 3.1.3 4.7.8l-.9 5.4c-1.1-.4-1.9-.6-2.4-.6-.7.2-1.3.4-1.8.8zM231.3 41.5c-1.4 1-3.1 1.5-5.2 1.5-1.2 0-2.3-.2-3.4-.5-1-.4-2.1-.9-3.1-1.7l3-5c.5.4 1 .7 1.4.9.5.2.9.3 1.4.3 1.2 0 2.1-.6 2.6-1.7l.5-1-9-21.3h7.4l5.2 14.2 4.6-14.2h7.1l-9.3 23.9c-.7 2.1-1.8 3.6-3.2 4.6z"/></svg>