<svg xmlns="http://www.w3.org/2000/svg" width="88.4" height="60" viewBox="0 0 88.4 60" overflow="scroll"><style>.st0{fill:#EF6263;} .st1{fill:#7A5B6B;}</style><path class="st0" d="M31.2 0c-8 .1-16.1 0-24.1 0C2.9 0-.2 2.9 0 7.2l.2 25.9c.8 7.9 5.3 13.7 11 18.8 3.3 3 7.1 5.4 11 7.4.6.3 1.4 1.2 2.1.3.5-.7-.1-1.6-.6-2.2-1.9-2.8-4.3-5.4-6-8.5-1.5-2.7-2.6-5.5-2.9-8.5-.3-2.7.4-3.5 3.1-3.5h13.7c4.4 0 6.7-2.3 6.7-6.9l.1-22.8C38.5 3.1 35 0 31.2 0z"/><path class="st1" d="M81.3 0H57.2c-3.7 0-7.3 3.1-7.2 7.2V30c0 4.5 2.3 6.8 6.7 6.9h13.7c2.6 0 3.4.8 3.1 3.5-.3 3.1-1.5 5.8-2.9 8.5-1.7 3-4 5.6-6 8.5-.4.7-1.1 1.5-.6 2.2.7.9 1.5 0 2.1-.3 4-2 7.7-4.5 11-7.4 5.7-5 10.2-10.9 10.9-18.8l.2-25.9c.4-4.3-2.8-7.2-6.9-7.2z"/></svg>