<svg xmlns="http://www.w3.org/2000/svg" viewBox="0 0 226.2 172.71"><defs><style>.cls-1{fill:#7a5b6b;}</style></defs><title>perception</title><g id="Layer_2" data-name="Layer 2"><g id="Layer_1-2" data-name="Layer 1"><path class="cls-1" d="M173.82,90.23l.77-.77,20-20H226.2V62.22H193.05a3.62,3.62,0,0,0-2.57,1.06l-15.89,15.9L169.74,84h-7l1.76-1.76a3.49,3.49,0,0,0,.62-.81,3.65,3.65,0,0,0-.62-4.33L149.07,61.7a3.63,3.63,0,0,0-5.14,0l-1.76,1.76v-7l9.16-9.16,11.59-11.59A3.62,3.62,0,0,0,164,33.14V0h-7.27V31.64L141.05,47.3,136,52.38a3.62,3.62,0,0,0-1.06,2.57v12.3a50.94,50.94,0,0,0-7.27-2.87V56.45l2.57-2.57a3.62,3.62,0,0,0,1.06-2.57v-13l13.47-13.47a3.63,3.63,0,0,0,1.06-2.57V0h-7.27V20.74L125.07,34.21A3.63,3.63,0,0,0,124,36.78v13l-1.5,1.5h-5.76V0h-7.27V51.31H103.7l-1.5-1.5v-13a3.63,3.63,0,0,0-1.06-2.57L87.66,20.74V0H80.39V22.24a3.62,3.62,0,0,0,1.06,2.57L94.93,38.28v13A3.62,3.62,0,0,0,96,53.88l2.57,2.57v7.92a50.58,50.58,0,0,0-7.27,2.87V54.95a3.63,3.63,0,0,0-1.06-2.57L85.15,47.3,69.49,31.64V0H62.22V33.14a3.62,3.62,0,0,0,1.06,2.57L74.87,47.3,84,56.45v7L82.26,61.7a3.63,3.63,0,0,0-5.14,0L61.7,77.12a3.49,3.49,0,0,0-.62.81,3.65,3.65,0,0,0,.62,4.33L63.46,84h-7l-16-16-4.75-4.75a3.62,3.62,0,0,0-2.57-1.06H0v7.27H31.64l8.83,8.83L52.38,90.23a3.62,3.62,0,0,0,2.57,1.06h12.3a50.94,50.94,0,0,0-2.87,7.27H56.45L53.88,96a3.62,3.62,0,0,0-2.57-1.06h-13L24.81,81.45a3.62,3.62,0,0,0-2.57-1.06H0v7.27H20.74l13.47,13.47a3.62,3.62,0,0,0,2.57,1.06h13l1.5,1.5v5.76H0v7.27H51.31v5.76l-1.5,1.5h-13a3.62,3.62,0,0,0-2.57,1.06L20.74,138.54H0v7.27H22.24a3.62,3.62,0,0,0,2.57-1.06l13.47-13.47h13a3.62,3.62,0,0,0,2.57-1.06l2.57-2.57h7.92a51,51,0,0,0,2.87,7.27H54.95A3.62,3.62,0,0,0,52.38,136L40.46,147.88l-8.83,8.83H0V164H33.14a3.62,3.62,0,0,0,2.57-1.06l4.75-4.75,16-16h7l-1.76,1.76a3.49,3.49,0,0,0-.62.81,3.65,3.65,0,0,0,.62,4.33L77.12,164.5a3.63,3.63,0,0,0,5.14,0L84,162.73l5.16-5.16c2.36,1.12,6.87,3.5,9.37,4.25v7.92a3,3,0,0,0,3,3h23.15a3,3,0,0,0,3-3v-7.92a43.18,43.18,0,0,0,9.28-4.35l5.26,5.26,1.76,1.76a3.63,3.63,0,0,0,5.14,0l15.42-15.42a3.49,3.49,0,0,0,.62-.81,3.65,3.65,0,0,0-.62-4.33l-1.76-1.76h7l4.85,4.85,15.89,15.9a3.62,3.62,0,0,0,2.57,1.06H226.2v-7.27H194.56l-20-20-.77-.77a3.62,3.62,0,0,0-2.57-1.06h-12.3a51,51,0,0,0,2.87-7.27h7.92l2.57,2.57a3.61,3.61,0,0,0,2.28,1.05h13.33l13.47,13.47a3.62,3.62,0,0,0,2.57,1.06H226.2v-7.27H205.46L192,125.07a3.62,3.62,0,0,0-2.57-1.06h-13l-1.5-1.5v-5.76H226.2v-7.27H174.88V103.7l1.5-1.5h13a3.62,3.62,0,0,0,2.57-1.06l13.47-13.47H226.2V80.39H204a3.62,3.62,0,0,0-2.57,1.06L187.91,94.93H174.59A3.62,3.62,0,0,0,172.31,96l-2.57,2.57h-7.92a50.94,50.94,0,0,0-2.87-7.27h12.3A3.62,3.62,0,0,0,173.82,90.23ZM159,105.83h8.58v14.53H159a3.63,3.63,0,0,0-3.54,2.8A43.47,43.47,0,0,1,150.19,136a3.62,3.62,0,0,0,.52,4.48l6.08,6.08-10.28,10.28-6.08-6.08a3.63,3.63,0,0,0-4.48-.52,43.22,43.22,0,0,1-12.79,5.31,3.64,3.64,0,0,0-2.8,3.54v8.58H105.83V159a3.63,3.63,0,0,0-2.8-3.54,43.26,43.26,0,0,1-12.79-5.31,3.63,3.63,0,0,0-4.48.52l-6.08,6.08L69.41,146.5l6.08-6.08A3.63,3.63,0,0,0,76,136a43.46,43.46,0,0,1-5.31-12.79,3.63,3.63,0,0,0-3.54-2.79H58.58V105.83h8.58A3.63,3.63,0,0,0,70.7,103,43.46,43.46,0,0,1,76,90.24a3.62,3.62,0,0,0-.52-4.48l-6.08-6.08L79.69,69.41l6.08,6.08a3.64,3.64,0,0,0,4.48.52A43.22,43.22,0,0,1,103,70.7a3.64,3.64,0,0,0,2.8-3.54V58.58h14.54v8.58a3.63,3.63,0,0,0,2.8,3.54A43.26,43.26,0,0,1,136,76a3.64,3.64,0,0,0,4.48-.52l6.08-6.08,10.28,10.28-6.08,6.08a3.63,3.63,0,0,0-.52,4.48A43.46,43.46,0,0,1,155.5,103,3.63,3.63,0,0,0,159,105.83Z"/></g></g></svg>