<svg xmlns="http://www.w3.org/2000/svg" viewBox="0 0 122 122"><defs><style>.cls-1{fill:#7a5b6b;stroke:#7a5b6b;stroke-miterlimit:10;stroke-width:2px;}.cls-2{fill:#fff;}</style></defs><title>scaffolder</title><g id="Layer_2" data-name="Layer 2"><g id="Layer_1-2" data-name="Layer 1"><circle class="cls-1" cx="61" cy="61" r="60"/><path class="cls-2" d="M27,59.15H25.09l-.33-1.76a3.4,3.4,0,0,0-1-.37,5.67,5.67,0,0,0-1.36-.16,2.62,2.62,0,0,0-1.63.44,1.38,1.38,0,0,0-.58,1.15,1.25,1.25,0,0,0,.6,1.07,8.33,8.33,0,0,0,2.08.88A8.1,8.1,0,0,1,26.11,62,3.22,3.22,0,0,1,27.2,64.5a3,3,0,0,1-1.3,2.59,5.68,5.68,0,0,1-3.43.95,7.44,7.44,0,0,1-2.75-.48,5.66,5.66,0,0,1-2-1.34V63.55h2l.27,1.82a3.09,3.09,0,0,0,1,.52,4.94,4.94,0,0,0,1.48.21,2.56,2.56,0,0,0,1.6-.43,1.39,1.39,0,0,0,.55-1.15,1.49,1.49,0,0,0-.52-1.19,5.29,5.29,0,0,0-1.83-.84,10.43,10.43,0,0,1-3.45-1.56,3,3,0,0,1-1.17-2.48A3,3,0,0,1,19,55.9a5.49,5.49,0,0,1,3.31-1,7.71,7.71,0,0,1,2.69.45,6.21,6.21,0,0,1,2,1.2Z"/><path class="cls-2" d="M32.92,66.07a1.51,1.51,0,0,0,1.1-.4,1.42,1.42,0,0,0,.41-1.07h2.32l0,.05a3,3,0,0,1-1.08,2.41,4.08,4.08,0,0,1-2.78,1,4.08,4.08,0,0,1-3.28-1.34,5.12,5.12,0,0,1-1.15-3.45V63a5.06,5.06,0,0,1,1.18-3.45A4.23,4.23,0,0,1,33,58.17a5.85,5.85,0,0,1,2.07.34,4.08,4.08,0,0,1,1.52,1l0,2.54H34.58l-.42-1.49a1.62,1.62,0,0,0-.47-.28,1.75,1.75,0,0,0-.64-.11,1.62,1.62,0,0,0-1.54.79,4.11,4.11,0,0,0-.45,2v.26a4.37,4.37,0,0,0,.41,2.05A1.5,1.5,0,0,0,32.92,66.07Z"/><path class="cls-2" d="M44.08,67.86a4.57,4.57,0,0,1-.18-.49,3.8,3.8,0,0,1-.12-.5,3.53,3.53,0,0,1-1.11.85,3.32,3.32,0,0,1-1.5.33,3.13,3.13,0,0,1-2.22-.76,2.68,2.68,0,0,1-.82-2.07,2.35,2.35,0,0,1,1.07-2.07,5.6,5.6,0,0,1,3.15-.73h1.31v-.93a1.4,1.4,0,0,0-.4-1.06A1.63,1.63,0,0,0,42.08,60a2.8,2.8,0,0,0-.78.1,2.08,2.08,0,0,0-.55.24l-.17,1H38.65V59.29a7.22,7.22,0,0,1,1.61-.8,5.85,5.85,0,0,1,2-.33,4.52,4.52,0,0,1,2.87.87,3,3,0,0,1,1.1,2.47v3.93c0,.15,0,.28,0,.41a2.94,2.94,0,0,0,0,.37l.78.11v1.54Zm-2.22-1.71a2.21,2.21,0,0,0,1.05-.25,2,2,0,0,0,.74-.63V63.81H42.34a1.78,1.78,0,0,0-1.24.38,1.19,1.19,0,0,0-.42.92,1,1,0,0,0,.31.76A1.27,1.27,0,0,0,41.86,66.14Z"/><path class="cls-2" d="M48.25,66.32l1.24-.26V60.15H48.07v-1.8h1.42V57.29a3.21,3.21,0,0,1,.92-2.46A3.64,3.64,0,0,1,53,54a4.85,4.85,0,0,1,.66,0l.74.14-.22,1.91L53.78,56a3.52,3.52,0,0,0-.46,0,1.23,1.23,0,0,0-.95.34,1.39,1.39,0,0,0-.32,1v1.05h1.89v1.8H52.05v5.91l1.24.26v1.54h-5Z"/><path class="cls-2" d="M55.24,66.32l1.24-.26V60.15H55.06v-1.8h1.42V57.29a3.21,3.21,0,0,1,.92-2.46A3.64,3.64,0,0,1,60,54a4.85,4.85,0,0,1,.66,0l.74.14-.22,1.91L60.77,56a3.52,3.52,0,0,0-.46,0,1.23,1.23,0,0,0-.95.34,1.39,1.39,0,0,0-.32,1v1.05h1.89v1.8H59v5.91l1.24.26v1.54h-5Z"/><path class="cls-2" d="M61.78,63A5.09,5.09,0,0,1,63,59.53a4.68,4.68,0,0,1,6.59,0A5.09,5.09,0,0,1,70.76,63v.18a5.09,5.09,0,0,1-1.19,3.49,4.7,4.7,0,0,1-6.59,0,5.08,5.08,0,0,1-1.19-3.49Zm2.57.18a4.14,4.14,0,0,0,.46,2.09,1.58,1.58,0,0,0,1.48.79,1.56,1.56,0,0,0,1.45-.79,4.1,4.1,0,0,0,.46-2.08V63a4.07,4.07,0,0,0-.47-2.07,1.58,1.58,0,0,0-1.47-.8,1.56,1.56,0,0,0-1.46.8A4.13,4.13,0,0,0,64.35,63Z"/><path class="cls-2" d="M71.46,55.69V54.14H75.4V66.05l1.24.26v1.54h-5V66.32l1.24-.26V56Z"/><path class="cls-2" d="M83.66,66.7a3.15,3.15,0,0,1-1.06,1,2.8,2.8,0,0,1-1.39.34,3.22,3.22,0,0,1-2.73-1.28,5.47,5.47,0,0,1-1-3.39v-.18a6.16,6.16,0,0,1,1-3.63,3.16,3.16,0,0,1,2.74-1.38,2.63,2.63,0,0,1,1.28.31,3.14,3.14,0,0,1,1,.88V56l-1.37-.26V54.14h3.94V66.05l1.23.26v1.54H83.85Zm-3.59-3.33a3.9,3.9,0,0,0,.42,2,1.46,1.46,0,0,0,1.37.72,2,2,0,0,0,1-.23,1.82,1.82,0,0,0,.68-.66v-4a2,2,0,0,0-.67-.71,1.8,1.8,0,0,0-1-.25,1.44,1.44,0,0,0-1.37.83,4.76,4.76,0,0,0-.43,2.18Z"/><path class="cls-2" d="M92.6,68a4.28,4.28,0,0,1-3.29-1.32,4.71,4.71,0,0,1-1.23-3.35V63a5.2,5.2,0,0,1,1.17-3.49,4.34,4.34,0,0,1,6.11-.2,4.46,4.46,0,0,1,1.06,3.14v1.4H90.74l0,.05a2.48,2.48,0,0,0,.63,1.55,2,2,0,0,0,1.52.61,5,5,0,0,0,1.42-.17,6.57,6.57,0,0,0,1.23-.54l.69,1.58a5,5,0,0,1-1.53.78A6.48,6.48,0,0,1,92.6,68Zm-.23-7.89a1.34,1.34,0,0,0-1.12.54,2.84,2.84,0,0,0-.51,1.43l0,0h3.15v-.23a2.06,2.06,0,0,0-.38-1.31A1.38,1.38,0,0,0,92.37,60.15Z"/><path class="cls-2" d="M97.72,66.32,99,66.05v-5.9l-1.36-.26V58.35h3.75l.11,1.39a3,3,0,0,1,.86-1.15,1.92,1.92,0,0,1,1.22-.41l.43,0,.37.07-.27,2.34-1.05,0a1.8,1.8,0,0,0-.93.22,1.42,1.42,0,0,0-.56.62v4.62l1.23.26v1.54h-5Z"/></g></g></svg>