<svg xmlns="http://www.w3.org/2000/svg" viewBox="0 0 122 122"><defs><style>.cls-1{fill:#7a5b6b;stroke:#7a5b6b;stroke-miterlimit:10;stroke-width:2px;}.cls-2{fill:#fff;}</style></defs><title>user</title><g id="Layer_2" data-name="Layer 2"><g id="Layer_1-2" data-name="Layer 1"><circle class="cls-1" cx="61" cy="61" r="60"/><path class="cls-2" d="M46.76,54.51v1.55l-1.37.26V63a2.45,2.45,0,0,0,.68,1.89,2.65,2.65,0,0,0,1.87.63,2.7,2.7,0,0,0,1.89-.62,2.44,2.44,0,0,0,.69-1.9V56.32l-1.36-.26V54.51h5.3v1.55l-1.37.26V63a4.06,4.06,0,0,1-1.42,3.32,5.67,5.67,0,0,1-3.72,1.17,5.62,5.62,0,0,1-3.71-1.17A4.07,4.07,0,0,1,42.82,63V56.32l-1.36-.26V54.51h5.3Z"/><path class="cls-2" d="M62.67,61.07H60.95l-.27-1.19a2.26,2.26,0,0,0-.66-.35,2.65,2.65,0,0,0-.88-.14,1.71,1.71,0,0,0-1.07.3.92.92,0,0,0-.4.76.87.87,0,0,0,.38.72,4.07,4.07,0,0,0,1.51.5,6.17,6.17,0,0,1,2.62,1A2.27,2.27,0,0,1,63,64.58a2.49,2.49,0,0,1-1.1,2.1,4.77,4.77,0,0,1-2.9.81,6.11,6.11,0,0,1-2-.32,5.13,5.13,0,0,1-1.63-.92l0-2.14h1.79l.35,1.24a1.46,1.46,0,0,0,.62.29,3.57,3.57,0,0,0,.83.09,2.09,2.09,0,0,0,1.19-.28.88.88,0,0,0,.41-.76.9.9,0,0,0-.41-.73,4.22,4.22,0,0,0-1.52-.54,6.12,6.12,0,0,1-2.54-1,2.21,2.21,0,0,1-.86-1.83,2.66,2.66,0,0,1,1-2.06,4.12,4.12,0,0,1,2.8-.87,7.2,7.2,0,0,1,2.1.3,4.42,4.42,0,0,1,1.55.76Z"/><path class="cls-2" d="M68.8,67.49a4.28,4.28,0,0,1-3.29-1.32,4.71,4.71,0,0,1-1.23-3.35v-.35A5.2,5.2,0,0,1,65.45,59a4.34,4.34,0,0,1,6.11-.2,4.46,4.46,0,0,1,1.06,3.14v1.4H66.94l0,.05a2.48,2.48,0,0,0,.63,1.55,2,2,0,0,0,1.52.61,5,5,0,0,0,1.42-.17,6.57,6.57,0,0,0,1.23-.54l.69,1.58a5,5,0,0,1-1.53.78A6.48,6.48,0,0,1,68.8,67.49Zm-.23-7.89a1.34,1.34,0,0,0-1.12.54,2.84,2.84,0,0,0-.51,1.43l0,0h3.15v-.23a2.05,2.05,0,0,0-.38-1.3A1.38,1.38,0,0,0,68.57,59.6Z"/><path class="cls-2" d="M73.92,65.77l1.23-.26v-5.9l-1.36-.26V57.8h3.75l.11,1.39A3,3,0,0,1,78.52,58a1.92,1.92,0,0,1,1.22-.41,3,3,0,0,1,.43,0,2.51,2.51,0,0,1,.37.07l-.27,2.34-1.05,0a1.8,1.8,0,0,0-.93.22,1.42,1.42,0,0,0-.56.62V65.5l1.23.26v1.54h-5Z"/></g></g></svg>